<?xml version="1.0" encoding="iso-8859-1"?>
<!-- Generator: Adobe Illustrator 19.1.0, SVG Export Plug-In . SVG Version: 6.00 Build 0)  -->
<svg version="1.1" id="Capa_1" xmlns="http://www.w3.org/2000/svg" xmlns:xlink="http://www.w3.org/1999/xlink" x="0px" y="0px"
	 viewBox="0 0 464.011 464.011" style="enable-background:new 0 0 464.011 464.011;" xml:space="preserve">
<g>
	<g id="XMLID_13_">
		<g>
			<path style="fill:#D16A0D;" d="M457.905,37.005c1.41,26.81-11.66,79.3-20.65,111.71c-4.51,16.25-19.8,27.09-36.62,25.96
				l-66.34-4.48h-1.9c-14.67-80.72,119.17-131.53,123.5-133.15C456.585,37.015,457.255,37.005,457.905,37.005z M410.075,126.065
				l14.64-3.92l-31.64-31.64l-3.92,14.64l-11.03-11.03l-15.74,58.72l58.72-15.73L410.075,126.065z"/>
			<polygon style="fill:#F9CD16;" points="424.715,122.145 410.075,126.065 389.155,105.145 393.075,90.505 			"/>
			<polygon style="fill:#EA5F2F;" points="410.075,126.065 421.105,137.105 362.385,152.835 378.125,94.115 389.155,105.145 
				381.495,133.725 			"/>
			<polygon style="fill:#E88431;" points="410.075,126.065 381.495,133.725 389.155,105.145 			"/>
			<path style="fill:#F9A653;" d="M307.475,317.455l-3.46,33.11c26.19-11.43,49.46-50.37,49.46-50.37L307.475,317.455z
				 M159.995,350.565l-3.46-33.11h-0.01l-46-17.26C110.525,300.195,133.795,339.135,159.995,350.565z M175.485,362.005
				c-10.29,7.97-13.22,22.24-6.9,33.61l4.92,8.87c-31.05-19.18-62.94-46.52-82.98-75.92c-7.33-10.75-7.73-24.81-1.02-35.97
				c26.07-43.4,40.2-122.4,40.2-122.4h1.9c14.68-80.72-119.16-131.53-123.49-133.15c38.6,1.44,131.18,42.58,131.18,42.58
				l49.88-20.64c27.43-11.35,58.23-11.35,85.65,0l49.88,20.64c0,0,92.58-41.14,131.19-42.58c-4.33,1.62-138.17,52.43-123.5,133.15
				h1.9c0,0,14.14,79,40.21,122.4c6.7,11.16,6.31,25.22-1.02,35.97c-20.04,29.4-51.94,56.74-82.98,75.92l-0.01-0.01l4.93-8.86
				c6.31-11.37,3.38-25.64-6.9-33.61l-24.29-18.8c-18.97-14.7-45.49-14.7-64.47,0L175.485,362.005z M300.275,269.775l19.83-5.32
				l-23.26-23.26l-5.31,19.83h-0.01l-10.33-10.33l-10.76,40.17l40.17-10.76L300.275,269.775z M244.305,157.175l33.2-57.51h-26.04
				l9.51-16.48h-57.94l9.51,16.48h-26.05l33.21,57.51h-16.67l28.97,50.18l28.97-50.18H244.305z M232.005,307.845l39.36-68.18h-20.2
				l9.81-17h-57.94l9.81,17h-20.2L232.005,307.845z M193.565,290.865l-10.76-40.17l-10.33,10.33l-5.31-19.83l-23.27,23.26
				l19.83,5.32l-10.33,10.33L193.565,290.865z"/>
			<path style="fill:#CCCCCC;" d="M307.475,317.455l46-17.26c0,0-23.27,38.94-49.46,50.37L307.475,317.455z"/>
			<polygon style="fill:#F9CD16;" points="320.105,264.455 300.275,269.775 288.335,272.975 291.535,261.025 296.845,241.195 			"/>
			<polygon style="fill:#EA5F2F;" points="310.605,280.105 270.435,290.865 281.195,250.695 291.525,261.025 291.535,261.025 
				288.335,272.975 300.275,269.775 			"/>
			<path style="fill:#D16A0D;" d="M288.525,362.005c10.28,7.97,13.21,22.24,6.9,33.61l-4.93,8.86l-1.47,2.65
				c-6.81,12.27-19.74,19.88-33.78,19.88h-46.48c-14.04,0-26.97-7.61-33.79-19.88l-1.47-2.64l-4.92-8.87
				c-6.32-11.37-3.39-25.64,6.9-33.61l24.28-18.8c18.98-14.7,45.5-14.7,64.47,0L288.525,362.005z"/>
			<polygon style="fill:#F9CD16;" points="277.505,99.665 244.305,157.175 219.705,157.175 186.495,99.665 212.545,99.665 
				232.005,133.365 251.465,99.665 			"/>
			<polygon style="fill:#EA5F2F;" points="271.365,239.665 232.005,307.845 192.645,239.665 212.845,239.665 232.005,272.845 
				251.165,239.665 			"/>
			<polygon style="fill:#EA5F2F;" points="260.975,83.185 251.465,99.665 212.545,99.665 203.035,83.185 			"/>
			<polygon style="fill:#EA5F2F;" points="260.975,157.175 232.005,207.355 203.035,157.175 219.705,157.175 232.005,178.485 
				244.305,157.175 			"/>
			<polygon style="fill:#F9CD16;" points="260.975,222.665 251.165,239.665 212.845,239.665 203.035,222.665 			"/>
			<polygon style="fill:#E88431;" points="251.465,99.665 232.005,133.365 212.545,99.665 			"/>
			<polygon style="fill:#E88431;" points="251.165,239.665 232.005,272.845 212.845,239.665 			"/>
			<polygon style="fill:#E88431;" points="244.305,157.175 232.005,178.485 219.705,157.175 			"/>
			<polygon style="fill:#EA5F2F;" points="182.805,250.695 193.565,290.865 153.395,280.105 163.725,269.775 175.675,272.975 
				172.475,261.025 			"/>
			<polygon style="fill:#F9CD16;" points="172.475,261.025 175.675,272.975 163.725,269.775 143.895,264.455 167.165,241.195 			"/>
			<path style="fill:#CCCCCC;" d="M156.535,317.455l3.46,33.11c-26.2-11.43-49.47-50.37-49.47-50.37l46,17.26H156.535z"/>
			<path style="fill:#D16A0D;" d="M8.115,37.045c4.33,1.62,138.17,52.43,123.49,133.15h-1.9l-66.33,4.48
				c-16.82,1.13-32.12-9.71-36.62-25.96c-9-32.41-22.06-84.9-20.65-111.71C6.755,37.005,7.425,37.015,8.115,37.045z
				 M101.615,152.835l-15.73-58.72l-11.04,11.04l-3.92-14.65l-31.63,31.64l14.64,3.92l-11.04,11.04L101.615,152.835z"/>
			<polygon style="fill:#EA5F2F;" points="85.885,94.115 101.615,152.835 42.895,137.105 53.935,126.065 82.505,133.725 
				74.845,105.155 			"/>
			<polygon style="fill:#E88431;" points="74.845,105.155 82.505,133.725 53.935,126.065 			"/>
			<polygon style="fill:#F9CD16;" points="70.925,90.505 74.845,105.155 53.935,126.065 39.295,122.145 			"/>
		</g>
		<g>
			<path style="fill:none;stroke:#333333;stroke-width:12;stroke-linejoin:round;stroke-miterlimit:10;" d="M290.495,404.475
				l-1.47,2.65c-6.81,12.27-19.74,19.88-33.78,19.88h-46.48c-14.04,0-26.97-7.61-33.79-19.88l-1.47-2.64l-4.92-8.87
				c-6.32-11.37-3.39-25.64,6.9-33.61l24.28-18.8c18.98-14.7,45.5-14.7,64.47,0l24.29,18.8c10.28,7.97,13.21,22.24,6.9,33.61
				L290.495,404.475z"/>
			
				<polygon style="fill:none;stroke:#333333;stroke-width:8;stroke-linecap:round;stroke-linejoin:round;stroke-miterlimit:10;" points="
				251.165,239.665 271.365,239.665 232.005,307.845 192.645,239.665 212.845,239.665 			"/>
			
				<polygon style="fill:none;stroke:#333333;stroke-width:8;stroke-linecap:round;stroke-linejoin:round;stroke-miterlimit:10;" points="
				212.845,239.665 203.035,222.665 260.975,222.665 251.165,239.665 232.005,272.845 			"/>
			
				<polygon style="fill:none;stroke:#333333;stroke-width:8;stroke-linecap:round;stroke-linejoin:round;stroke-miterlimit:10;" points="
				410.075,126.065 421.105,137.105 362.385,152.835 378.125,94.115 389.155,105.145 			"/>
			
				<polygon style="fill:none;stroke:#333333;stroke-width:8;stroke-linecap:round;stroke-linejoin:round;stroke-miterlimit:10;" points="
				389.155,105.145 393.075,90.505 424.715,122.145 410.075,126.065 381.495,133.725 			"/>
			
				<polygon style="fill:none;stroke:#333333;stroke-width:8;stroke-linecap:round;stroke-linejoin:round;stroke-miterlimit:10;" points="
				53.935,126.065 42.895,137.105 101.615,152.835 85.885,94.115 74.845,105.155 			"/>
			
				<polygon style="fill:none;stroke:#333333;stroke-width:8;stroke-linecap:round;stroke-linejoin:round;stroke-miterlimit:10;" points="
				74.845,105.155 70.925,90.505 39.295,122.145 53.935,126.065 82.505,133.725 			"/>
			
				<polyline style="fill:none;stroke:#333333;stroke-width:8;stroke-linecap:round;stroke-linejoin:round;stroke-miterlimit:10;" points="
				300.275,269.775 310.605,280.105 270.435,290.865 281.195,250.695 291.525,261.025 			"/>
			
				<polygon style="fill:none;stroke:#333333;stroke-width:8;stroke-linecap:round;stroke-linejoin:round;stroke-miterlimit:10;" points="
				291.535,261.025 296.845,241.195 320.105,264.455 300.275,269.775 288.335,272.975 			"/>
			
				<polyline style="fill:none;stroke:#333333;stroke-width:8;stroke-linecap:round;stroke-linejoin:round;stroke-miterlimit:10;" points="
				172.475,261.025 182.805,250.695 193.565,290.865 153.395,280.105 163.725,269.775 			"/>
			
				<polygon style="fill:none;stroke:#333333;stroke-width:8;stroke-linecap:round;stroke-linejoin:round;stroke-miterlimit:10;" points="
				172.475,261.025 167.165,241.195 143.895,264.455 163.725,269.775 175.675,272.975 			"/>
			
				<polygon style="fill:none;stroke:#333333;stroke-width:8;stroke-linecap:round;stroke-linejoin:round;stroke-miterlimit:10;" points="
				244.305,157.175 260.975,157.175 232.005,207.355 203.035,157.175 219.705,157.175 			"/>
			
				<polygon style="fill:none;stroke:#333333;stroke-width:8;stroke-linecap:round;stroke-linejoin:round;stroke-miterlimit:10;" points="
				212.545,99.665 203.035,83.185 260.975,83.185 251.465,99.665 232.005,133.365 			"/>
			
				<polygon style="fill:none;stroke:#333333;stroke-width:8;stroke-linecap:round;stroke-linejoin:round;stroke-miterlimit:10;" points="
				251.465,99.665 277.505,99.665 244.305,157.175 232.005,178.485 219.705,157.175 186.495,99.665 212.545,99.665 			"/>
			<path style="fill:none;stroke:#333333;stroke-width:8;stroke-linejoin:round;stroke-miterlimit:10;" d="M8.005,37.005
				c0,0,0.04,0.01,0.11,0.04c4.33,1.62,138.17,52.43,123.49,133.15"/>
			<path style="fill:none;stroke:#333333;stroke-width:8;stroke-linecap:round;stroke-linejoin:round;stroke-miterlimit:10;" d="
				M146.755,172.325l5.69-10.5c3.75-6.93,13.48-7.48,17.99-1.03l20.01,28.58l-33.4,25.36c-15.18,11.53-23.97,29.58-23.69,48.64
				l0.62,41.08"/>
			
				<polyline style="fill:none;stroke:#333333;stroke-width:8;stroke-linecap:round;stroke-linejoin:round;stroke-miterlimit:10;" points="
				155.285,305.525 156.535,317.455 159.995,350.565 163.765,386.645 			"/>
			<path style="fill:none;stroke:#333333;stroke-width:8;stroke-linejoin:round;stroke-miterlimit:10;" d="M156.525,317.455
				l-46-17.26c0,0,23.27,38.94,49.47,50.37"/>
			<path style="fill:none;stroke:#333333;stroke-width:12;stroke-linejoin:round;stroke-miterlimit:10;" d="M290.505,404.485
				c31.04-19.18,62.94-46.52,82.98-75.92c7.33-10.75,7.72-24.81,1.02-35.97c-26.07-43.4-40.21-122.4-40.21-122.4l66.34,4.48
				c16.82,1.13,32.11-9.71,36.62-25.96c8.99-32.41,22.06-84.9,20.65-111.71c-0.65,0-1.32,0.01-2.01,0.04
				c-38.61,1.44-131.19,42.58-131.19,42.58l-49.88-20.64c-27.42-11.35-58.22-11.35-85.65,0l-49.88,20.64
				c0,0-92.58-41.14-131.18-42.58c-0.69-0.03-1.36-0.04-2.01-0.04c-1.41,26.81,11.65,79.3,20.65,111.71
				c4.5,16.25,19.8,27.09,36.62,25.96l66.33-4.48c0,0-14.13,79-40.2,122.4c-6.71,11.16-6.31,25.22,1.02,35.97
				c20.04,29.4,51.93,56.74,82.98,75.92"/>
			<path style="fill:none;stroke:#333333;stroke-width:8;stroke-linejoin:round;stroke-miterlimit:10;" d="M456.005,37.005
				c0,0-0.04,0.01-0.11,0.04c-4.33,1.62-138.17,52.43-123.5,133.15"/>
			<path style="fill:none;stroke:#333333;stroke-width:8;stroke-linecap:round;stroke-linejoin:round;stroke-miterlimit:10;" d="
				M317.245,172.325l-5.69-10.5c-3.75-6.93-13.47-7.48-17.99-1.03l-20,28.58l33.4,25.36c15.18,11.53,23.97,29.58,23.68,48.64
				l-0.61,41.08"/>
			
				<polyline style="fill:none;stroke:#333333;stroke-width:8;stroke-linecap:round;stroke-linejoin:round;stroke-miterlimit:10;" points="
				308.725,305.525 307.475,317.455 304.015,350.565 300.245,386.645 			"/>
			<path style="fill:none;stroke:#333333;stroke-width:8;stroke-linejoin:round;stroke-miterlimit:10;" d="M307.475,317.455
				l46-17.26c0,0-23.27,38.94-49.46,50.37"/>
			
				<line style="fill:none;stroke:#333333;stroke-width:13;stroke-linecap:round;stroke-linejoin:round;stroke-miterlimit:10;" x1="161.675" y1="180.855" x2="181.345" y2="186.685"/>
			
				<line style="fill:none;stroke:#333333;stroke-width:13;stroke-linecap:round;stroke-linejoin:round;stroke-miterlimit:10;" x1="302.335" y1="180.855" x2="281.965" y2="186.885"/>
			<path style="fill:none;stroke:#333333;stroke-width:8;stroke-linecap:round;stroke-linejoin:round;stroke-miterlimit:10;" d="
				M219.535,373.725l-5.97,13.43c-1.45,3.26-5.14,4.89-8.52,3.76c-2.92-0.97-4.74-3.68-4.74-6.58c0-0.8,0.14-1.63,0.44-2.43
				l0.68-1.79"/>
			<path style="fill:none;stroke:#333333;stroke-width:8;stroke-linecap:round;stroke-linejoin:round;stroke-miterlimit:10;" d="
				M244.475,373.725l5.97,13.43c1.44,3.26,5.13,4.89,8.52,3.76c2.91-0.97,4.73-3.68,4.73-6.57c0-0.81-0.14-1.64-0.44-2.44
				l-0.67-1.79"/>
			<path style="fill:none;stroke:#333333;stroke-width:8;stroke-linecap:round;stroke-linejoin:round;stroke-miterlimit:10;" d="
				M175.485,362.005c0,0,9.63-24.51,9.63-44.76"/>
			<path style="fill:none;stroke:#333333;stroke-width:8;stroke-linecap:round;stroke-linejoin:round;stroke-miterlimit:10;" d="
				M288.525,362.005c0,0-9.64-24.51-9.64-44.76"/>
		</g>
	</g>
</g>
<g>
</g>
<g>
</g>
<g>
</g>
<g>
</g>
<g>
</g>
<g>
</g>
<g>
</g>
<g>
</g>
<g>
</g>
<g>
</g>
<g>
</g>
<g>
</g>
<g>
</g>
<g>
</g>
<g>
</g>
</svg>
