<?xml version="1.0" encoding="iso-8859-1"?>
<!-- Generator: Adobe Illustrator 19.1.0, SVG Export Plug-In . SVG Version: 6.00 Build 0)  -->
<svg version="1.1" id="Capa_1" xmlns="http://www.w3.org/2000/svg" xmlns:xlink="http://www.w3.org/1999/xlink" x="0px" y="0px"
	 viewBox="0 0 477.29 477.29" style="enable-background:new 0 0 477.29 477.29;" xml:space="preserve">
<g>
	<path style="fill:#CCCCCC;" d="M238.645,437.13l-1.45,3.38c-2.27,5.3-5.79,9.84-10.16,13.31c-3.9,3.1-8.48,5.34-13.45,6.51
		c-0.6,0.14-1.2,0.27-1.81,0.38c-2,0.36-4.02,0.53-6.01,0.53c-11.52,0-22.46-5.84-28.81-15.78c-0.94-1.48-1.8-2.99-2.57-4.53
		c-9.53-18.82-6.76-41.77,7.43-57.82c3.75-4.25,5.77-9.69,5.77-15.25c0-1.41-0.13-2.82-0.39-4.23l-5.56-29.63v-0.01l-5.47-29.18
		c-0.79-4.18-3.25-7.42-6.45-9.37c-4.77-2.9-11.19-2.94-16.14,1.06l-2.13,1.72c2.74-8.16,7.23-15.74,13.27-22.16
		c2.73-2.9,4.37-6.66,4.64-10.63l1.42-20.82c0.14-1.98,0.23-3.95,0.27-5.92h0.13c37.11-146.2-33.7-201.74-33.7-201.74
		c-0.14-14.97,0.71-26.2,2.42-30.95c92.94,81.52,98.75,178.44,98.75,178.44s5.81-96.92,98.75-178.44
		c1.71,4.75,2.56,15.98,2.42,30.95c0,0-70.81,55.54-33.7,201.74h0.13c0.04,1.97,0.13,3.94,0.27,5.92l1.42,20.82
		c0.09,1.3,0.32,2.58,0.69,3.81h0.01c0.76,2.53,2.1,4.87,3.94,6.82c6.03,6.42,10.52,13.99,13.27,22.15l-2.13-1.71
		c-4.94-4-11.37-3.96-16.14-1.06c-3.21,1.95-5.67,5.19-6.45,9.37l-5.47,29.19l-5.56,29.63c-0.26,1.41-0.39,2.83-0.39,4.24
		c0,5.56,2.02,11,5.76,15.24c14.2,16.04,16.97,39,7.45,57.81h-0.01c-0.77,1.54-1.63,3.06-2.58,4.54
		c-6.35,9.94-17.28,15.78-28.8,15.78c-2,0-4.01-0.17-6.01-0.53c-0.61-0.11-1.21-0.24-1.81-0.38c-4.97-1.17-9.55-3.41-13.45-6.51
		c-4.37-3.47-7.89-8.01-10.16-13.31L238.645,437.13z M282.295,268.69v-21.25l-43.65,17.85l-43.65-17.85v21.25l43.65,17.85
		L282.295,268.69z M274.415,312.16V290.9l-35.77,14.63c0,0-25.19-10.3-35.77-14.63v21.26c10.58,4.33,35.77,14.63,35.77,14.63
		L274.415,312.16z M267.895,355.07v-21.25l-29.25,11.96c0,0-16.32-6.67-29.25-11.96v21.25c12.93,5.29,29.25,11.96,29.25,11.96
		L267.895,355.07z M259.735,398.65V377.4l-21.09,8.63c0,0-10.56-4.32-21.09-8.63v21.25l21.09,19.04L259.735,398.65z M259.735,237.02
		v-21.26l-21.09,8.63c0,0-10.56-4.32-21.09-8.63v21.26c10.53,4.3,21.09,8.62,21.09,8.62L259.735,237.02z"/>
	<path style="fill:#EA5F2F;" d="M307.575,295.44c4.77-2.9,11.2-2.94,16.14,1.06l2.13,1.71v0.01c2.09,6.19,3.17,12.7,3.17,19.31
		c0,2.1-0.11,4.22-0.33,6.33l3.35,14.08l5.64,23.68l6.38,26.79l0.2,0.82c3.68,15.46-3.33,31.49-17.18,39.28l-23.08,12.98l-1.08-0.57
		c9.52-18.81,6.75-41.77-7.45-57.81c-3.74-4.24-5.76-9.68-5.76-15.24c0-1.41,0.13-2.83,0.39-4.24l5.56-29.63l11.27-6.77
		c7.85-4.71,10.47-14.85,5.87-22.78l-5.22-9V295.44z"/>
	<path style="fill:#F9CD16;" d="M306.115,238.69c-37.11-146.2,33.7-201.74,33.7-201.74c-0.35,39.79-7.62,106.03-23.83,147.52
		c-6.76,17.3-10.18,35.7-9.74,54.22H306.115z"/>
	<polygon style="fill:#EA5F2F;" points="282.295,247.44 282.295,268.69 238.645,286.54 194.995,268.69 194.995,247.44 
		238.645,265.29 	"/>
	<path style="fill:#EA5F2F;" d="M274.415,290.9v21.26l-35.77,14.63c0,0-25.19-10.3-35.77-14.63V290.9
		c10.58,4.33,35.77,14.63,35.77,14.63L274.415,290.9z"/>
	<path style="fill:#EA5F2F;" d="M267.895,333.82v21.25l-29.25,11.96c0,0-16.32-6.67-29.25-11.96v-21.25
		c12.93,5.29,29.25,11.96,29.25,11.96L267.895,333.82z"/>
	<path style="fill:#EA5F2F;" d="M259.735,377.4v21.25l-21.09,19.04l-21.09-19.04V377.4c10.53,4.31,21.09,8.63,21.09,8.63
		L259.735,377.4z"/>
	<path style="fill:#EA5F2F;" d="M259.735,215.76v21.26l-21.09,8.62c0,0-10.56-4.32-21.09-8.62v-21.26
		c10.53,4.31,21.09,8.63,21.09,8.63L259.735,215.76z"/>
	<path style="fill:#808080;" d="M240.095,440.51c2.27,5.3,5.79,9.84,10.16,13.31c3.9,3.1,8.48,5.34,13.45,6.51
		c-6.24,6.74-15.16,10.96-25.06,10.96c-9.91,0-18.82-4.22-25.06-10.96c4.97-1.17,9.55-3.41,13.45-6.51
		c4.37-3.47,7.89-8.01,10.16-13.31l1.45-3.38L240.095,440.51z"/>
	<path style="fill:#EA5F2F;" d="M187.195,363.63c0.26,1.41,0.39,2.82,0.39,4.23c0,5.56-2.02,11-5.77,15.25
		c-14.19,16.05-16.96,39-7.43,57.82l-1.09,0.56l-23.08-12.98c-13.85-7.79-20.86-23.82-17.18-39.28l15.57-65.37
		c-0.22-2.11-0.33-4.23-0.33-6.33c0-6.6,1.08-13.12,3.16-19.3l0.01-0.01l2.13-1.72c4.95-4,11.37-3.96,16.14-1.06v0.01l-5.22,9
		c-4.6,7.93-1.98,18.07,5.87,22.78l11.27,6.77L187.195,363.63z"/>
	<path style="fill:#F9CD16;" d="M171.045,238.69c0.44-18.52-2.98-36.92-9.74-54.22c-16.21-41.49-23.48-107.73-23.83-147.52
		c0,0,70.81,55.54,33.7,201.74H171.045z"/>
	<path style="fill:#666666;" d="M238.645,290.54c-0.515,0-1.029-0.099-1.514-0.298l-43.65-17.85
		c-1.503-0.615-2.486-2.078-2.486-3.702v-21.25c0-1.333,0.664-2.578,1.77-3.321c1.107-0.743,2.509-0.886,3.744-0.382l42.136,17.231
		l42.136-17.231c1.234-0.505,2.637-0.361,3.744,0.382c1.107,0.743,1.77,1.988,1.77,3.321v21.25c0,1.625-0.982,3.088-2.486,3.702
		l-43.65,17.85C239.674,290.441,239.16,290.54,238.645,290.54z M198.995,266.004l39.65,16.214l39.65-16.214v-12.607l-38.136,15.595
		c-0.971,0.397-2.058,0.397-3.028,0l-38.136-15.595V266.004z"/>
	<path style="fill:#666666;" d="M238.645,330.79c-0.515,0-1.029-0.099-1.514-0.298c0,0-25.191-10.3-35.771-14.631
		c-1.503-0.615-2.485-2.078-2.485-3.702V290.9c0-1.333,0.664-2.578,1.771-3.321c1.106-0.743,2.511-0.886,3.745-0.381
		c9.02,3.692,28.661,11.723,34.255,14.01l34.256-14.011c1.233-0.505,2.637-0.361,3.744,0.382c1.107,0.743,1.771,1.988,1.771,3.321
		v21.26c0,1.624-0.982,3.087-2.486,3.702l-35.77,14.63C239.674,330.691,239.16,330.79,238.645,330.79z M206.875,309.475
		c9.738,3.984,26.646,10.898,31.77,12.994l31.77-12.994v-12.617l-30.256,12.375c-0.97,0.397-2.057,0.397-3.028,0
		c0,0-18.3-7.483-30.256-12.374V309.475z"/>
	<path style="fill:#666666;" d="M238.645,371.03c-0.514,0-1.028-0.099-1.513-0.297c0,0-16.321-6.67-29.251-11.961
		c-1.503-0.615-2.485-2.078-2.485-3.702v-21.25c0-1.333,0.664-2.578,1.77-3.321c1.107-0.743,2.511-0.886,3.744-0.381
		c10.567,4.323,23.399,9.569,27.735,11.341l27.737-11.341c1.233-0.505,2.637-0.361,3.744,0.382c1.107,0.743,1.77,1.988,1.77,3.321
		v21.25c0,1.625-0.982,3.088-2.486,3.702l-29.25,11.96C239.674,370.931,239.159,371.03,238.645,371.03z M213.395,352.385
		c10.015,4.096,21.249,8.689,25.249,10.324l25.25-10.325v-12.607l-23.736,9.706c-0.97,0.397-2.057,0.397-3.027,0
		c0,0-12.114-4.951-23.737-9.705V352.385z"/>
	<path style="fill:#666666;" d="M238.645,421.69c-0.959,0-1.919-0.344-2.681-1.031l-21.09-19.04
		c-0.84-0.758-1.319-1.837-1.319-2.969V377.4c0-1.333,0.664-2.578,1.771-3.321c1.106-0.743,2.511-0.885,3.744-0.381l19.575,8.01
		l19.575-8.01c1.234-0.505,2.638-0.362,3.745,0.381c1.106,0.743,1.771,1.988,1.771,3.321v21.25c0,1.132-0.479,2.211-1.319,2.969
		l-21.09,19.04C240.564,421.346,239.605,421.69,238.645,421.69z M221.555,396.872l17.09,15.429l17.09-15.429v-13.513l-15.575,6.374
		c-0.972,0.397-2.059,0.397-3.03,0l-15.575-6.374V396.872z"/>
	<path style="fill:#666666;" d="M238.645,249.64c-0.515,0-1.029-0.099-1.515-0.298c0,0-10.559-4.32-21.087-8.619
		c-1.504-0.614-2.488-2.078-2.488-3.703v-21.26c0-1.333,0.664-2.578,1.77-3.321c1.107-0.743,2.511-0.886,3.745-0.381l19.575,8.01
		l19.575-8.01c1.233-0.504,2.638-0.362,3.744,0.381c1.106,0.743,1.771,1.988,1.771,3.321v21.26c0,1.625-0.983,3.088-2.487,3.703
		l-21.09,8.62C239.673,249.541,239.159,249.64,238.645,249.64z M221.555,234.333c7.263,2.966,14.138,5.778,17.09,6.985l17.089-6.985
		v-12.615l-15.575,6.373c-0.971,0.397-2.059,0.397-3.029,0l-15.575-6.373V234.333z"/>
	<path style="fill:none;stroke:#333333;stroke-width:8;stroke-linecap:round;stroke-linejoin:round;stroke-miterlimit:10;" d="
		M206.465,200.86c17.79-17.79,46.57-17.79,64.36,0"/>
	
		<polyline style="fill:none;stroke:#333333;stroke-width:8;stroke-linecap:round;stroke-linejoin:round;stroke-miterlimit:10;" points="
		260.075,419.43 238.645,437.13 217.215,419.43 	"/>
	<path style="fill:none;stroke:#333333;stroke-width:12;stroke-linejoin:round;stroke-miterlimit:10;" d="M213.585,460.33
		c6.24,6.74,15.15,10.96,25.06,10.96c9.9,0,18.82-4.22,25.06-10.96"/>
	<path style="fill:#D16A0D;" d="M160.191,173.778l-6.758-4.282l21.739-34.306l-34.062-22.645c-0.932-0.62-1.562-1.602-1.737-2.707
		c-0.174-1.106,0.122-2.234,0.818-3.111l20.415-25.723l-23.704-11.732l3.549-7.17L168.59,76.03c1.083,0.536,1.865,1.533,2.129,2.712
		c0.264,1.179-0.019,2.414-0.77,3.36l-20.786,26.191l33.697,22.402c1.812,1.204,2.329,3.635,1.165,5.472L160.191,173.778z"/>
	<path style="fill:#D16A0D;" d="M317.206,173.778l-23.834-37.611c-1.164-1.837-0.647-4.268,1.164-5.472l33.697-22.402
		l-20.786-26.191c-0.751-0.946-1.034-2.181-0.77-3.36c0.264-1.179,1.046-2.176,2.129-2.712l28.139-13.927l3.549,7.17L316.79,81.005
		l20.415,25.723c0.696,0.877,0.992,2.005,0.818,3.111c-0.175,1.105-0.805,2.087-1.737,2.707l-34.062,22.645l21.739,34.306
		L317.206,173.778z"/>
	<g>
		<path style="fill:#666666;" d="M300.539,356.64c-2.833,0-5.691-0.265-8.494-0.788l1.467-7.864c2.32,0.433,4.685,0.652,7.027,0.652
			c11.142,0,21.691-4.849,28.944-13.304l6.072,5.208C326.78,350.773,314.017,356.64,300.539,356.64z"/>
		<path style="fill:#666666;" d="M300.539,377.97c-3.47,0-6.943-0.265-10.321-0.787l1.222-7.906c2.976,0.46,6.037,0.693,9.1,0.693
			c12.801,0,24.988-4,35.245-11.569l4.75,6.437C328.891,373.429,315.061,377.97,300.539,377.97z"/>
		<path style="fill:#666666;" d="M306.109,403.793l-0.462-7.987c13.111-0.759,25.532-4.418,36.918-10.876l3.947,6.958
			C334.049,398.958,320.456,402.963,306.109,403.793z"/>
		<path style="fill:#666666;" d="M176.751,356.64c-13.479,0-26.242-5.867-35.016-16.096l6.072-5.208
			c7.253,8.455,17.802,13.304,28.944,13.304c2.342,0,4.707-0.219,7.027-0.652l1.467,7.864
			C182.442,356.375,179.585,356.64,176.751,356.64z"/>
		<path style="fill:#666666;" d="M176.751,377.97c-14.523,0-28.353-4.541-39.995-13.132l4.75-6.437
			c10.256,7.568,22.444,11.569,35.245,11.569c3.062,0,6.124-0.233,9.1-0.693l1.222,7.906
			C183.694,377.705,180.222,377.97,176.751,377.97z"/>
		<path style="fill:#666666;" d="M171.181,403.793c-14.347-0.83-27.94-4.835-40.403-11.904l3.947-6.958
			c11.386,6.458,23.807,10.117,36.918,10.876L171.181,403.793z"/>
	</g>
	<path style="fill:none;stroke:#333333;stroke-width:12;stroke-linejoin:round;stroke-miterlimit:10;" d="M303.995,441.49
		l23.08-12.98c13.85-7.79,20.86-23.82,17.18-39.28l-0.2-0.82l-6.38-26.79l-5.64-23.68l-3.35-14.08c0.22-2.11,0.33-4.23,0.33-6.33
		c0-6.61-1.08-13.12-3.17-19.31v-0.01c-2.75-8.16-7.24-15.73-13.27-22.15c-1.84-1.95-3.18-4.29-3.94-6.82h-0.01
		c-0.37-1.23-0.6-2.51-0.69-3.81l-1.42-20.82c-0.14-1.98-0.23-3.95-0.27-5.92c-0.44-18.52,2.98-36.92,9.74-54.22
		c16.21-41.49,23.48-107.73,23.83-147.52c0.14-14.97-0.71-26.2-2.42-30.95c-92.94,81.52-98.75,178.44-98.75,178.44
		S232.835,87.52,139.895,6c-1.71,4.75-2.56,15.98-2.42,30.95c0.35,39.79,7.62,106.03,23.83,147.52c6.76,17.3,10.18,35.7,9.74,54.22
		c-0.04,1.97-0.13,3.94-0.27,5.92l-1.42,20.82c-0.27,3.97-1.91,7.73-4.64,10.63c-6.04,6.42-10.53,14-13.27,22.16l-0.01,0.01
		c-2.08,6.18-3.16,12.7-3.16,19.3c0,2.1,0.11,4.22,0.33,6.33l-15.57,65.37c-3.68,15.46,3.33,31.49,17.18,39.28l23.08,12.98"/>
	<path style="fill:#333333;" d="M312.795,304.45c4.6,7.93,1.98,18.07-5.87,22.78l-11.27,6.77l5.47-29.19
		c0.78-4.18,3.24-7.42,6.45-9.37v0.01L312.795,304.45z"/>
	<path style="fill:#333333;" d="M181.635,333.99V334l-11.27-6.77c-7.85-4.71-10.47-14.85-5.87-22.78l5.22-9v-0.01
		c3.2,1.95,5.66,5.19,6.45,9.37L181.635,333.99z"/>
	<path style="fill:none;stroke:#333333;stroke-width:8;stroke-linejoin:round;stroke-miterlimit:10;" d="M169.715,295.45l-5.22,9
		c-4.6,7.93-1.98,18.07,5.87,22.78l11.27,6.77"/>
	<path style="fill:none;stroke:#333333;stroke-width:8;stroke-linejoin:round;stroke-miterlimit:10;" d="M307.575,295.45l5.22,9
		c4.6,7.93,1.98,18.07-5.87,22.78l-11.27,6.77"/>
	<path style="fill:none;stroke:#333333;stroke-width:12;stroke-linejoin:round;stroke-miterlimit:10;" d="M325.865,298.23
		l-0.02-0.01v-0.01l-2.13-1.71c-4.94-4-11.37-3.96-16.14-1.06c-3.21,1.95-5.67,5.19-6.45,9.37l-5.47,29.19l-5.56,29.63
		c-0.26,1.41-0.39,2.83-0.39,4.24c0,5.56,2.02,11,5.76,15.24c14.2,16.04,16.97,39,7.45,57.81h-0.01c-0.77,1.54-1.63,3.06-2.58,4.54
		c-6.35,9.94-17.28,15.78-28.8,15.78c-2,0-4.01-0.17-6.01-0.53c-0.61-0.11-1.21-0.24-1.81-0.38c-4.97-1.17-9.55-3.41-13.45-6.51
		c-4.37-3.47-7.89-8.01-10.16-13.31l-1.45-3.38l-1.45,3.38c-2.27,5.3-5.79,9.84-10.16,13.31c-3.9,3.1-8.48,5.34-13.45,6.51
		c-0.6,0.14-1.2,0.27-1.81,0.38c-2,0.36-4.02,0.53-6.01,0.53c-11.52,0-22.46-5.84-28.81-15.78c-0.94-1.48-1.8-2.99-2.57-4.53
		c-9.53-18.82-6.76-41.77,7.43-57.82c3.75-4.25,5.77-9.69,5.77-15.25c0-1.41-0.13-2.82-0.39-4.23l-5.56-29.63v-0.01l-5.47-29.18
		c-0.79-4.18-3.25-7.42-6.45-9.37c-4.77-2.9-11.19-2.94-16.14,1.06l-2.13,1.72l-0.01,0.01"/>
	<path style="fill:none;stroke:#333333;stroke-width:8;stroke-linejoin:round;stroke-miterlimit:10;" d="M137.475,36.95
		c0,0,70.81,55.54,33.7,201.74"/>
	<path style="fill:none;stroke:#333333;stroke-width:8;stroke-linejoin:round;stroke-miterlimit:10;" d="M339.815,36.95
		c0,0-70.81,55.54-33.7,201.74"/>
</g>
<g>
</g>
<g>
</g>
<g>
</g>
<g>
</g>
<g>
</g>
<g>
</g>
<g>
</g>
<g>
</g>
<g>
</g>
<g>
</g>
<g>
</g>
<g>
</g>
<g>
</g>
<g>
</g>
<g>
</g>
</svg>
