<?xml version="1.0" encoding="iso-8859-1"?>
<!-- Generator: Adobe Illustrator 19.1.0, SVG Export Plug-In . SVG Version: 6.00 Build 0)  -->
<svg version="1.1" id="Capa_1" xmlns="http://www.w3.org/2000/svg" xmlns:xlink="http://www.w3.org/1999/xlink" x="0px" y="0px"
	 viewBox="0 0 416.112 416.112" style="enable-background:new 0 0 416.112 416.112;" xml:space="preserve">
<g>
	<path style="fill:#52CE7F;" d="M77.93,95.817c4.97,0,9,4.02,9,9c0,4.97-4.03,9-9,9c-4.97,0-9-4.03-9-9
		C68.93,99.837,72.96,95.817,77.93,95.817z"/>
	<path style="fill:#52CE7F;" d="M381.93,95.817c4.97,0,9,4.02,9,9c0,4.97-4.03,9-9,9s-9-4.03-9-9
		C372.93,99.837,376.96,95.817,381.93,95.817z"/>
	<path style="fill:#52CE7F;" d="M70.09,135.517c0,0.01,0,0.02,0.01,0.03c-3.89,29.98-20.49,56.38-44.89,72.92
		c-6.54,4.44-13.64,8.18-21.21,11.08c2.46-19.01,10.04-36.58,21.47-51.12C36.9,153.887,52.19,142.387,70.09,135.517z"/>
	<path style="fill:#5484EF;" d="M70.1,135.547c8.89,46.84-8.61,94.79-45.6,124.87c-2.08-10.99-2.72-22.04-2-32.91
		c0.43-6.43,1.34-12.78,2.71-19.03v-0.01C49.61,191.927,66.21,165.527,70.1,135.547z"/>
	<path style="fill:#F9A653;" d="M410.06,89.377c1.31,30.68-22.36,56.69-53.02,58.25h-0.01c-0.29-2.79-0.49-5.58-0.61-8.38
		c-0.19-4.38-0.17-8.77,0.05-13.16c0.05-1.02,0.08-2.04,0.08-3.05c0-1.28-0.04-2.55-0.12-3.81c-0.59-9.37-3.33-18.2-7.76-25.98
		c39.23-86.56,58.9-62.28,58.9-62.28L410.06,89.377z M390.93,104.817c0-4.98-4.03-9-9-9s-9,4.02-9,9c0,4.97,4.03,9,9,9
		S390.93,109.787,390.93,104.817z"/>
	<path style="fill:#D16A0D;" d="M407.57,30.967c0,0-19.67-24.28-58.9,62.28c-2.52-4.44-5.6-8.54-9.13-12.19
		c-4.49-4.63-9.71-8.55-15.5-11.56l47.5-51.69C384.05,4.187,406.78,12.487,407.57,30.967z"/>
	<path style="fill:#F9CD16;" d="M391.5,268.467c25,74.39-45.35,145.39-119.81,121.39c8.79-7.36,15.59-17.02,19.5-28.04
		c19.93-4.87,38.32-15.39,52.76-30.69c18.94-20.05,29.42-46.55,29.42-74.01c0-1.7-0.04-3.41-0.12-5.12l-0.03-0.65l-1.2-25.15
		l-0.87-18.3L391.5,268.467z"/>
	<path style="fill:#D16A0D;" d="M229.93,184.817c8.83,0,16-7.17,16-16c0-8.84-7.17-16-16-16c-8.84,0-16,7.16-16,16
		C213.93,177.647,221.09,184.817,229.93,184.817z M229.93,333.797c7.09,0,13.77-2.28,19.23-6.24c5.46-3.97,9.7-9.62,11.89-16.36
		c0.27-0.83,0.4-1.66,0.4-2.47c0-4.22-3.43-7.93-7.95-7.93h-47.13c-5.4,0-9.23,5.27-7.56,10.4c2.19,6.74,6.43,12.39,11.89,16.36
		C216.16,331.517,222.84,333.797,229.93,333.797z M229.93,337.077c0,14.04-10.62,25.82-24.59,27.26c-3.56,0.37-7.11,0.56-10.65,0.56
		h-0.01h-0.01c-0.13,0.01-0.27,0.01-0.4,0.01c-8.69,0-17.28-1.05-25.6-3.1c-19.93-4.86-38.32-15.39-52.76-30.68
		c-18.94-20.05-29.42-46.55-29.42-74.01c0-1.7,0.04-3.41,0.12-5.12l0.03-0.65c11.18,7.39,24.51,11.62,38.59,11.62
		c12.44,0,24.7-3.35,35.48-9.69l27.48-16.17l-22.5-71.05c-8.71-27.47-33.58-46.11-62.26-46.83c0.59-9.37,3.33-18.21,7.76-25.99
		c2.52-4.43,5.59-8.52,9.13-12.17c0,0,60.78,45.75,74.78,83.75c0-16.5,8.71-25.25,17.41-29.88c10.84-5.76,23.99-5.76,34.83,0
		c8.7,4.63,17.41,13.38,17.41,29.88c14-38,74.78-83.75,74.78-83.75l0.01-0.01c3.53,3.65,6.61,7.75,9.13,12.19
		c4.43,7.78,7.17,16.61,7.76,25.98c-28.68,0.72-53.55,19.36-62.26,46.83l-22.5,71.05l27.48,16.17c10.78,6.34,23.04,9.69,35.48,9.69
		c14.08,0,27.41-4.23,38.59-11.62l0.03,0.65c0.08,1.71,0.12,3.42,0.12,5.12c0,27.46-10.48,53.96-29.42,74.01
		c-14.44,15.3-32.83,25.82-52.76,30.69c-8.32,2.04-16.91,3.09-25.59,3.09c-0.14,0-0.27,0-0.41-0.01h-0.01h-0.01
		c-3.54-0.01-7.08-0.19-10.64-0.56C240.55,362.897,229.93,351.117,229.93,337.077z"/>
	<path style="fill:#F9CD16;" d="M372.02,226.197l1.2,25.15c-11.18,7.39-24.51,11.62-38.59,11.62c-12.44,0-24.7-3.35-35.48-9.69
		l-27.48-16.17l22.5-71.05c8.71-27.47,33.58-46.11,62.26-46.83c0.08,1.26,0.12,2.53,0.12,3.81c0,1.01-0.03,2.03-0.08,3.05
		c-0.22,4.39-0.24,8.78-0.05,13.16c-19.91,0.7-37.12,13.72-43.18,32.84l-17.69,55.87l13.74,8.08c7.71,4.53,16.47,6.93,25.34,6.93
		C349.24,242.967,362.72,236.597,372.02,226.197z"/>
	<path style="fill:#F9A653;" d="M371.15,207.897l0.87,18.3c-9.3,10.4-22.78,16.77-37.39,16.77c-8.87,0-17.63-2.4-25.34-6.93
		l-13.74-8.08l17.69-55.87c6.06-19.12,23.27-32.14,43.18-32.84c0.12,2.8,0.32,5.59,0.61,8.38c0.4,3.89,0.96,7.75,1.68,11.59h-0.01
		c-9.51-0.2-18.22,4.58-23.24,12.26c-1.32,2.03-2.39,4.26-3.15,6.65l-12.88,40.67c4.84,2.85,10.07,4.17,15.2,4.17
		c4.69,0,9.3-1.11,13.45-3.18c7.35-3.64,13.25-10.29,15.62-19.07l2.6-9.61l2.13,8.69l2.72,8.09V207.897z"/>
	<path style="fill:#EA5F2F;" d="M366.3,191.097v0.01l-2.6,9.61c-2.37,8.78-8.27,15.43-15.62,19.07c3.39-5.29,5.35-11.58,5.35-18.33
		c0-12.97-7.27-24.25-17.96-29.98h-0.01c5.02-7.68,13.73-12.46,23.24-12.26h0.01c0.48,2.59,1.03,5.16,1.66,7.72L366.3,191.097z"/>
	<path style="fill:#333333;" d="M353.43,201.457c0,6.75-1.96,13.04-5.35,18.33c-4.15,2.07-8.76,3.18-13.45,3.18
		c-5.13,0-10.36-1.32-15.2-4.17l12.88-40.67c0.76-2.39,1.83-4.62,3.15-6.65h0.01C346.16,177.207,353.43,188.487,353.43,201.457z"/>
	<path style="fill:#F9CD16;" d="M339.54,81.057l-0.01,0.01c0,0-60.78,45.75-74.78,83.75c0-16.5-8.71-25.25-17.41-29.88
		c-10.84-5.76-23.99-5.76-34.83,0c-8.7,4.63-17.41,13.38-17.41,29.88c-14-38-74.78-83.75-74.78-83.75
		c4.48-4.64,9.71-8.56,15.5-11.57c3.84-2.01,7.94-3.62,12.23-4.76c11.49,9.37,30.64,26.05,47.24,45.49
		c1.03-0.62,2.08-1.21,3.15-1.78c19.71-10.48,43.26-10.48,62.97,0c1.07,0.57,2.12,1.16,3.15,1.78
		c16.6-19.44,35.75-36.12,47.25-45.49c4.29,1.14,8.39,2.75,12.23,4.76C329.83,72.507,335.05,76.427,339.54,81.057z"/>
	<path style="fill:#D16A0D;" d="M300.2,62.817c4,0.27,7.88,0.92,11.61,1.92c-11.5,9.37-30.65,26.05-47.25,45.49
		c-1.03-0.62-2.08-1.21-3.15-1.78c-19.71-10.48-43.26-10.48-62.97,0c-1.07,0.57-2.12,1.16-3.15,1.78
		c-16.6-19.44-35.75-36.12-47.24-45.49c3.73-1,7.61-1.65,11.61-1.92l39.28-2.25c20.64-1.18,41.34-1.18,61.98,0L300.2,62.817z"/>
	<path style="fill:#D16A0D;" d="M291.19,361.817c-3.91,11.02-10.71,20.68-19.5,28.04c-11.29,9.49-25.86,15.2-41.76,15.2
		s-30.47-5.71-41.76-15.2c-8.79-7.36-15.59-17.02-19.5-28.04v-0.01c8.32,2.05,16.91,3.1,25.6,3.1c0.13,0,0.27,0,0.4-0.01h0.01h0.01
		c10.16,6.58,22.24,10.39,35.24,10.39s25.08-3.81,35.24-10.39h0.01h0.01c0.14,0.01,0.27,0.01,0.41,0.01
		C274.28,364.907,282.87,363.857,291.19,361.817z"/>
	<path style="fill:#964502;" d="M261.45,308.727c0,0.81-0.13,1.64-0.4,2.47c-2.19,6.74-6.43,12.39-11.89,16.36
		c-5.46,3.96-12.14,6.24-19.23,6.24s-13.77-2.28-19.23-6.24c-5.46-3.97-9.7-9.62-11.89-16.36c-1.67-5.13,2.16-10.4,7.56-10.4h47.13
		C258.02,300.797,261.45,304.507,261.45,308.727z"/>
	<path style="fill:#EA5F2F;" d="M254.53,364.337c3.56,0.37,7.1,0.55,10.64,0.56c-10.16,6.58-22.24,10.39-35.24,10.39
		s-25.08-3.81-35.24-10.39c3.54,0,7.09-0.19,10.65-0.56c13.97-1.44,24.59-13.22,24.59-27.26
		C229.93,351.117,240.55,362.897,254.53,364.337z"/>
	<path style="fill:#F9CD16;" d="M229.93,152.817c8.83,0,16,7.16,16,16c0,8.83-7.17,16-16,16c-8.84,0-16-7.17-16-16
		C213.93,159.977,221.09,152.817,229.93,152.817z"/>
	<path style="fill:#F9CD16;" d="M165.69,166.057l22.5,71.05l-27.48,16.17c-10.78,6.34-23.04,9.69-35.48,9.69
		c-14.08,0-27.41-4.23-38.59-11.62l1.2-25.15c9.3,10.4,22.78,16.77,37.39,16.77c8.87,0,17.63-2.4,25.34-6.93l13.74-8.08
		l-17.69-55.87c-6.06-19.12-23.27-32.14-43.18-32.84c0.09-2.01,0.13-4.03,0.13-6.05c0-2.37-0.06-4.74-0.18-7.11
		c-0.12-2.31-0.1-4.6,0.04-6.86C132.11,119.947,156.98,138.587,165.69,166.057z"/>
	<path style="fill:#F9CD16;" d="M168.67,361.817c3.91,11.02,10.71,20.68,19.5,28.04c-74.46,24-144.81-47-119.81-121.39l20.35-60.57
		l-0.87,18.3l-1.2,25.15l-0.03,0.65c-0.08,1.71-0.12,3.42-0.12,5.12c0,27.46,10.48,53.96,29.42,74.01
		c14.44,15.29,32.83,25.82,52.76,30.68V361.817z"/>
	<path style="fill:#F9A653;" d="M146.62,172.087l17.69,55.87l-13.74,8.08c-7.71,4.53-16.47,6.93-25.34,6.93
		c-14.61,0-28.09-6.37-37.39-16.77l0.87-18.3v-0.01l2.72-8.09l2.14-8.7l2.59,9.62c2.37,8.78,8.27,15.43,15.62,19.07
		c4.15,2.07,8.76,3.18,13.45,3.18c5.13,0,10.36-1.32,15.2-4.17l-12.88-40.67c-0.76-2.39-1.83-4.62-3.15-6.65
		c-5.02-7.68-13.73-12.46-23.24-12.26h-0.01c0.73-3.84,1.28-7.71,1.68-11.59c0.29-2.78,0.49-5.58,0.61-8.38
		C123.35,139.947,140.56,152.967,146.62,172.087z"/>
	<path style="fill:#333333;" d="M127.55,178.127l12.88,40.67c-4.84,2.85-10.07,4.17-15.2,4.17c-4.69,0-9.3-1.11-13.45-3.18
		c-3.39-5.29-5.35-11.58-5.35-18.33c0-12.97,7.27-24.25,17.96-29.98h0.01C125.72,173.507,126.79,175.737,127.55,178.127z"/>
	<path style="fill:#D16A0D;" d="M88.33,17.807l47.49,51.69c-5.79,3.01-11.02,6.93-15.5,11.57c-3.54,3.65-6.61,7.74-9.13,12.17
		c-39.23-86.55-58.9-62.27-58.9-62.27C53.08,12.487,75.81,4.187,88.33,17.807z"/>
	<path style="fill:#EA5F2F;" d="M124.4,171.477h-0.01c-10.69,5.73-17.96,17.01-17.96,29.98c0,6.75,1.96,13.04,5.35,18.33
		c-7.35-3.64-13.25-10.29-15.62-19.07l-2.59-9.62l5.92-24.16c0.63-2.56,1.18-5.13,1.66-7.72h0.01
		C110.67,159.017,119.38,163.797,124.4,171.477z"/>
	<path style="fill:#F9A653;" d="M103.57,133.197c0,2.02-0.04,4.04-0.13,6.05c-0.12,2.8-0.32,5.6-0.61,8.38
		c-30.67-1.56-54.34-27.57-53.03-58.25l2.49-58.41c0,0,19.67-24.28,58.9,62.27c-4.43,7.78-7.17,16.62-7.76,25.99
		c-0.14,2.26-0.16,4.55-0.04,6.86C103.51,128.457,103.57,130.827,103.57,133.197z M86.93,104.817c0-4.98-4.03-9-9-9
		c-4.97,0-9,4.02-9,9c0,4.97,4.03,9,9,9C82.9,113.817,86.93,109.787,86.93,104.817z"/>
	<path style="fill:none;stroke:#333333;stroke-width:12;stroke-linecap:round;stroke-linejoin:round;stroke-miterlimit:10;" d="
		M135.82,69.497l-47.49-51.69c-12.52-13.62-35.25-5.32-36.04,13.16l-2.49,58.41c-1.31,30.68,22.36,56.69,53.03,58.25"/>
	<path style="fill:none;stroke:#333333;stroke-width:8;stroke-linejoin:round;stroke-miterlimit:10;" d="M52.29,30.967
		c0,0,19.67-24.28,58.9,62.27l0.01,0.01"/>
	<path style="fill:#666666;" d="M115.54,246.087c-2.17-0.39-3.61-2.48-3.22-4.65l0,0c0.4-2.17,2.48-3.61,4.66-3.22l0,0
		c2.17,0.4,3.61,2.48,3.21,4.66l0,0c-0.35,1.93-2.03,3.28-3.93,3.28l0,0C116.02,246.157,115.78,246.137,115.54,246.087z
		 M133.21,242.477c-0.53-2.14,0.78-4.31,2.93-4.84l0,0c2.14-0.52,4.31,0.79,4.84,2.93l0,0c0.52,2.15-0.79,4.31-2.93,4.84l0,0
		c-0.32,0.08-0.64,0.12-0.96,0.12l0,0C135.29,245.527,133.66,244.307,133.21,242.477z M94.72,237.527c0,0,0,0,0-0.01l0,0
		c-1.82-1.24-2.289-3.73-1.039-5.55l0,0c1.25-1.83,3.73-2.3,5.56-1.05l0,0c1.82,1.25,2.29,3.74,1.04,5.56l0,0
		c-0.77,1.13-2.03,1.74-3.3,1.74l0,0C96.2,238.217,95.41,237.997,94.72,237.527z M152.64,234.827c-1.12-1.91-0.49-4.36,1.42-5.48
		l0,0c1.9-1.12,4.35-0.49,5.47,1.42l0,0c1.12,1.9,0.49,4.36-1.42,5.48l0,0c-0.64,0.37-1.33,0.55-2.02,0.55l0,0
		C154.72,236.797,153.38,236.087,152.64,234.827z M157.04,218.237c-0.67-2.1,0.5-4.35,2.6-5.02l0,0c2.11-0.66,4.36,0.5,5.03,2.61
		l0,0c0.66,2.1-0.51,4.35-2.61,5.02l0,0c-0.4,0.13-0.81,0.19-1.21,0.19l0,0C159.15,221.037,157.58,219.947,157.04,218.237z
		 M150.7,198.217c-0.67-2.1,0.5-4.35,2.6-5.02l0,0c2.11-0.66,4.36,0.5,5.02,2.61l0,0c0.67,2.1-0.49,4.35-2.6,5.02l0,0
		c-0.4,0.13-0.809,0.19-1.21,0.19l0,0C152.81,201.017,151.24,199.927,150.7,198.217z M144.36,178.197c-0.67-2.1,0.5-4.35,2.61-5.02
		l0,0c2.1-0.66,4.35,0.5,5.02,2.61l0,0c0.66,2.1-0.5,4.35-2.61,5.02l0,0c-0.4,0.13-0.81,0.19-1.21,0.19l0,0
		C146.47,180.997,144.9,179.907,144.36,178.197z M136.22,160.437c-1.32-1.77-0.95-4.28,0.82-5.6l0,0c1.77-1.32,4.27-0.96,5.6,0.81
		l0,0c1.32,1.77,0.95,4.28-0.82,5.6l0,0c-0.72,0.54-1.56,0.8-2.39,0.8l0,0C138.21,162.047,137.01,161.487,136.22,160.437z
		 M121.73,148.087c-1.96-1.02-2.72-3.43-1.7-5.39l0,0c1.02-1.96,3.44-2.72,5.4-1.7l0,0c1.96,1.02,2.72,3.44,1.69,5.4l0,0
		c-0.71,1.37-2.1,2.15-3.54,2.15l0,0C122.95,148.547,122.32,148.397,121.73,148.087z M103.3,143.247c-2.21-0.08-3.94-1.93-3.86-4.14
		l0,0c0.08-2.21,1.93-3.93,4.14-3.86l0,0c2.21,0.08,3.93,1.93,3.86,4.14l0,0c-0.08,2.16-1.85,3.86-4,3.86l0,0
		C103.4,143.247,103.35,143.247,103.3,143.247z"/>
	<path style="fill:#964502;" d="M120.79,266.837c-2.2-0.14-3.88-2.03-3.75-4.24l0,0c0.13-2.2,2.03-3.88,4.23-3.75l0,0
		c2.21,0.13,3.89,2.03,3.75,4.23l0,0c-0.12,2.13-1.88,3.76-3.98,3.76l0,0C120.96,266.837,120.87,266.837,120.79,266.837z
		 M137.98,261.907c-0.53-2.15,0.79-4.32,2.93-4.84l0,0c2.15-0.53,4.309,0.78,4.84,2.92l0,0c0.53,2.15-0.78,4.32-2.93,4.84l0,0l0,0
		l0,0c-0.32,0.08-0.64,0.12-0.96,0.12l0,0C140.07,264.947,138.43,263.727,137.98,261.907z M99.16,262.217
		c-2.07-0.78-3.11-3.09-2.33-5.16l0,0c0.78-2.07,3.09-3.11,5.16-2.33l0,0c2.06,0.78,3.1,3.09,2.32,5.16l0,0
		c-0.6,1.6-2.12,2.58-3.74,2.58l0,0C100.1,262.467,99.62,262.387,99.16,262.217z M157.77,255.007c-1.12-1.9-0.49-4.35,1.41-5.47l0,0
		c1.91-1.12,4.36-0.49,5.48,1.42l0,0c1.12,1.9,0.49,4.35-1.42,5.47l0,0c-0.64,0.38-1.33,0.55-2.02,0.55l0,0
		C159.85,256.977,158.51,256.277,157.77,255.007z M175.86,244.357c-1.12-1.9-0.48-4.35,1.42-5.47l0,0c1.91-1.12,4.36-0.49,5.48,1.42
		l0,0c1.12,1.9,0.48,4.35-1.42,5.47l0,0c-0.64,0.38-1.34,0.55-2.03,0.55l0,0C177.94,246.327,176.61,245.627,175.86,244.357z
		 M181.15,228.117c-0.67-2.11,0.5-4.36,2.6-5.02l0,0c2.11-0.67,4.35,0.5,5.02,2.6l0,0c0.67,2.11-0.5,4.36-2.6,5.02l0,0
		c-0.41,0.13-0.81,0.19-1.21,0.19l0,0C183.26,230.907,181.69,229.817,181.15,228.117z M174.81,208.097c-0.67-2.11,0.5-4.36,2.6-5.02
		l0,0c2.11-0.67,4.36,0.5,5.02,2.6l0,0c0.67,2.11-0.5,4.36-2.6,5.02l0,0c-0.4,0.13-0.81,0.19-1.21,0.19l0,0
		C176.92,210.887,175.35,209.797,174.81,208.097z M168.47,188.077c-0.67-2.11,0.5-4.36,2.6-5.02l0,0c2.11-0.67,4.36,0.5,5.02,2.6
		l0,0c0.67,2.11-0.5,4.36-2.6,5.02l0,0c-0.4,0.13-0.81,0.19-1.21,0.19l0,0C170.58,190.867,169.01,189.777,168.47,188.077z
		 M162.13,168.057c-0.67-2.11,0.5-4.36,2.6-5.02l0,0c2.11-0.67,4.36,0.5,5.02,2.6l0,0c0.67,2.11-0.5,4.36-2.6,5.02l0,0
		c-0.4,0.13-0.81,0.19-1.21,0.19l0,0C164.24,170.847,162.67,169.757,162.13,168.057z M153.56,150.287c-1.25-1.82-0.8-4.31,1.02-5.57
		l0,0c1.81-1.25,4.31-0.8,5.56,1.02l0,0l0,0l0,0c1.26,1.81,0.81,4.31-1.01,5.56l0,0c-0.7,0.48-1.49,0.71-2.27,0.71l0,0
		C155.59,152.007,154.34,151.407,153.56,150.287z M139.99,136.067c-1.76-1.34-2.1-3.85-0.76-5.6l0,0c1.34-1.76,3.85-2.1,5.61-0.76
		l0,0c1.76,1.34,2.09,3.85,0.76,5.61l0,0c-0.79,1.03-1.98,1.57-3.19,1.57l0,0C141.57,136.887,140.71,136.617,139.99,136.067z
		 M122.68,126.747L122.68,126.747c-2.08-0.73-3.18-3.01-2.45-5.09l0,0c0.73-2.09,3.01-3.19,5.09-2.46l0,0
		c2.09,0.73,3.19,3.01,2.46,5.1l0,0c-0.58,1.65-2.12,2.68-3.78,2.68l0,0C123.56,126.977,123.12,126.907,122.68,126.747z
		 M103.33,123.227L103.33,123.227c-2.21-0.06-3.95-1.89-3.9-4.1l0,0c0.06-2.21,1.89-3.95,4.1-3.9l0,0c2.21,0.06,3.95,1.89,3.9,4.1
		l0,0c-0.06,2.17-1.84,3.9-4,3.9l0,0C103.4,123.227,103.36,123.227,103.33,123.227z"/>
	<path style="fill:none;stroke:#333333;stroke-width:8;stroke-linejoin:round;stroke-miterlimit:10;" d="M101.16,159.217
		c9.51-0.2,18.22,4.58,23.24,12.26c1.32,2.03,2.39,4.26,3.15,6.65l12.88,40.67c-4.84,2.85-10.07,4.17-15.2,4.17
		c-4.69,0-9.3-1.11-13.45-3.18c-7.35-3.64-13.25-10.29-15.62-19.07l-2.59-9.62"/>
	<path style="fill:#666666;" d="M330.85,242.987c-0.01-2.21,1.77-4.01,3.98-4.02l0,0c2.21-0.01,4.01,1.77,4.02,3.98l0,0
		c0.01,2.21-1.78,4.01-3.99,4.02l0,0l0,0l0,0h-0.01l0,0C332.65,246.967,330.86,245.187,330.85,242.987z M312.83,242.337
		c-2.02-0.89-2.94-3.25-2.04-5.27l0,0c0.89-2.02,3.25-2.94,5.28-2.04h-0.01c2.02,0.89,2.94,3.25,2.04,5.27l0,0
		c-0.66,1.5-2.12,2.39-3.66,2.39l0,0C313.9,242.687,313.35,242.577,312.83,242.337z M351.57,240.177c-0.91-2.01-0.02-4.38,1.99-5.29
		l0,0c2.02-0.91,4.39-0.02,5.3,2l0,0c0.91,2.01,0.01,4.38-2,5.29l0,0c-0.54,0.24-1.1,0.35-1.65,0.35l0,0
		C353.69,242.527,352.23,241.657,351.57,240.177z M294.16,231.777c-1.91-1.12-2.54-3.57-1.42-5.47l0,0
		c1.12-1.91,3.57-2.54,5.47-1.42l0,0c1.91,1.12,2.54,3.57,1.42,5.47l0,0c-0.74,1.27-2.08,1.97-3.45,1.97l0,0
		C295.49,232.327,294.8,232.157,294.16,231.777z M369.35,229.177c-1.64-1.47-1.78-4-0.31-5.65l0,0c1.47-1.64,4-1.78,5.65-0.31l0,0
		c1.64,1.47,1.78,4,0.31,5.65l0,0c-0.79,0.88-1.88,1.33-2.98,1.33l0,0C371.07,230.197,370.12,229.857,369.35,229.177z
		 M300.46,212.457c-2.11-0.67-3.28-2.92-2.61-5.02l0,0c0.67-2.11,2.92-3.28,5.02-2.61l0,0c2.11,0.67,3.28,2.91,2.61,5.02l0,0
		c-0.54,1.7-2.11,2.79-3.81,2.79l0,0C301.27,212.637,300.86,212.577,300.46,212.457z M306.8,192.437c-2.11-0.67-3.28-2.92-2.61-5.02
		l0,0c0.67-2.11,2.92-3.28,5.02-2.61l0,0c2.11,0.67,3.28,2.91,2.61,5.02l0,0c-0.54,1.71-2.12,2.79-3.81,2.79l0,0
		C307.61,192.617,307.2,192.557,306.8,192.437z M312.98,172.357c-2.05-0.83-3.04-3.16-2.21-5.21l0,0c0.82-2.04,3.15-3.04,5.2-2.21
		l0,0c2.05,0.82,3.04,3.15,2.22,5.2l0,0c-0.63,1.56-2.13,2.51-3.72,2.51l0,0C313.98,172.647,313.47,172.557,312.98,172.357z
		 M323.38,154.227c-1.5-1.63-1.39-4.16,0.24-5.65l0,0c0,0,0,0,0.01,0l0,0c1.62-1.5,4.15-1.38,5.65,0.24l0,0
		c1.49,1.63,1.38,4.16-0.25,5.65l0,0c-0.77,0.71-1.74,1.06-2.7,1.06l0,0C325.25,155.527,324.17,155.087,323.38,154.227z
		 M340.59,142.387c-0.64-2.12,0.56-4.35,2.68-4.99l0,0l0,0l0,0c2.11-0.64,4.34,0.56,4.98,2.67l0,0c0.64,2.12-0.56,4.35-2.67,4.99
		l0,0c-0.39,0.12-0.78,0.17-1.16,0.17l0,0C342.7,145.227,341.11,144.117,340.59,142.387z"/>
	<path style="fill:#964502;" d="M333.45,266.957c-2.21-0.03-3.97-1.85-3.94-4.06l0,0c0.04-2.21,1.86-3.97,4.07-3.94l0,0
		c2.21,0.04,3.97,1.86,3.93,4.07l0,0c-0.03,2.18-1.82,3.93-3.99,3.93l0,0C333.49,266.957,333.47,266.957,333.45,266.957z
		 M350.41,261.277c-0.62-2.12,0.59-4.34,2.71-4.96l0,0c2.12-0.62,4.34,0.6,4.96,2.72l0,0c0.63,2.12-0.59,4.34-2.71,4.96l0,0
		c-0.38,0.11-0.75,0.16-1.13,0.16l0,0C352.51,264.157,350.92,263.027,350.41,261.277z M311.64,263.287
		c-2.1-0.69-3.25-2.95-2.56-5.05l0,0c0.69-2.1,2.95-3.24,5.05-2.55l0,0c2.1,0.68,3.24,2.94,2.55,5.04l0,0
		c-0.55,1.69-2.11,2.76-3.8,2.76l0,0C312.47,263.487,312.05,263.417,311.64,263.287z M369.88,253.557
		c-1.22-1.85-0.71-4.33,1.13-5.55l0,0c1.85-1.21,4.33-0.71,5.55,1.14l0,0c1.21,1.84,0.71,4.32-1.13,5.54l0,0
		c-0.68,0.45-1.45,0.66-2.211,0.66l0,0C371.93,255.347,370.65,254.717,369.88,253.557z M292.04,253.727
		c-1.91-1.11-2.54-3.57-1.42-5.47l0,0c1.12-1.9,3.57-2.54,5.47-1.42l0,0c1.91,1.12,2.54,3.57,1.42,5.48l0,0
		c-0.74,1.26-2.08,1.97-3.45,1.97l0,0C293.37,254.287,292.67,254.107,292.04,253.727z M273.94,243.087
		c-1.91-1.13-2.54-3.58-1.42-5.48l0,0c1.12-1.9,3.57-2.54,5.48-1.42l0,0c1.9,1.12,2.53,3.57,1.41,5.48l0,0
		c-0.74,1.26-2.08,1.97-3.45,1.97l0,0C275.27,243.637,274.57,243.457,273.94,243.087z M275.3,225.657
		c-2.11-0.67-3.27-2.92-2.61-5.03l0,0c0.67-2.1,2.92-3.27,5.02-2.6l0,0c2.11,0.67,3.27,2.91,2.61,5.02l0,0
		c-0.54,1.7-2.12,2.79-3.81,2.79l0,0C276.11,225.837,275.7,225.777,275.3,225.657z M281.64,205.637c-2.11-0.67-3.28-2.92-2.61-5.03
		l0,0c0.67-2.1,2.92-3.27,5.02-2.6l0,0c2.11,0.67,3.27,2.91,2.61,5.02l0,0c-0.54,1.7-2.12,2.79-3.81,2.79l0,0
		C282.45,205.817,282.04,205.757,281.64,205.637z M287.98,185.617c-2.11-0.67-3.28-2.92-2.61-5.03l0,0c0.67-2.1,2.92-3.27,5.02-2.6
		l0,0c2.11,0.66,3.27,2.91,2.61,5.02l0,0c-0.54,1.7-2.12,2.79-3.82,2.79l0,0C288.78,185.797,288.38,185.737,287.98,185.617z
		 M294.21,165.557c-2.06-0.81-3.08-3.13-2.27-5.18l0,0c0.8-2.06,3.12-3.08,5.18-2.28l0,0c2.06,0.81,3.07,3.13,2.27,5.19l0,0
		c-0.62,1.58-2.13,2.54-3.73,2.54l0,0C295.18,165.827,294.69,165.737,294.21,165.557z M303.67,146.867
		c-1.71-1.4-1.97-3.92-0.57-5.63l0,0c1.4-1.71,3.92-1.97,5.63-0.57l0,0c1.71,1.4,1.97,3.91,0.57,5.63l0,0
		c-0.79,0.97-1.94,1.47-3.1,1.47l0,0C305.31,147.767,304.41,147.467,303.67,146.867z M318.43,131.997c-1.19-1.85-0.65-4.33,1.2-5.52
		l0,0c1.86-1.2,4.34-0.66,5.53,1.2l0,0c1.2,1.85,0.66,4.33-1.2,5.52l0,0c-0.67,0.43-1.42,0.64-2.16,0.64l0,0
		C320.49,133.837,319.2,133.187,318.43,131.997z M337.07,122.437c-0.56-2.14,0.71-4.32,2.85-4.89l0,0c2.14-0.56,4.32,0.72,4.89,2.86
		l0,0c0.56,2.13-0.72,4.32-2.86,4.88l0,0c-0.34,0.09-0.68,0.13-1.01,0.13l0,0C339.16,125.417,337.54,124.237,337.07,122.437z"/>
	<path style="fill:none;stroke:#333333;stroke-width:8;stroke-linecap:round;stroke-linejoin:round;stroke-miterlimit:10;" d="
		M253.5,300.797h-47.13c-5.4,0-9.23,5.27-7.56,10.4c2.19,6.74,6.43,12.39,11.89,16.36c5.46,3.96,12.14,6.24,19.23,6.24
		s13.77-2.28,19.23-6.24c5.46-3.97,9.7-9.62,11.89-16.36c0.27-0.83,0.4-1.66,0.4-2.47C261.45,304.507,258.02,300.797,253.5,300.797z
		"/>
	<path style="fill:none;stroke:#333333;stroke-width:8;stroke-linecap:round;stroke-linejoin:round;stroke-miterlimit:10;" d="
		M194.67,364.897c-0.13,0.01-0.27,0.01-0.4,0.01c-8.69,0-17.28-1.05-25.6-3.1c-19.93-4.86-38.32-15.39-52.76-30.68
		c-18.94-20.05-29.42-46.55-29.42-74.01c0-1.7,0.04-3.41,0.12-5.12l0.03-0.65l1.2-25.15l0.87-18.3"/>
	<path style="fill:none;stroke:#333333;stroke-width:8;stroke-linecap:round;stroke-linejoin:round;stroke-miterlimit:10;" d="
		M229.93,337.077c0,14.04-10.62,25.82-24.59,27.26c-3.56,0.37-7.11,0.56-10.65,0.56"/>
	<path style="fill:none;stroke:#333333;stroke-width:12;stroke-linejoin:round;stroke-miterlimit:10;" d="M366.3,191.097
		l-5.93-24.16c-0.63-2.56-1.18-5.13-1.66-7.72c-0.72-3.84-1.28-7.7-1.68-11.59c-0.29-2.79-0.49-5.58-0.61-8.38
		c-0.19-4.38-0.17-8.77,0.05-13.16c0.05-1.02,0.08-2.04,0.08-3.05c0-1.28-0.04-2.55-0.12-3.81c-0.59-9.37-3.33-18.2-7.76-25.98
		c-2.52-4.44-5.6-8.54-9.13-12.19c-4.49-4.63-9.71-8.55-15.5-11.56c-3.84-2.01-7.94-3.62-12.23-4.76c-3.73-1-7.61-1.65-11.61-1.92
		l-39.28-2.25c-20.64-1.18-41.34-1.18-61.98,0l-39.28,2.25c-4,0.27-7.88,0.92-11.61,1.92c-4.29,1.14-8.39,2.75-12.23,4.76
		c-5.79,3.01-11.02,6.93-15.5,11.57c-3.54,3.65-6.61,7.74-9.13,12.17c-4.43,7.78-7.17,16.62-7.76,25.99
		c-0.14,2.26-0.16,4.55-0.04,6.86c0.12,2.37,0.18,4.74,0.18,7.11c0,2.02-0.04,4.04-0.13,6.05c-0.12,2.8-0.32,5.6-0.61,8.38
		c-0.4,3.88-0.95,7.75-1.68,11.59c-0.48,2.59-1.03,5.16-1.66,7.72l-5.92,24.16l-2.14,8.7l-2.72,8.09v0.01l-20.35,60.57
		c-25,74.39,45.35,145.39,119.81,121.39"/>
	<polyline style="fill:none;stroke:#333333;stroke-width:12;stroke-linejoin:round;stroke-miterlimit:10;" points="371.15,207.887 
		368.43,199.797 366.3,191.107 	"/>
	<path style="fill:none;stroke:#333333;stroke-width:12;stroke-linejoin:round;stroke-miterlimit:10;" d="M271.69,389.857
		c74.46,24,144.81-47,119.81-121.39l-20.35-60.57"/>
	<path style="fill:none;stroke:#333333;stroke-width:12;stroke-linecap:round;stroke-linejoin:round;stroke-miterlimit:10;" d="
		M324.04,69.497l47.5-51.69c12.51-13.62,35.24-5.32,36.03,13.16l2.49,58.41c1.31,30.68-22.36,56.69-53.02,58.25h-0.01"/>
	<path style="fill:none;stroke:#333333;stroke-width:8;stroke-linejoin:round;stroke-miterlimit:10;" d="M407.57,30.967
		c0,0-19.67-24.28-58.9,62.28"/>
	<path style="fill:none;stroke:#333333;stroke-width:8;stroke-linecap:round;stroke-linejoin:round;stroke-miterlimit:10;" d="
		M358.7,159.217c-9.51-0.2-18.22,4.58-23.24,12.26c-1.32,2.03-2.39,4.26-3.15,6.65l-12.88,40.67c4.84,2.85,10.07,4.17,15.2,4.17
		c4.69,0,9.3-1.11,13.45-3.18c7.35-3.64,13.25-10.29,15.62-19.07l2.6-9.61v-0.01"/>
	<path style="fill:none;stroke:#333333;stroke-width:8;stroke-linecap:round;stroke-linejoin:round;stroke-miterlimit:10;" d="
		M265.19,364.897c0.14,0.01,0.27,0.01,0.41,0.01c8.68,0,17.27-1.05,25.59-3.09c19.93-4.87,38.32-15.39,52.76-30.69
		c18.94-20.05,29.42-46.55,29.42-74.01c0-1.7-0.04-3.41-0.12-5.12l-0.03-0.65l-1.2-25.15l-0.87-18.3v-0.01"/>
	<path style="fill:none;stroke:#333333;stroke-width:8;stroke-linecap:round;stroke-linejoin:round;stroke-miterlimit:10;" d="
		M229.93,333.797v3.28c0,14.04,10.62,25.82,24.6,27.26c3.56,0.37,7.1,0.55,10.64,0.56"/>
	<path style="fill:none;stroke:#333333;stroke-width:12;stroke-linejoin:round;stroke-miterlimit:10;" d="M291.19,361.817
		c-3.91,11.02-10.71,20.68-19.5,28.04c-11.29,9.49-25.86,15.2-41.76,15.2s-30.47-5.71-41.76-15.2c-8.79-7.36-15.59-17.02-19.5-28.04
		"/>
	<path style="fill:none;stroke:#333333;stroke-width:8;stroke-linecap:round;stroke-linejoin:round;stroke-miterlimit:10;" d="
		M265.19,364.897h-0.01h-0.01c-10.16,6.58-22.24,10.39-35.24,10.39s-25.08-3.81-35.24-10.39h-0.01h-0.01"/>
	<path style="fill:none;stroke:#333333;stroke-width:8;stroke-linecap:round;stroke-linejoin:round;stroke-miterlimit:10;" d="
		M111.78,219.787c-3.39-5.29-5.35-11.58-5.35-18.33c0-12.97,7.27-24.25,17.96-29.98"/>
	<path style="fill:none;stroke:#333333;stroke-width:8;stroke-linecap:round;stroke-linejoin:round;stroke-miterlimit:10;" d="
		M348.08,219.787c3.39-5.29,5.35-11.58,5.35-18.33c0-12.97-7.27-24.25-17.96-29.98"/>
	<path style="fill:none;stroke:#333333;stroke-width:8;stroke-linecap:round;stroke-linejoin:round;stroke-miterlimit:10;" d="
		M86.93,104.817c0-4.98-4.03-9-9-9c-4.97,0-9,4.02-9,9c0,4.97,4.03,9,9,9C82.9,113.817,86.93,109.787,86.93,104.817z"/>
	<path style="fill:none;stroke:#333333;stroke-width:8;stroke-linecap:round;stroke-linejoin:round;stroke-miterlimit:10;" d="
		M390.93,104.817c0-4.98-4.03-9-9-9s-9,4.02-9,9c0,4.97,4.03,9,9,9S390.93,109.787,390.93,104.817z"/>
	<path style="fill:none;stroke:#333333;stroke-width:8;stroke-linecap:round;stroke-linejoin:round;stroke-miterlimit:10;" d="
		M148.05,64.737c11.49,9.37,30.64,26.05,47.24,45.49c1.03-0.62,2.08-1.21,3.15-1.78c19.71-10.48,43.26-10.48,62.97,0
		c1.07,0.57,2.12,1.16,3.15,1.78c16.6-19.44,35.75-36.12,47.25-45.49"/>
	<path style="fill:none;stroke:#333333;stroke-width:8;stroke-linecap:round;stroke-linejoin:round;stroke-miterlimit:10;" d="
		M339.53,81.067c0,0-60.78,45.75-74.78,83.75c0-16.5-8.71-25.25-17.41-29.88c-10.84-5.76-23.99-5.76-34.83,0
		c-8.7,4.63-17.41,13.38-17.41,29.88c-14-38-74.78-83.75-74.78-83.75"/>
	<path style="fill:none;stroke:#333333;stroke-width:8;stroke-linecap:round;stroke-linejoin:round;stroke-miterlimit:10;" d="
		M249.92,227.957c0,25.16,20.39,45.55,45.55,45.55"/>
	<path style="fill:none;stroke:#333333;stroke-width:8;stroke-linecap:round;stroke-linejoin:round;stroke-miterlimit:10;" d="
		M209.93,227.957c0,25.16-20.39,45.55-45.55,45.55"/>
	<path style="fill:none;stroke:#333333;stroke-width:8;stroke-linecap:round;stroke-linejoin:round;stroke-miterlimit:10;" d="
		M245.93,168.817c0-8.84-7.17-16-16-16c-8.84,0-16,7.16-16,16c0,8.83,7.16,16,16,16C238.76,184.817,245.93,177.647,245.93,168.817z"
		/>
	
		<polyline style="fill:none;stroke:#333333;stroke-width:8;stroke-linecap:round;stroke-linejoin:round;stroke-miterlimit:10;" points="
		229.93,184.817 229.93,199.817 229.93,221.127 	"/>
	
		<polyline style="fill:none;stroke:#333333;stroke-width:8;stroke-linecap:round;stroke-linejoin:round;stroke-miterlimit:10;" points="
		212.93,199.817 229.93,199.817 246.93,199.817 	"/>
	<path style="fill:none;stroke:#333333;stroke-width:8;stroke-linecap:round;stroke-linejoin:round;stroke-miterlimit:10;" d="
		M150.4,354.097c0,0-17.66-19.12,5.01-50.47"/>
	<path style="fill:none;stroke:#333333;stroke-width:8;stroke-linecap:round;stroke-linejoin:round;stroke-miterlimit:10;" d="
		M309.46,354.097c0,0,17.66-19.12-5-50.47"/>
	<path style="fill:none;stroke:#333333;stroke-width:8;stroke-linejoin:round;stroke-miterlimit:10;" d="M70.09,135.517
		c-17.9,6.87-33.19,18.37-44.62,32.91c-11.43,14.54-19.01,32.11-21.47,51.12c7.57-2.9,14.67-6.64,21.21-11.08
		c24.4-16.54,41-42.94,44.89-72.92c0-0.01,0-0.02,0-0.03H70.09z"/>
	<path style="fill:none;stroke:#333333;stroke-width:8;stroke-linejoin:round;stroke-miterlimit:10;" d="M70.09,135.517
		c0,0.01,0,0.02,0.01,0.03c8.89,46.84-8.61,94.79-45.6,124.87c-2.08-10.99-2.72-22.04-2-32.91c0.43-6.43,1.34-12.78,2.71-19.03"/>
</g>
<g>
</g>
<g>
</g>
<g>
</g>
<g>
</g>
<g>
</g>
<g>
</g>
<g>
</g>
<g>
</g>
<g>
</g>
<g>
</g>
<g>
</g>
<g>
</g>
<g>
</g>
<g>
</g>
<g>
</g>
</svg>
