<?xml version="1.0" encoding="iso-8859-1"?>
<!-- Generator: Adobe Illustrator 19.1.0, SVG Export Plug-In . SVG Version: 6.00 Build 0)  -->
<svg version="1.1" id="Capa_1" xmlns="http://www.w3.org/2000/svg" xmlns:xlink="http://www.w3.org/1999/xlink" x="0px" y="0px"
	 viewBox="0 0 445.06 445.06" style="enable-background:new 0 0 445.06 445.06;" xml:space="preserve">
<g>
	<path style="fill:#F9A653;" d="M77.06,100.6c0.44-0.93,0.89-1.86,1.36-2.77l51.27,44.72l0.15-0.03l13.29,66.57
		c-3.54-4.39-7.48-8.44-11.78-12.08l1.77-2.04l-64.66-56.38C68.6,124.97,71.68,112.12,77.06,100.6z"/>
	<path style="fill:#F9A653;" d="M311.31,195.51l1.3,1.5c-3.73,3.16-7.19,6.63-10.35,10.36l12.95-64.85l0.15,0.03l51.27-44.72
		c0.47,0.9,0.91,1.81,1.34,2.73c5.39,11.53,8.48,24.39,8.62,38.03L311.31,195.51z"/>
	<path style="fill:#F9A653;" d="M285.46,405.47c-14.06,20.99-37.67,33.59-62.93,33.59c-25.27,0-48.88-12.6-62.94-33.59L147.22,387
		l0.45-0.3l15.27-22.63c21.12-31.28,32.67-68.04,33.24-105.78l3.12-207.22l0.04-0.82c7.72,0.42,15.46,0.62,23.19,0.62
		s15.46-0.2,23.18-0.61l0.04,0.81l3.12,207.22c0.57,37.74,12.12,74.5,33.24,105.78l15.27,22.63l0.45,0.3L285.46,405.47z
		 M222.53,438.94c17.34,0,33.37-7.69,42.05-20.17l0.89-1.28c3.41-4.9,5.08-10.34,5.08-15.75c0-7.14-2.91-14.23-8.61-20
		c-7.2-7.29-17.96-11.51-29.31-11.51h-20.21c-5.67,0-11.2,1.05-16.21,3.02c-5.01,1.97-9.5,4.85-13.1,8.49
		c-10.02,10.15-11.43,24.38-3.53,35.75l0.89,1.28c4.34,6.24,10.52,11.28,17.78,14.77C205.51,437.02,213.85,438.94,222.53,438.94z"/>
	<path style="fill:#D16A0D;" d="M115.38,26.16C110.66,16.44,103,9.75,94.36,6.7l-0.02-0.18C96.63,6.17,98.93,6,101.21,6
		c15.89,0,31.3,8.4,39.53,23.3l10.2,18.47c-8.56,0.91-16.79,3-24.53,6.12L115.38,26.16z"/>
	<path style="fill:#D16A0D;" d="M350.69,6.7c-8.64,3.05-16.3,9.74-21.02,19.46L318.65,53.9c-7.73-3.13-15.97-5.22-24.52-6.12v-0.01
		l10.19-18.47C312.55,14.4,327.96,6,343.85,6c2.28,0,4.58,0.17,6.86,0.52L350.69,6.7z"/>
	<path style="fill:#F9A653;" d="M383.29,72.88l-15.26,27.65l-0.06,0.03c-0.43-0.92-0.87-1.83-1.34-2.73
		c-7.91-15.57-20.1-28.54-34.92-37.44c-4.16-2.5-8.52-4.68-13.06-6.49l11.02-27.74c4.72-9.72,12.38-16.41,21.02-19.46l0.02-0.18
		c5.08,0.79,10.12,2.46,14.88,5.09C387.4,23.65,395.31,51.08,383.29,72.88z"/>
	<path style="fill:#F9A653;" d="M78.42,97.83c-0.47,0.91-0.92,1.84-1.36,2.77L61.77,72.88c-12.02-21.8-4.11-49.23,17.7-61.27
		c4.76-2.63,9.79-4.3,14.87-5.09l0.02,0.18c8.64,3.05,16.3,9.74,21.02,19.46l11.03,27.73c-4.54,1.82-8.91,4-13.07,6.5
		C98.52,69.29,86.33,82.26,78.42,97.83z"/>
	<path style="fill:#D16A0D;" d="M150.94,47.77c6.7-0.71,13.59-0.69,20.59,0.13c9.25,1.08,18.52,1.87,27.81,2.35l-0.04,0.82
		l-3.12,207.22c-0.57,37.74-12.12,74.5-33.24,105.78l-15.27,22.63l-0.45,0.3l-15.44-23.05l0.45-0.3c0.68-1.05,1.35-2.11,2-3.18
		v-0.01c11.19-18.24,18.08-38.59,20.38-59.54c0-0.01,0.01-0.01,0.01-0.02v-0.01c1.59-14.52,0.98-29.32-1.93-43.9l-9.56-47.9
		l-13.29-66.57l-16.33-81.84l-0.17-0.29c4.16-2.5,8.53-4.68,13.07-6.5C134.15,50.77,142.38,48.68,150.94,47.77z"/>
	<path style="fill:#D16A0D;" d="M318.65,53.9c4.54,1.81,8.9,3.99,13.06,6.49l-0.17,0.29l-16.33,81.84l-12.95,64.85l-9.9,49.62
		c-3.11,15.59-3.6,31.42-1.57,46.9c2.61,19.9,9.36,39.2,20.03,56.57v0.01c0.65,1.07,1.32,2.13,2,3.18l0.45,0.3L297.83,387l-0.45-0.3
		l-15.27-22.63c-21.12-31.28-32.67-68.04-33.24-105.78l-3.12-207.22l-0.04-0.81c9.29-0.49,18.56-1.28,27.81-2.36
		c3.66-0.43,7.3-0.64,10.89-0.64c3.28,0,6.52,0.17,9.72,0.52C302.68,48.68,310.92,50.77,318.65,53.9z"/>
	<path style="fill:#F9A653;" d="M376.6,232.18v27.44c0,6.38-1.89,12.62-5.45,17.93l-12.09,18.06h-0.01l-1.54-1.04
		c-12.05-4.78-20.57-16.54-20.57-30.29c0-17.99,14.59-32.58,32.58-32.58c1.91,0,3.78,0.16,5.6,0.48H376.6z"/>
	<path style="fill:#D16A0D;" d="M376.6,203.58v28.6h-1.48c-1.82-0.32-3.69-0.48-5.6-0.48c-17.99,0-32.58,14.59-32.58,32.58
		c0,13.75,8.52,25.51,20.57,30.29l1.54,1.04l-15.94,23.8l-0.75-0.5c-20.06-9.99-33.84-30.7-33.84-54.63c0-33.69,27.31-61,61-61
		c2.02,0,4.03,0.1,6,0.3H376.6z"/>
	<path style="fill:#F9A653;" d="M376.6,176.38v27.2h-1.08c-1.97-0.2-3.98-0.3-6-0.3c-33.69,0-61,27.31-61,61
		c0,23.93,13.78,44.64,33.84,54.63l0.75,0.5l-15.18,22.66l-0.75-0.5c-15.61-8.58-28.35-21.73-36.39-37.68
		c-2.03-15.48-1.54-31.31,1.57-46.9l9.9-49.62c3.16-3.73,6.62-7.2,10.35-10.36c15.36-13,35.21-20.84,56.91-20.84
		c2.02,0,4.02,0.07,6,0.21H376.6z"/>
	<path style="fill:#D16A0D;" d="M376.6,139.62v36.76h-1.08c-1.98-0.14-3.98-0.21-6-0.21c-21.7,0-41.55,7.84-56.91,20.84l-1.3-1.5
		l65.28-56.92C376.6,138.93,376.6,139.28,376.6,139.62z"/>
	<path style="fill:#D16A0D;" d="M366.63,97.83l-51.27,44.72l-0.15-0.03l16.33-81.84l0.17-0.29
		C346.53,69.29,358.72,82.26,366.63,97.83z"/>
	<path style="fill:#D16A0D;" d="M327.93,342.07l-14.66,21.88l-0.45-0.3c-0.68-1.05-1.35-2.11-2-3.18v-0.01
		c-10.67-17.37-17.42-36.67-20.03-56.57c8.04,15.95,20.78,29.1,36.39,37.68L327.93,342.07z"/>
	<path style="fill:#333333;" d="M270.55,401.74c0,5.41-1.67,10.85-5.08,15.75l-0.89,1.28c-8.68,12.48-24.71,20.17-42.05,20.17
		c-8.68,0-17.02-1.92-24.28-5.4c-7.26-3.49-13.44-8.53-17.78-14.77l-0.89-1.28c-7.9-11.37-6.49-25.6,3.53-35.75
		c3.6-3.64,8.09-6.52,13.1-8.49c5.01-1.97,10.54-3.02,16.21-3.02h20.21c11.35,0,22.11,4.22,29.31,11.51
		C267.64,387.51,270.55,394.6,270.55,401.74z"/>
	<path style="fill:#F9A653;" d="M152.69,256.99c2.91,14.58,3.52,29.38,1.93,43.9c0,0.01,0,0.02-0.01,0.03
		c-7.92,17.28-21.25,31.54-37.82,40.65l-15.18-22.66c20.06-9.99,33.84-30.7,33.84-54.63c0-33.69-27.31-61-61-61
		c-2.02,0-4.03,0.1-6,0.3v-27.2c1.98-0.14,3.98-0.21,6-0.21c21.7,0,41.55,7.84,56.9,20.84c4.3,3.64,8.24,7.69,11.78,12.08
		L152.69,256.99z"/>
	<path style="fill:#D16A0D;" d="M116.79,341.57c16.57-9.11,29.9-23.37,37.82-40.65c-2.3,20.95-9.19,41.3-20.38,59.54v0.01
		c-0.65,1.07-1.32,2.13-2,3.18l-0.45,0.3L116.79,341.57z"/>
	<path style="fill:#D16A0D;" d="M133.12,194.97l-1.77,2.04c-15.35-13-35.2-20.84-56.9-20.84c-2.02,0-4.02,0.07-6,0.21v-36.76
		c0-0.34,0-0.69,0.01-1.03L133.12,194.97z"/>
	<path style="fill:#D16A0D;" d="M113.51,60.68l16.33,81.84l-0.15,0.03L78.42,97.83c7.91-15.57,20.1-28.54,34.92-37.44L113.51,60.68z
		"/>
	<path style="fill:#D16A0D;" d="M135.45,264.28c0,23.93-13.78,44.64-33.84,54.63l-15.95-23.8l0.8-0.54
		c12.05-4.78,20.57-16.54,20.57-30.29c0-17.99-14.59-32.58-32.58-32.58c-1.91,0-3.78,0.16-5.6,0.48h-0.4v-28.6
		c1.97-0.2,3.98-0.3,6-0.3C108.14,203.28,135.45,230.59,135.45,264.28z"/>
	<path style="fill:#F9A653;" d="M107.03,264.28c0,13.75-8.52,25.51-20.57,30.29l-0.8,0.54L73.9,277.55
		c-3.56-5.31-5.45-11.55-5.45-17.93v-27.44h0.4c1.82-0.32,3.69-0.48,5.6-0.48C92.44,231.7,107.03,246.29,107.03,264.28z"/>
	<path style="fill:none;stroke:#333333;stroke-width:8;stroke-linejoin:round;stroke-miterlimit:10;" d="M180.47,418.77l-0.89-1.28
		c-7.9-11.37-6.49-25.6,3.53-35.75c3.6-3.64,8.09-6.52,13.1-8.49c5.01-1.97,10.54-3.02,16.21-3.02h20.21
		c11.35,0,22.11,4.22,29.31,11.51c5.7,5.77,8.61,12.86,8.61,20c0,5.41-1.67,10.85-5.08,15.75l-0.89,1.28
		c-8.68,12.48-24.71,20.17-42.05,20.17c-8.68,0-17.02-1.92-24.28-5.4C190.99,430.05,184.81,425.01,180.47,418.77z"/>
	<path style="fill:none;stroke:#333333;stroke-width:12;stroke-linejoin:round;stroke-miterlimit:10;" d="M297.83,387l-12.37,18.47
		c-14.06,20.99-37.67,33.59-62.93,33.59c-25.27,0-48.88-12.6-62.94-33.59L147.22,387l-15.44-23.05l-14.99-22.38l-15.18-22.66
		l-15.95-23.8L73.9,277.55c-3.56-5.31-5.45-11.55-5.45-17.93v-27.44v-28.6v-27.2v-36.76c0-0.34,0-0.69,0.01-1.03
		c0.14-13.62,3.22-26.47,8.6-37.99c0.44-0.93,0.89-1.86,1.36-2.77c7.91-15.57,20.1-28.54,34.92-37.44c4.16-2.5,8.53-4.68,13.07-6.5
		c7.74-3.12,15.97-5.21,24.53-6.12c6.7-0.71,13.59-0.69,20.59,0.13c9.25,1.08,18.52,1.87,27.81,2.35
		c7.72,0.42,15.46,0.62,23.19,0.62s15.46-0.2,23.18-0.61c9.29-0.49,18.56-1.28,27.81-2.36c3.66-0.43,7.3-0.64,10.89-0.64
		c3.28,0,6.52,0.17,9.72,0.52c8.55,0.9,16.79,2.99,24.52,6.12c4.54,1.81,8.9,3.99,13.06,6.49c14.82,8.9,27.01,21.87,34.92,37.44
		c0.47,0.9,0.91,1.81,1.34,2.73c5.39,11.53,8.48,24.39,8.62,38.03c0.01,0.34,0.01,0.69,0.01,1.03v36.76v27.2v28.6v27.44
		c0,6.38-1.89,12.62-5.45,17.93l-12.09,18.06h-0.01l-15.94,23.8l-15.18,22.66l-14.66,21.88L297.83,387z"/>
	<path style="fill:none;stroke:#333333;stroke-width:12;stroke-linejoin:round;stroke-miterlimit:10;" d="M294.13,47.77l10.19-18.47
		C312.55,14.4,327.96,6,343.85,6c2.28,0,4.58,0.17,6.86,0.52c5.08,0.79,10.12,2.46,14.88,5.09c21.81,12.04,29.72,39.47,17.7,61.27
		l-15.26,27.65"/>
	<path style="fill:none;stroke:#333333;stroke-width:12;stroke-linejoin:round;stroke-miterlimit:10;" d="M77.11,100.68l-0.05-0.08
		L61.77,72.88c-12.02-21.8-4.11-49.23,17.7-61.27c4.76-2.63,9.79-4.3,14.87-5.09C96.63,6.17,98.93,6,101.21,6
		c15.89,0,31.3,8.4,39.53,23.3l10.2,18.47v0.01"/>
	<path style="fill:none;stroke:#333333;stroke-width:8;stroke-linejoin:round;stroke-miterlimit:10;" d="M94.36,6.7
		c8.64,3.05,16.3,9.74,21.02,19.46l11.03,27.73l0.08,0.21"/>
	<path style="fill:none;stroke:#333333;stroke-width:8;stroke-linejoin:round;stroke-miterlimit:10;" d="M318.57,54.1l0.08-0.2
		l11.02-27.74c4.72-9.72,12.38-16.41,21.02-19.46"/>
	<path style="fill:none;stroke:#333333;stroke-width:8;stroke-linecap:round;stroke-linejoin:round;stroke-miterlimit:10;" d="
		M134.23,360.46c11.19-18.24,18.08-38.59,20.38-59.54c0.01-0.01,0.01-0.02,0.01-0.03c1.59-14.52,0.98-29.32-1.93-43.9l-9.56-47.9
		l-13.29-66.57l-16.33-81.84"/>
	<path style="fill:none;stroke:#000000;stroke-width:8;stroke-linecap:round;stroke-linejoin:round;stroke-miterlimit:10;" d="
		M132.23,363.65c0.68-1.05,1.35-2.11,2-3.18"/>
	<path style="fill:none;stroke:#333333;stroke-width:8;stroke-linecap:round;stroke-linejoin:round;stroke-miterlimit:10;" d="
		M199.3,51.07l-3.12,207.22c-0.57,37.74-12.12,74.5-33.24,105.78l-15.27,22.63"/>
	<path style="fill:none;stroke:#333333;stroke-width:8;stroke-linecap:round;stroke-linejoin:round;stroke-miterlimit:10;" d="
		M310.82,360.46c-10.67-17.37-17.42-36.67-20.03-56.57c-2.03-15.48-1.54-31.31,1.57-46.9l9.9-49.62l12.95-64.85l16.33-81.84"/>
	<path style="fill:none;stroke:#000000;stroke-width:8;stroke-linecap:round;stroke-linejoin:round;stroke-miterlimit:10;" d="
		M312.82,363.65c-0.68-1.05-1.35-2.11-2-3.18"/>
	<path style="fill:none;stroke:#333333;stroke-width:8;stroke-linecap:round;stroke-linejoin:round;stroke-miterlimit:10;" d="
		M245.75,51.07l3.12,207.22c0.57,37.74,12.12,74.5,33.24,105.78l15.27,22.63"/>
	
		<line style="fill:none;stroke:#333333;stroke-width:22;stroke-linecap:round;stroke-linejoin:round;stroke-miterlimit:10;" x1="267.36" y1="270.21" x2="258.59" y2="274.23"/>
	
		<line style="fill:none;stroke:#333333;stroke-width:22;stroke-linecap:round;stroke-linejoin:round;stroke-miterlimit:10;" x1="177.69" y1="270.21" x2="186.46" y2="274.23"/>
	<path style="fill:none;stroke:#333333;stroke-width:8;stroke-linejoin:round;stroke-miterlimit:10;" d="M86.46,294.57
		c12.05-4.78,20.57-16.54,20.57-30.29c0-17.99-14.59-32.58-32.58-32.58c-1.91,0-3.78,0.16-5.6,0.48"/>
	<path style="fill:none;stroke:#333333;stroke-width:8;stroke-linejoin:round;stroke-miterlimit:10;" d="M101.61,318.91
		c20.06-9.99,33.84-30.7,33.84-54.63c0-33.69-27.31-61-61-61c-2.02,0-4.03,0.1-6,0.3"/>
	<path style="fill:none;stroke:#333333;stroke-width:8;stroke-linejoin:round;stroke-miterlimit:10;" d="M68.45,176.38
		c1.98-0.14,3.98-0.21,6-0.21c21.7,0,41.55,7.84,56.9,20.84c4.3,3.64,8.24,7.69,11.78,12.08"/>
	<path style="fill:none;stroke:#333333;stroke-width:8;stroke-linejoin:round;stroke-miterlimit:10;" d="M154.62,300.89v0.01
		c0,0.01-0.01,0.01-0.01,0.02c-7.92,17.28-21.25,31.54-37.82,40.65"/>
	<path style="fill:none;stroke:#333333;stroke-width:8;stroke-linejoin:round;stroke-miterlimit:10;" d="M375.12,232.18
		c-1.82-0.32-3.69-0.48-5.6-0.48c-17.99,0-32.58,14.59-32.58,32.58c0,13.75,8.52,25.51,20.57,30.29"/>
	<path style="fill:none;stroke:#333333;stroke-width:8;stroke-linejoin:round;stroke-miterlimit:10;" d="M375.52,203.58
		c-1.97-0.2-3.98-0.3-6-0.3c-33.69,0-61,27.31-61,61c0,23.93,13.78,44.64,33.84,54.63"/>
	<path style="fill:none;stroke:#333333;stroke-width:8;stroke-linejoin:round;stroke-miterlimit:10;" d="M300.84,209.09
		c0.47-0.58,0.94-1.15,1.42-1.72c3.16-3.73,6.62-7.2,10.35-10.36c15.36-13,35.21-20.84,56.91-20.84c2.02,0,4.02,0.07,6,0.21"/>
	<path style="fill:none;stroke:#333333;stroke-width:8;stroke-linejoin:round;stroke-miterlimit:10;" d="M327.18,341.57
		c-15.61-8.58-28.35-21.73-36.39-37.68c-0.5-0.99-0.98-1.98-1.44-2.99v-0.01"/>
	
		<line style="fill:none;stroke:#000000;stroke-width:8;stroke-linecap:round;stroke-linejoin:round;stroke-miterlimit:10;" x1="134.23" y1="360.47" x2="134.23" y2="360.46"/>
	
		<line style="fill:none;stroke:#000000;stroke-width:8;stroke-linecap:round;stroke-linejoin:round;stroke-miterlimit:10;" x1="310.82" y1="360.47" x2="310.82" y2="360.46"/>
	<polyline style="fill:none;stroke:#333333;stroke-width:8;stroke-linejoin:round;stroke-miterlimit:10;" points="366.72,97.75 
		366.63,97.83 315.36,142.55 	"/>
	<polyline style="fill:none;stroke:#333333;stroke-width:8;stroke-linejoin:round;stroke-miterlimit:10;" points="376.72,138.47 
		376.59,138.59 311.31,195.51 308.02,198.38 	"/>
	<polyline style="fill:none;stroke:#333333;stroke-width:8;stroke-linejoin:round;stroke-miterlimit:10;" points="129.69,142.55 
		78.42,97.83 78.33,97.75 	"/>
	<polyline style="fill:none;stroke:#333333;stroke-width:8;stroke-linejoin:round;stroke-miterlimit:10;" points="137.03,198.38 
		133.12,194.97 68.46,138.59 68.33,138.47 	"/>
	<path style="fill:none;stroke:#333333;stroke-width:8;stroke-linejoin:round;stroke-miterlimit:10;" d="M150.961,320.978
		c9.43,4.44,19.34,8.03,29.63,10.67"/>
	<path style="fill:none;stroke:#333333;stroke-width:8;stroke-linejoin:round;stroke-miterlimit:10;" d="M264.461,331.648
		c10.29-2.64,20.2-6.23,29.63-10.67"/>
	<path style="fill:none;stroke:#333333;stroke-width:8;stroke-linejoin:round;stroke-miterlimit:10;" d="M171.611,349.948
		c-9.32-2.61-18.34-5.92-27.01-9.87"/>
	<path style="fill:none;stroke:#333333;stroke-width:8;stroke-linejoin:round;stroke-miterlimit:10;" d="M300.451,340.078
		c-8.68,3.95-17.7,7.26-27.01,9.87"/>
	<path style="fill:none;stroke:#333333;stroke-width:8;stroke-linejoin:round;stroke-miterlimit:10;" d="M257.531,312.778
		c11.54-2.78,22.56-6.91,32.87-12.21"/>
	<path style="fill:none;stroke:#333333;stroke-width:8;stroke-linejoin:round;stroke-miterlimit:10;" d="M154.651,300.568
		c10.32,5.3,21.33,9.43,32.87,12.22"/>
	<path style="fill:none;stroke:#333333;stroke-width:8;stroke-linejoin:round;stroke-miterlimit:10;" d="M147.431,230.658
		c14.09-11.83,30.99-20.4,49.54-24.54"/>
	<path style="fill:none;stroke:#333333;stroke-width:8;stroke-linejoin:round;stroke-miterlimit:10;" d="M248.081,206.118
		c18.55,4.14,35.46,12.71,49.54,24.54"/>
	<path style="fill:none;stroke:#333333;stroke-width:8;stroke-linejoin:round;stroke-miterlimit:10;" d="M143.061,208.758
		c15.89-11.35,34.3-19.4,54.21-23.12"/>
	<path style="fill:none;stroke:#333333;stroke-width:8;stroke-linejoin:round;stroke-miterlimit:10;" d="M247.781,185.638
		c19.91,3.72,38.32,11.77,54.21,23.12"/>
	<path style="fill:none;stroke:#333333;stroke-width:8;stroke-linejoin:round;stroke-miterlimit:10;" d="M138.831,187.518
		c17.55-11.1,37.44-18.82,58.75-22.24"/>
	<path style="fill:none;stroke:#333333;stroke-width:8;stroke-linejoin:round;stroke-miterlimit:10;" d="M247.471,165.278
		c21.31,3.42,41.2,11.14,58.75,22.24"/>
	<path style="fill:none;stroke:#333333;stroke-width:8;stroke-linejoin:round;stroke-miterlimit:10;" d="M134.671,166.678
		c19.13-10.98,40.49-18.49,63.22-21.67"/>
	<path style="fill:none;stroke:#333333;stroke-width:8;stroke-linejoin:round;stroke-miterlimit:10;" d="M247.161,145.008
		c22.73,3.18,44.1,10.69,63.22,21.68"/>
	<path style="fill:none;stroke:#333333;stroke-width:8;stroke-linejoin:round;stroke-miterlimit:10;" d="M130.561,146.108
		c20.65-10.94,43.47-18.32,67.63-21.31"/>
	<path style="fill:none;stroke:#333333;stroke-width:8;stroke-linejoin:round;stroke-miterlimit:10;" d="M246.861,124.798
		c24.16,2.99,46.98,10.37,67.63,21.31"/>
	<path style="fill:none;stroke:#333333;stroke-width:8;stroke-linejoin:round;stroke-miterlimit:10;" d="M126.471,125.598
		c22.46-11.11,46.76-18.23,72.02-20.99"/>
	<path style="fill:none;stroke:#333333;stroke-width:8;stroke-linejoin:round;stroke-miterlimit:10;" d="M246.561,104.608
		c25.26,2.76,49.57,9.88,72.02,20.99"/>
	<path style="fill:none;stroke:#333333;stroke-width:8;stroke-linejoin:round;stroke-miterlimit:10;" d="M122.441,105.438
		c2.57-1.2,5.17-2.35,7.8-3.46c21.99-9.31,44.97-15.17,68.56-17.51"/>
	<path style="fill:none;stroke:#333333;stroke-width:8;stroke-linejoin:round;stroke-miterlimit:10;" d="M246.251,84.468
		c23.59,2.34,46.57,8.2,68.56,17.51c2.63,1.11,5.23,2.26,7.8,3.46"/>
	<path style="fill:none;stroke:#333333;stroke-width:8;stroke-linejoin:round;stroke-miterlimit:10;" d="M118.421,85.298
		c1.33-0.59,2.67-1.17,4.02-1.74c24.57-10.39,50.27-16.82,76.66-19.2"/>
	<path style="fill:none;stroke:#333333;stroke-width:8;stroke-linejoin:round;stroke-miterlimit:10;" d="M245.951,64.358
		c26.39,2.38,52.09,8.81,76.65,19.2c1.35,0.57,2.69,1.15,4.02,1.75"/>
	<path style="fill:none;stroke:#333333;stroke-width:8;stroke-linejoin:round;stroke-miterlimit:10;" d="M152.031,253.678
		c11.97-12.67,27.33-22.12,44.62-26.89"/>
	<path style="fill:none;stroke:#333333;stroke-width:8;stroke-linejoin:round;stroke-miterlimit:10;" d="M248.401,226.798
		c17.29,4.77,32.65,14.21,44.62,26.88"/>
	<g>
		<path style="fill:#964502;" d="M222.53,326.23c-1.32,0-2.61-0.54-3.54-1.47c-0.93-0.93-1.46-2.22-1.46-3.53
			c0-1.32,0.53-2.61,1.46-3.54c0.93-0.93,2.22-1.46,3.54-1.46c1.309,0,2.6,0.53,3.53,1.46c0.93,0.93,1.46,2.22,1.46,3.54
			c0,1.32-0.53,2.6-1.46,3.53C225.13,325.69,223.839,326.23,222.53,326.23z"/>
		<path style="fill:#964502;" d="M217.52,300.48c0-2.76,2.239-5,5-5l0,0c2.77,0,5.01,2.24,5.01,5l0,0c0,2.76-2.24,5-5.01,5l0,0
			C219.759,305.48,217.52,303.24,217.52,300.48z M217.52,279.73c0-2.76,2.239-5,5-5l0,0c2.77,0,5.01,2.24,5.01,5l0,0
			c0,2.76-2.24,5-5.01,5l0,0C219.759,284.73,217.52,282.49,217.52,279.73z M217.52,258.98c0-2.76,2.239-5,5-5l0,0
			c2.77,0,5.01,2.24,5.01,5l0,0c0,2.76-2.24,5-5.01,5l0,0C219.759,263.98,217.52,261.74,217.52,258.98z M217.52,238.23
			c0-2.76,2.239-5,5-5l0,0c2.77,0,5.01,2.24,5.01,5l0,0c0,2.76-2.24,5-5.01,5l0,0C219.759,243.23,217.52,240.99,217.52,238.23z
			 M217.52,217.48c0-2.76,2.239-5,5-5l0,0c2.77,0,5.01,2.24,5.01,5l0,0c0,2.76-2.24,5-5.01,5l0,0
			C219.759,222.48,217.52,220.24,217.52,217.48z M217.52,196.73c0-2.76,2.239-5,5-5l0,0c2.77,0,5.01,2.24,5.01,5l0,0
			c0,2.76-2.24,5-5.01,5l0,0C219.759,201.73,217.52,199.49,217.52,196.73z M217.52,175.98c0-2.76,2.239-5,5-5l0,0
			c2.77,0,5.01,2.24,5.01,5l0,0c0,2.76-2.24,5-5.01,5l0,0C219.759,180.98,217.52,178.74,217.52,175.98z M217.52,155.23
			c0-2.76,2.239-5,5-5l0,0c2.77,0,5.01,2.24,5.01,5l0,0c0,2.76-2.24,5-5.01,5l0,0C219.759,160.23,217.52,157.99,217.52,155.23z
			 M217.52,134.48c0-2.76,2.239-5,5-5l0,0c2.77,0,5.01,2.24,5.01,5l0,0c0,2.76-2.24,5-5.01,5l0,0
			C219.759,139.48,217.52,137.24,217.52,134.48z M217.52,113.73c0-2.76,2.239-5,5-5l0,0c2.77,0,5.01,2.24,5.01,5l0,0
			c0,2.76-2.24,5-5.01,5l0,0C219.759,118.73,217.52,116.49,217.52,113.73z M217.52,92.98c0-2.76,2.239-5,5-5l0,0
			c2.77,0,5.01,2.24,5.01,5l0,0c0,2.76-2.24,5-5.01,5l0,0C219.759,97.98,217.52,95.74,217.52,92.98z"/>
		<path style="fill:#964502;" d="M222.53,77.23c-1.32,0-2.61-0.54-3.54-1.47c-0.93-0.93-1.46-2.22-1.46-3.53
			c0-1.32,0.53-2.61,1.46-3.54c0.93-0.93,2.22-1.46,3.54-1.46c1.309,0,2.6,0.53,3.53,1.46c0.93,0.93,1.46,2.22,1.46,3.54
			c0,1.32-0.53,2.61-1.46,3.53C225.13,76.69,223.839,77.23,222.53,77.23z"/>
	</g>
	<path style="fill:#964502;" d="M324.06,159.96c-1.81-2.08-1.6-5.24,0.489-7.06l0,0c2.08-1.81,5.24-1.6,7.051,0.48l0,0
		c1.819,2.09,1.6,5.24-0.48,7.06l0,0c-0.95,0.83-2.12,1.23-3.29,1.23l0,0C326.44,161.67,325.049,161.09,324.06,159.96z
		 M339.89,146.16c-1.81-2.09-1.601-5.25,0.479-7.06l0,0c2.09-1.81,5.24-1.6,7.061,0.48l0,0c1.81,2.08,1.6,5.24-0.48,7.06l0,0
		c-0.95,0.82-2.12,1.23-3.29,1.23l0,0C342.27,147.87,340.879,147.29,339.89,146.16z M355.72,132.35
		c-1.811-2.08-1.601-5.24,0.479-7.05l0,0c2.08-1.82,5.24-1.6,7.06,0.48l0,0c1.81,2.08,1.601,5.24-0.489,7.06l0,0
		c-0.94,0.82-2.11,1.23-3.28,1.23l0,0C358.1,134.07,356.71,133.49,355.72,132.35z"/>
	<path style="fill:#964502;" d="M119.32,165.14c-2.08-1.82-2.3-4.98-0.48-7.06l0,0c1.811-2.08,4.971-2.29,7.051-0.48l0,0
		c2.08,1.82,2.3,4.97,0.479,7.06l0,0c-0.99,1.13-2.37,1.71-3.77,1.71l0,0C121.44,166.37,120.27,165.96,119.32,165.14z
		 M103.49,151.34c-2.08-1.82-2.3-4.98-0.48-7.06l0,0c1.811-2.08,4.971-2.3,7.051-0.48l0,0c2.08,1.81,2.3,4.97,0.479,7.05l0,0
		c-0.979,1.14-2.37,1.72-3.769,1.72l0,0C105.61,152.57,104.44,152.16,103.49,151.34z M87.66,137.53c-2.08-1.81-2.29-4.97-0.479-7.05
		l0,0c1.819-2.08,4.97-2.3,7.06-0.48l0,0c2.08,1.81,2.29,4.97,0.48,7.05l0,0c-0.99,1.14-2.381,1.72-3.771,1.72l0,0
		C89.78,138.77,88.61,138.36,87.66,137.53z"/>
	<g>
		<path style="fill:#964502;" d="M189.29,359.99c-1.309,0-2.6-0.53-3.53-1.46c-0.93-0.93-1.47-2.22-1.47-3.54
			c0-1.31,0.54-2.6,1.47-3.53c0.931-0.93,2.211-1.47,3.53-1.47c1.32,0,2.61,0.54,3.54,1.47c0.93,0.93,1.46,2.22,1.46,3.53
			c0,1.32-0.53,2.61-1.46,3.54C191.89,359.46,190.61,359.99,189.29,359.99z"/>
		<path style="fill:#964502;" d="M199.91,346.71c-1.05-2.56,0.16-5.48,2.71-6.54l0,0c2.55-1.05,5.48,0.16,6.53,2.71l0,0
			c1.06,2.56-0.15,5.48-2.7,6.54l0,0c-0.63,0.25-1.28,0.38-1.91,0.38l0,0C202.57,349.8,200.71,348.63,199.91,346.71z
			 M238.589,349.41L238.589,349.41c-2.55-1.06-3.77-3.98-2.71-6.53l0,0c1.051-2.56,3.98-3.77,6.53-2.71l0,0
			c2.55,1.05,3.77,3.97,2.71,6.53l0,0c-0.8,1.93-2.66,3.09-4.62,3.09l0,0C239.86,349.79,239.22,349.67,238.589,349.41z
			 M222.52,346.23c-2.761,0-5-2.24-5-5l0,0c-0.011-2.76,2.23-5,4.989-5l0,0c2.761,0,5,2.23,5.011,4.99l0,0
			C227.52,343.99,225.28,346.23,222.52,346.23L222.52,346.23z M222.509,336.23L222.509,336.23L222.509,336.23L222.509,336.23
			L222.509,336.23L222.509,336.23z"/>
		<path style="fill:#964502;" d="M255.759,359.99c-1.319,0-2.609-0.53-3.539-1.46c-0.931-0.93-1.461-2.22-1.461-3.54
			c0-1.31,0.53-2.6,1.461-3.53c0.93-0.93,2.22-1.47,3.539-1.47c1.32,0,2.601,0.54,3.53,1.47c0.931,0.93,1.47,2.22,1.47,3.53
			c0,1.32-0.539,2.61-1.47,3.54C258.36,359.46,257.08,359.99,255.759,359.99z"/>
	</g>
</g>
<g>
</g>
<g>
</g>
<g>
</g>
<g>
</g>
<g>
</g>
<g>
</g>
<g>
</g>
<g>
</g>
<g>
</g>
<g>
</g>
<g>
</g>
<g>
</g>
<g>
</g>
<g>
</g>
<g>
</g>
</svg>
