<?xml version="1.0" encoding="iso-8859-1"?>
<!-- Generator: Adobe Illustrator 19.1.0, SVG Export Plug-In . SVG Version: 6.00 Build 0)  -->
<svg version="1.1" id="Capa_1" xmlns="http://www.w3.org/2000/svg" xmlns:xlink="http://www.w3.org/1999/xlink" x="0px" y="0px"
	 viewBox="0 0 445.735 445.735" style="enable-background:new 0 0 445.735 445.735;" xml:space="preserve">
<g>
	<path style="fill:#F9CD16;" d="M422.988,72.255c0,18.57-11.37,48.98-27.54,62.7l-2.1,0.12c-2.98-7.57-6.52-14.97-10.62-22.15
		l0.01-0.01c8.6-10.14,15.65-29.71,15.65-40.66c0-10.94-8.91-19.84-19.86-19.84c-7.73,0-14.82,4.54-18.07,11.58l-3.55,7.25h-0.01
		c-5.57-6.68-11.89-12.55-18.79-17.54c7.04-15.29,22.49-25.9,40.42-25.9C403.078,27.805,422.988,47.705,422.988,72.255z"/>
	<path style="fill:#D16A0D;" d="M400.938,159.775c3.86,17.07,5.05,34.6,3.57,51.95c-23.09,78.48-95.68,135.78-181.64,135.78
		c-85.98,0-158.58-57.33-181.65-135.84c-1.47-17.34-0.27-34.86,3.59-51.93c18.28,50.54,57.45,91.07,107.07,111.16
		c5.68,11.85,17.78,20.03,31.8,20.03c1.54,0,3.06-0.11,4.55-0.3c3.02,16.39,17.38,28.8,34.64,28.8s31.61-12.41,34.64-28.8
		c1.49,0.19,3,0.3,4.55,0.3c14.02,0,26.12-8.18,31.79-20.03h0.01C343.467,250.815,382.658,210.295,400.938,159.775z"/>
	<path style="fill:#F9A653;" d="M404.508,211.725c-0.38,4.5-0.94,8.98-1.68,13.44c-1.52,11.89-14,104.34-39.09,145.11
		c1.65-34.65-12.65-42.87-13.13-43.13c-8.22,9.57-46.29,80.8-74.12,106.89c4.98-18.27,2.21-45.61,2.16-46.16
		c-8.76,5.26-17.82,16.54-27.12,27.35c-9.31,10.8-18.87,21.13-28.66,24.51v-35.71c9.88,0,17.9-8.02,17.9-17.9
		c0-9.89-8.02-17.9-17.9-17.9v-20.72C308.828,347.505,381.418,290.205,404.508,211.725z M255.868,360.815c0-1.71-0.69-3.39-1.91-4.6
		c-1.21-1.21-2.88-1.9-4.59-1.9c-1.71,0-3.39,0.69-4.6,1.9c-1.21,1.21-1.9,2.88-1.9,4.6c0,1.71,0.69,3.38,1.9,4.59
		c1.21,1.21,2.89,1.9,4.6,1.9c1.71,0,3.38-0.69,4.59-1.9C255.178,364.195,255.868,362.525,255.868,360.815z"/>
	<path style="fill:#F9CD16;" d="M363.148,186.955c5.66-6.23,10.9-12.85,15.69-19.8c6.1-8.85,11.46-18.23,16.01-28.08h0.01
		c2.47,6.8,4.5,13.71,6.08,20.7c-18.28,50.52-57.47,91.04-107.08,111.12c2.2-4.6,3.43-9.76,3.43-15.2c0-7.15-2.13-13.81-5.8-19.36
		h0.01c9.82-3.82,19.24-8.44,28.18-13.77c7.38-4.41,14.44-9.3,21.12-14.62C348.808,201.555,356.278,194.535,363.148,186.955z"/>
	<path style="fill:#F9A653;" d="M291.488,236.335c3.67,5.55,5.8,12.21,5.8,19.36c0,5.44-1.23,10.6-3.43,15.2h-0.01
		c-5.67,11.85-17.77,20.03-31.79,20.03c-1.55,0-3.06-0.11-4.55-0.3l-34.64-18.16c5.17,0,10.06-1.63,14.08-4.48
		c4.02-2.85,7.18-6.93,8.89-11.8l3.07-8.77c2.03-5.79-2.27-11.86-8.41-11.86h-17.63v-44.81l39.22-67.94h0.01
		c36.61-7.73,69.34-26.02,94.8-51.55v-0.01h0.01c3.77,4.52,7.2,9.41,10.22,14.65l15.19,26.31c0.14,0.24,0.28,0.48,0.41,0.72
		c4.1,7.18,7.64,14.58,10.62,22.15c0.52,1.33,1.02,2.66,1.51,4h-0.01c-4.55,9.85-9.91,19.23-16.01,28.08
		c-7.15-6.21-16.49-9.97-26.7-9.97c-22.51,0-40.75,18.24-40.75,40.75c0,9.25,3.09,17.8,8.29,24.63
		c-8.94,5.33-18.36,9.95-28.18,13.77H291.488z M358.868,100.805c0-1.71-0.69-3.38-1.9-4.59c-1.21-1.21-2.89-1.9-4.6-1.9
		c-1.71,0-3.39,0.69-4.59,1.9c-1.21,1.21-1.91,2.88-1.91,4.59c0,1.72,0.7,3.39,1.91,4.6c1.21,1.21,2.88,1.91,4.59,1.91
		c1.71,0,3.39-0.7,4.6-1.91C358.178,104.195,358.868,102.525,358.868,100.805z M335.868,116.815c0-1.71-0.69-3.39-1.9-4.6
		c-1.21-1.21-2.89-1.9-4.6-1.9c-1.71,0-3.39,0.69-4.59,1.9c-1.21,1.21-1.91,2.89-1.91,4.6s0.7,3.38,1.91,4.59
		c1.2,1.21,2.88,1.91,4.59,1.91c1.71,0,3.39-0.7,4.6-1.91C335.178,120.195,335.868,118.525,335.868,116.815z M311.868,129.815
		c0-1.72-0.69-3.39-1.9-4.6c-1.21-1.21-2.89-1.9-4.6-1.9c-1.71,0-3.39,0.69-4.59,1.9c-1.21,1.21-1.91,2.88-1.91,4.6
		c0,1.71,0.7,3.38,1.91,4.59c1.2,1.21,2.88,1.91,4.59,1.91c1.71,0,3.39-0.7,4.6-1.91
		C311.178,133.195,311.868,131.525,311.868,129.815z"/>
	<path style="fill:#EA5F2F;" d="M398.388,72.255c0,10.95-7.05,30.52-15.65,40.66l-0.01,0.01c-0.13-0.24-0.27-0.48-0.41-0.72
		l-15.19-26.31c-3.02-5.24-6.45-10.13-10.22-14.65l3.55-7.25c3.25-7.04,10.34-11.58,18.07-11.58
		C389.478,52.415,398.388,61.315,398.388,72.255z"/>
	<path style="fill:#EA5F2F;" d="M352.138,157.185c10.21,0,19.55,3.76,26.7,9.97c-4.79,6.95-10.03,13.57-15.69,19.8
		c-2.81-3.14-6.89-5.13-11.45-5.13c-8.47,0-15.33,6.87-15.33,15.33c0,4.21,1.7,8.02,4.43,10.79c-6.68,5.32-13.74,10.21-21.12,14.62
		c-5.2-6.83-8.29-15.38-8.29-24.63C311.388,175.425,329.628,157.185,352.138,157.185z"/>
	<path style="fill:#5484EF;" d="M351.698,181.825c4.56,0,8.64,1.99,11.45,5.13c-6.87,7.58-14.34,14.6-22.35,20.99
		c-2.73-2.77-4.43-6.58-4.43-10.79C336.368,188.695,343.228,181.825,351.698,181.825z"/>
	<path style="fill:#EA5F2F;" d="M356.967,96.215c1.21,1.21,1.9,2.88,1.9,4.59c0,1.72-0.69,3.39-1.9,4.6
		c-1.21,1.21-2.89,1.91-4.6,1.91c-1.71,0-3.38-0.7-4.59-1.91c-1.21-1.21-1.91-2.88-1.91-4.6c0-1.71,0.7-3.38,1.91-4.59
		c1.2-1.21,2.88-1.9,4.59-1.9C354.078,94.315,355.758,95.005,356.967,96.215z"/>
	<path style="fill:#D16A0D;" d="M338.108,53.705c6.9,4.99,13.22,10.86,18.79,17.54v0.01c-25.46,25.53-58.19,43.82-94.8,51.55h-0.01
		l15.9-27.54h-29.1v-72.31l-1.44-0.51c13.01-9.06,30.73-17.71,49.73-16.29c-7.82,7.53-12.32,18.54-14.88,27.92
		C302.468,35.075,321.868,41.955,338.108,53.705z"/>
	<path style="fill:#EA5F2F;" d="M333.967,112.215c1.21,1.21,1.9,2.89,1.9,4.6s-0.69,3.38-1.9,4.59c-1.21,1.21-2.89,1.91-4.6,1.91
		c-1.71,0-3.39-0.7-4.59-1.91c-1.21-1.21-1.91-2.88-1.91-4.59s0.7-3.39,1.91-4.6c1.2-1.21,2.88-1.9,4.59-1.9
		C331.078,110.315,332.758,111.005,333.967,112.215z"/>
	<path style="fill:#EA5F2F;" d="M309.968,125.215c1.21,1.21,1.9,2.88,1.9,4.6c0,1.71-0.69,3.38-1.9,4.59
		c-1.21,1.21-2.89,1.91-4.6,1.91c-1.71,0-3.39-0.7-4.59-1.91c-1.21-1.21-1.91-2.88-1.91-4.59c0-1.72,0.7-3.39,1.91-4.6
		c1.2-1.21,2.88-1.9,4.59-1.9C307.078,123.315,308.758,124.005,309.968,125.215z"/>
	<path style="fill:#EA5F2F;" d="M277.988,95.265l-15.9,27.54l-39.22,67.94l-39.22-67.94l-15.9-27.54h29.11v-72.31l0.41-1.21
		c9.89,6.74,17.21,13.83,20.51,17.26c1.32,1.37,3.15,2.14,5.06,2.14c0.02,0,0.04,0,0.06,0c1.91,0,3.73-0.77,5.06-2.14
		c3.19-3.31,10.12-10.04,19.49-16.56l1.44,0.51v72.31H277.988z M237.438,118.845c0-8.04-6.52-14.57-14.57-14.57
		c-8.04,0-14.57,6.53-14.57,14.57c0,8.05,6.53,14.57,14.57,14.57C230.918,133.415,237.438,126.895,237.438,118.845z M229.368,64.805
		c0-1.71-0.69-3.38-1.9-4.59c-1.21-1.21-2.89-1.9-4.6-1.9c-1.71,0-3.38,0.69-4.59,1.9c-1.21,1.21-1.91,2.88-1.91,4.59
		c0,1.72,0.7,3.39,1.91,4.6c1.2,1.21,2.88,1.91,4.59,1.91c1.71,0,3.39-0.7,4.6-1.91C228.678,68.195,229.368,66.525,229.368,64.805z
		 M229.368,87.345c0-1.71-0.69-3.39-1.9-4.59c-1.21-1.21-2.89-1.91-4.6-1.91c-1.71,0-3.38,0.7-4.59,1.9
		c-1.21,1.21-1.91,2.89-1.91,4.6s0.7,3.39,1.91,4.6c1.2,1.21,2.88,1.9,4.59,1.9c1.71,0,3.39-0.69,4.6-1.9
		C228.678,90.735,229.368,89.055,229.368,87.345z M229.368,150.345c0-1.71-0.69-3.39-1.9-4.6c-1.21-1.2-2.89-1.9-4.6-1.9
		c-1.71,0-3.38,0.7-4.59,1.9c-1.21,1.21-1.91,2.89-1.91,4.6c0,1.72,0.7,3.39,1.91,4.6c1.21,1.21,2.88,1.9,4.59,1.9
		c1.71,0,3.39-0.69,4.6-1.9C228.678,153.735,229.368,152.055,229.368,150.345z"/>
	<path style="fill:#F9A653;" d="M222.868,272.465l34.64,18.16c-3.03,16.39-17.38,28.8-34.64,28.8s-31.62-12.41-34.64-28.8
		L222.868,272.465z"/>
	<path style="fill:#EA5F2F;" d="M253.958,356.215c1.22,1.21,1.91,2.89,1.91,4.6s-0.69,3.38-1.91,4.59c-1.21,1.21-2.88,1.9-4.59,1.9
		c-1.71,0-3.39-0.69-4.6-1.9c-1.21-1.21-1.9-2.88-1.9-4.59c0-1.72,0.69-3.39,1.9-4.6c1.21-1.21,2.89-1.9,4.6-1.9
		C251.078,354.315,252.748,355.005,253.958,356.215z"/>
	<path style="fill:#964502;" d="M240.498,235.555c6.14,0,10.44,6.07,8.41,11.86l-3.07,8.77c-1.71,4.87-4.87,8.95-8.89,11.8
		c-4.02,2.85-8.91,4.48-14.08,4.48c-10.34,0-19.55-6.53-22.97-16.28l-3.08-8.77c-2.03-5.79,2.27-11.86,8.41-11.86h17.64H240.498z"/>
	<path style="fill:#5484EF;" d="M222.868,104.275c8.05,0,14.57,6.53,14.57,14.57c0,8.05-6.52,14.57-14.57,14.57
		c-8.04,0-14.57-6.52-14.57-14.57C208.298,110.805,214.828,104.275,222.868,104.275z"/>
	<path style="fill:#F9CD16;" d="M227.468,60.215c1.21,1.21,1.9,2.88,1.9,4.59c0,1.72-0.69,3.39-1.9,4.6
		c-1.21,1.21-2.89,1.91-4.6,1.91c-1.71,0-3.39-0.7-4.59-1.91c-1.21-1.21-1.91-2.88-1.91-4.6c0-1.71,0.7-3.38,1.91-4.59
		c1.21-1.21,2.88-1.9,4.59-1.9C224.578,58.315,226.258,59.005,227.468,60.215z"/>
	<path style="fill:#F9CD16;" d="M227.468,82.755c1.21,1.2,1.9,2.88,1.9,4.59s-0.69,3.39-1.9,4.6c-1.21,1.21-2.89,1.9-4.6,1.9
		c-1.71,0-3.39-0.69-4.59-1.9c-1.21-1.21-1.91-2.89-1.91-4.6s0.7-3.39,1.91-4.6c1.21-1.2,2.88-1.9,4.59-1.9
		C224.578,80.845,226.258,81.545,227.468,82.755z"/>
	<path style="fill:#F9CD16;" d="M227.468,145.745c1.21,1.21,1.9,2.89,1.9,4.6c0,1.71-0.69,3.39-1.9,4.6c-1.21,1.21-2.89,1.9-4.6,1.9
		c-1.71,0-3.38-0.69-4.59-1.9c-1.21-1.21-1.91-2.88-1.91-4.6c0-1.71,0.7-3.39,1.91-4.6c1.21-1.2,2.88-1.9,4.59-1.9
		C224.578,143.845,226.258,144.545,227.468,145.745z"/>
	<path style="fill:#F9A653;" d="M222.868,404.025v35.71c-19.58-6.75-38.26-41.33-55.78-51.86c-0.06,0.55-2.83,27.89,2.16,46.16
		c-27.83-26.09-65.91-97.32-74.13-106.89c-0.47,0.26-14.77,8.48-13.12,43.13c-25.1-40.77-37.57-133.22-39.1-145.11
		c-0.74-4.48-1.31-8.98-1.68-13.5c23.07,78.51,95.67,135.84,181.65,135.84v20.72c-9.89,0-17.9,8.01-17.9,17.9
		C204.968,396.005,212.978,404.025,222.868,404.025z M202.868,360.805c0-1.71-0.7-3.38-1.91-4.59c-1.2-1.21-2.88-1.9-4.59-1.9
		c-1.71,0-3.39,0.69-4.6,1.9c-1.21,1.21-1.9,2.88-1.9,4.59c0,1.72,0.69,3.39,1.9,4.6s2.89,1.91,4.6,1.91c1.71,0,3.38-0.7,4.59-1.91
		C202.168,364.195,202.868,362.525,202.868,360.805z"/>
	<path style="fill:#F9CD16;" d="M222.868,368.225c-9.89,0-17.9,8.01-17.9,17.9c0,9.88,8.01,17.9,17.9,17.9
		c9.88,0,17.9-8.02,17.9-17.9C240.768,376.235,232.748,368.225,222.868,368.225z"/>
	<path style="fill:#F9A653;" d="M154.248,236.335h-0.01c-9.82-3.82-19.24-8.44-28.18-13.77c5.21-6.83,8.29-15.38,8.29-24.63
		c0-22.51-18.24-40.75-40.75-40.75c-10.22,0-19.56,3.76-26.71,9.97c-6.1-8.84-11.47-18.23-16.01-28.07v-0.01
		c0.48-1.34,0.99-2.67,1.51-4c2.97-7.57,6.51-14.98,10.62-22.16c0.13-0.24,0.26-0.47,0.4-0.71l15.19-26.31
		c3.03-5.24,6.45-10.13,10.24-14.66l0.01,0.02c25.46,25.52,58.18,43.82,94.79,51.55h0.01l39.22,67.94v44.81h-17.64
		c-6.14,0-10.44,6.07-8.41,11.86l3.08,8.77c3.42,9.75,12.63,16.28,22.97,16.28l-34.64,18.16c-1.49,0.19-3.01,0.3-4.55,0.3
		c-14.02,0-26.12-8.18-31.8-20.03c-2.2-4.6-3.43-9.76-3.43-15.2C148.448,248.545,150.578,241.885,154.248,236.335z M146.868,129.805
		c0-1.71-0.69-3.38-1.9-4.59c-1.21-1.21-2.89-1.91-4.6-1.91c-1.71,0-3.38,0.7-4.6,1.91c-1.21,1.21-1.9,2.88-1.9,4.59
		c0,1.72,0.69,3.39,1.9,4.6c1.22,1.21,2.89,1.91,4.6,1.91c1.71,0,3.39-0.7,4.6-1.91
		C146.178,133.195,146.868,131.525,146.868,129.805z M122.868,116.815c0-1.72-0.69-3.39-1.9-4.6s-2.89-1.9-4.6-1.9
		c-1.71,0-3.38,0.69-4.59,1.9s-1.91,2.88-1.91,4.6c0,1.71,0.7,3.38,1.91,4.59c1.21,1.21,2.88,1.91,4.59,1.91
		c1.71,0,3.39-0.7,4.6-1.91C122.178,120.195,122.868,118.525,122.868,116.815z M99.868,100.815c0-1.72-0.69-3.39-1.9-4.6
		s-2.89-1.9-4.6-1.9c-1.71,0-3.38,0.69-4.59,1.9s-1.91,2.88-1.91,4.6c0,1.71,0.7,3.38,1.91,4.59c1.2,1.21,2.88,1.9,4.59,1.9
		c1.71,0,3.39-0.69,4.6-1.9C99.178,104.195,99.868,102.525,99.868,100.815z"/>
	<path style="fill:#EA5F2F;" d="M200.958,356.215c1.21,1.21,1.91,2.88,1.91,4.59c0,1.72-0.7,3.39-1.91,4.6
		c-1.21,1.21-2.88,1.91-4.59,1.91c-1.71,0-3.39-0.7-4.6-1.91s-1.9-2.88-1.9-4.6c0-1.71,0.69-3.38,1.9-4.59
		c1.21-1.21,2.89-1.9,4.6-1.9C198.078,354.315,199.758,355.005,200.958,356.215z"/>
	<path style="fill:#D16A0D;" d="M197.268,21.745l-0.41,1.21v72.31h-29.11l15.9,27.54h-0.01c-36.61-7.73-69.33-26.03-94.79-51.55
		l-0.01-0.02c5.56-6.68,11.89-12.55,18.79-17.54c16.24-11.75,35.64-18.62,55.8-19.62c-2.56-9.38-7.05-20.39-14.88-27.92
		C167.058,4.765,184.358,12.945,197.268,21.745z"/>
	<path style="fill:#F9CD16;" d="M154.238,236.335h0.01c-3.67,5.55-5.8,12.21-5.8,19.36c0,5.44,1.23,10.6,3.43,15.2
		c-49.62-20.09-88.79-60.62-107.07-111.16c1.57-6.98,3.6-13.87,6.07-20.65c4.54,9.84,9.91,19.23,16.01,28.07
		c4.78,6.95,10.03,13.57,15.69,19.8c6.87,7.58,14.35,14.6,22.36,20.99c6.68,5.32,13.74,10.21,21.12,14.62
		C134.998,227.895,144.418,232.515,154.238,236.335z"/>
	<path style="fill:#EA5F2F;" d="M144.968,125.215c1.21,1.21,1.9,2.88,1.9,4.59c0,1.72-0.69,3.39-1.9,4.6
		c-1.21,1.21-2.89,1.91-4.6,1.91c-1.71,0-3.38-0.7-4.6-1.91c-1.21-1.21-1.9-2.88-1.9-4.6c0-1.71,0.69-3.38,1.9-4.59
		c1.22-1.21,2.89-1.91,4.6-1.91C142.078,123.305,143.758,124.005,144.968,125.215z"/>
	<path style="fill:#EA5F2F;" d="M134.348,197.935c0,9.25-3.08,17.8-8.29,24.63c-7.38-4.41-14.44-9.3-21.12-14.62
		c2.73-2.77,4.43-6.58,4.43-10.79c0-8.46-6.87-15.33-15.34-15.33c-4.55,0-8.63,1.98-11.45,5.13c-5.66-6.23-10.91-12.85-15.69-19.8
		c7.15-6.21,16.49-9.97,26.71-9.97C116.108,157.185,134.348,175.425,134.348,197.935z"/>
	<path style="fill:#EA5F2F;" d="M120.968,112.215c1.21,1.21,1.9,2.88,1.9,4.6c0,1.71-0.69,3.38-1.9,4.59
		c-1.21,1.21-2.89,1.91-4.6,1.91c-1.71,0-3.38-0.7-4.59-1.91c-1.21-1.21-1.91-2.88-1.91-4.59c0-1.72,0.7-3.39,1.91-4.6
		s2.88-1.9,4.59-1.9C118.078,110.315,119.758,111.005,120.968,112.215z"/>
	<path style="fill:#5484EF;" d="M109.368,197.155c0,4.21-1.7,8.02-4.43,10.79c-8.01-6.39-15.49-13.41-22.36-20.99
		c2.82-3.15,6.9-5.13,11.45-5.13C102.498,181.825,109.368,188.695,109.368,197.155z"/>
	<path style="fill:#EA5F2F;" d="M97.968,96.215c1.21,1.21,1.9,2.88,1.9,4.6c0,1.71-0.69,3.38-1.9,4.59c-1.21,1.21-2.89,1.9-4.6,1.9
		c-1.71,0-3.39-0.69-4.59-1.9c-1.21-1.21-1.91-2.88-1.91-4.59c0-1.72,0.7-3.39,1.91-4.6s2.88-1.9,4.59-1.9
		C95.078,94.315,96.758,95.005,97.968,96.215z"/>
	<path style="fill:#F9CD16;" d="M67.208,27.805c17.93,0,33.38,10.61,40.42,25.89c-6.9,4.99-13.23,10.86-18.79,17.54l-3.56-7.24
		c-3.25-7.04-10.34-11.58-18.07-11.58c-10.95,0-19.85,8.9-19.85,19.84c0,10.95,7.04,30.52,15.65,40.66
		c-4.11,7.18-7.65,14.59-10.62,22.16l-2.11-0.13c-16.16-13.74-27.53-44.12-27.53-62.69C22.748,47.705,42.658,27.805,67.208,27.805z"
		/>
	<path style="fill:#EA5F2F;" d="M85.278,63.995l3.56,7.24c-3.79,4.53-7.21,9.42-10.24,14.66l-15.19,26.31
		c-0.14,0.24-0.27,0.47-0.4,0.71c-8.61-10.14-15.65-29.71-15.65-40.66c0-10.94,8.9-19.84,19.85-19.84
		C74.938,52.415,82.028,56.955,85.278,63.995z"/>
	<path style="fill:none;stroke:#333333;stroke-width:12;stroke-linejoin:round;stroke-miterlimit:10;" d="M50.278,134.945
		c-16.16-13.74-27.53-44.12-27.53-62.69c0-24.55,19.91-44.45,44.46-44.45c17.93,0,33.38,10.61,40.42,25.89"/>
	<path style="fill:none;stroke:#333333;stroke-width:8;stroke-linejoin:round;stroke-miterlimit:10;" d="M63.008,112.915
		c-8.61-10.14-15.65-29.71-15.65-40.66c0-10.94,8.9-19.84,19.85-19.84c7.73,0,14.82,4.54,18.07,11.58l3.56,7.24l0.01,0.02"/>
	<path style="fill:none;stroke:#333333;stroke-width:8;stroke-linejoin:round;stroke-miterlimit:10;" d="M356.908,71.245l3.55-7.25
		c3.25-7.04,10.34-11.58,18.07-11.58c10.95,0,19.86,8.9,19.86,19.84c0,10.95-7.05,30.52-15.65,40.66"/>
	
		<line style="fill:none;stroke:#000000;stroke-width:10;stroke-linejoin:round;stroke-miterlimit:10;" x1="356.898" y1="71.255" x2="356.898" y2="71.245"/>
	<path style="fill:none;stroke:#333333;stroke-width:12;stroke-linejoin:round;stroke-miterlimit:10;" d="M395.448,134.955
		c16.17-13.72,27.54-44.13,27.54-62.7c0-24.55-19.91-44.45-44.46-44.45c-17.93,0-33.38,10.61-40.42,25.9v0.01"/>
	<path style="fill:none;stroke:#333333;stroke-width:8;stroke-linecap:round;stroke-linejoin:round;stroke-miterlimit:10;" d="
		M222.868,272.465c5.17,0,10.06-1.63,14.08-4.48c4.02-2.85,7.18-6.93,8.89-11.8l3.07-8.77c2.03-5.79-2.27-11.86-8.41-11.86h-17.63
		h-17.64c-6.14,0-10.44,6.07-8.41,11.86l3.08,8.77C203.318,265.935,212.528,272.465,222.868,272.465z"/>
	<path style="fill:none;stroke:#333333;stroke-width:8;stroke-linecap:round;stroke-linejoin:round;stroke-miterlimit:10;" d="
		M273.208,164.385c-8.09,0-13.96,7.83-11.54,15.55c0.72,2.31,1.5,4.59,2.32,6.86c2.06,5.7,4.43,11.27,7.1,16.71
		c5.3,10.88,11.75,21.23,19.1,30.97c0.46,0.6,0.89,1.22,1.3,1.86c3.67,5.55,5.8,12.21,5.8,19.36c0,5.44-1.23,10.6-3.43,15.2"/>
	<path style="fill:none;stroke:#333333;stroke-width:8;stroke-linecap:round;stroke-linejoin:round;stroke-miterlimit:10;" d="
		M293.848,270.895c-5.67,11.85-17.77,20.03-31.79,20.03c-1.55,0-3.06-0.11-4.55-0.3c-3.03,16.39-17.38,28.8-34.64,28.8
		s-31.62-12.41-34.64-28.8c-1.49,0.19-3.01,0.3-4.55,0.3c-14.02,0-26.12-8.18-31.8-20.03c-2.2-4.6-3.43-9.76-3.43-15.2
		c0-7.15,2.13-13.81,5.8-19.36c0.41-0.64,0.84-1.26,1.3-1.86c7.35-9.74,13.8-20.09,19.1-30.97c2.67-5.44,5.04-11.01,7.1-16.71
		c0.82-2.27,1.6-4.55,2.32-6.86c2.42-7.72-3.45-15.55-11.54-15.55"/>
	<polyline style="fill:none;stroke:#333333;stroke-width:8;stroke-linejoin:round;stroke-miterlimit:10;" points="248.888,22.955 
		248.888,95.265 277.988,95.265 262.088,122.805 222.868,190.745 183.648,122.805 167.748,95.265 196.858,95.265 196.858,22.955 	
		"/>
	<path style="fill:none;stroke:#333333;stroke-width:8;stroke-linejoin:round;stroke-miterlimit:10;" d="M41.218,211.665
		c23.07,78.51,95.67,135.84,181.65,135.84c85.96,0,158.55-57.3,181.64-135.78c0.01-0.02,0.01-0.05,0.02-0.07"/>
	<path style="fill:none;stroke:#333333;stroke-width:8;stroke-linejoin:round;stroke-miterlimit:10;" d="M262.098,122.805
		c36.61-7.73,69.34-26.02,94.8-51.55"/>
	<path style="fill:none;stroke:#333333;stroke-width:8;stroke-linejoin:round;stroke-miterlimit:10;" d="M88.848,71.255
		c25.46,25.52,58.18,43.82,94.79,51.55"/>
	<path style="fill:none;stroke:#333333;stroke-width:8;stroke-linejoin:round;stroke-miterlimit:10;" d="M291.498,236.335
		c9.82-3.82,19.24-8.44,28.18-13.77c7.38-4.41,14.44-9.3,21.12-14.62c8.01-6.39,15.48-13.41,22.35-20.99
		c5.66-6.23,10.9-12.85,15.69-19.8c6.1-8.85,11.46-18.23,16.01-28.08"/>
	<path style="fill:none;stroke:#333333;stroke-width:8;stroke-linejoin:round;stroke-miterlimit:10;" d="M50.878,139.085
		c4.54,9.84,9.91,19.23,16.01,28.07c4.78,6.95,10.03,13.57,15.69,19.8c6.87,7.58,14.35,14.6,22.36,20.99
		c6.68,5.32,13.74,10.21,21.12,14.62c8.94,5.33,18.36,9.95,28.18,13.77"/>
	<path style="fill:none;stroke:#333333;stroke-width:8;stroke-linejoin:round;stroke-miterlimit:10;" d="M293.848,270.895h0.01
		c49.61-20.08,88.8-60.6,107.08-111.12v-0.01"/>
	<path style="fill:none;stroke:#333333;stroke-width:8;stroke-linejoin:round;stroke-miterlimit:10;" d="M44.808,159.735
		c18.28,50.54,57.45,91.07,107.07,111.16"/>
	
		<polyline style="fill:none;stroke:#333333;stroke-width:8;stroke-linecap:round;stroke-linejoin:round;stroke-miterlimit:10;" points="
		188.228,290.625 222.868,272.465 257.508,290.625 	"/>
	<path style="fill:#333333;" d="M292.458,190.715l-15.24,10.93c-1.77,1.26-3.8,1.87-5.82,1.87c-0.1,0-0.21,0-0.31-0.01
		c-2.67-5.44-5.04-11.01-7.1-16.71c0.45-0.52,0.98-0.99,1.57-1.41l15.24-10.93c4.49-3.21,10.74-2.19,13.96,2.3
		C297.968,181.245,296.948,187.495,292.458,190.715z"/>
	<path style="fill:#333333;" d="M181.748,186.795c-2.06,5.7-4.43,11.27-7.1,16.71c-0.1,0.01-0.21,0.01-0.31,0.01
		c-2.02,0-4.05-0.61-5.82-1.87l-15.24-10.93c-4.49-3.22-5.51-9.47-2.3-13.96c3.22-4.49,9.47-5.51,13.96-2.3l15.24,10.93
		C180.768,185.805,181.298,186.275,181.748,186.795z"/>
	<path style="fill:none;stroke:#333333;stroke-width:8;stroke-linecap:round;stroke-linejoin:round;stroke-miterlimit:10;" d="
		M237.438,118.845c0-8.04-6.52-14.57-14.57-14.57c-8.04,0-14.57,6.53-14.57,14.57c0,8.05,6.53,14.57,14.57,14.57
		C230.918,133.415,237.438,126.895,237.438,118.845z"/>
	<path style="fill:none;stroke:#333333;stroke-width:8;stroke-linecap:round;stroke-linejoin:round;stroke-miterlimit:10;" d="
		M126.058,222.565c5.21-6.83,8.29-15.38,8.29-24.63c0-22.51-18.24-40.75-40.75-40.75c-10.22,0-19.56,3.76-26.71,9.97"/>
	<path style="fill:none;stroke:#333333;stroke-width:8;stroke-linecap:round;stroke-linejoin:round;stroke-miterlimit:10;" d="
		M319.678,222.565c-5.2-6.83-8.29-15.38-8.29-24.63c0-22.51,18.24-40.75,40.75-40.75c10.21,0,19.55,3.76,26.7,9.97"/>
	
		<line style="fill:none;stroke:#333333;stroke-width:8;stroke-linecap:round;stroke-linejoin:round;stroke-miterlimit:10;" x1="222.868" y1="368.225" x2="222.868" y2="347.505"/>
	
		<line style="fill:none;stroke:#333333;stroke-width:8;stroke-linecap:round;stroke-linejoin:round;stroke-miterlimit:10;" x1="222.868" y1="439.735" x2="222.868" y2="404.025"/>
	<path style="fill:none;stroke:#333333;stroke-width:12;stroke-linecap:round;stroke-linejoin:round;stroke-miterlimit:10;" d="
		M382.728,112.925c-0.13-0.24-0.27-0.48-0.41-0.72l-15.19-26.31c-3.02-5.24-6.45-10.13-10.22-14.65h-0.01
		c-5.57-6.68-11.89-12.55-18.79-17.54c-16.24-11.75-35.64-18.63-55.81-19.63c2.56-9.38,7.06-20.39,14.88-27.92
		c-19-1.42-36.72,7.23-49.73,16.29c-9.37,6.52-16.3,13.25-19.49,16.56c-1.33,1.37-3.15,2.14-5.06,2.14c-0.02,0-0.04,0-0.06,0
		c-1.91,0-3.74-0.77-5.06-2.14c-3.3-3.43-10.62-10.52-20.51-17.26c-12.91-8.8-30.21-16.98-48.72-15.59
		c7.83,7.53,12.32,18.54,14.88,27.92c-20.16,1-39.56,7.87-55.8,19.62c-6.9,4.99-13.23,10.86-18.79,17.54
		c-3.79,4.53-7.21,9.42-10.24,14.66l-15.19,26.31c-0.14,0.24-0.27,0.47-0.4,0.71c-4.11,7.18-7.65,14.59-10.62,22.16
		c-0.52,1.33-1.03,2.66-1.51,4v0.01c-2.47,6.78-4.5,13.67-6.07,20.65c-3.86,17.07-5.06,34.59-3.59,51.93
		c0.37,4.52,0.94,9.02,1.68,13.5c1.53,11.89,14,104.34,39.1,145.11c-1.65-34.65,12.65-42.87,13.12-43.13
		c8.22,9.57,46.3,80.8,74.13,106.89c-4.99-18.27-2.22-45.61-2.16-46.16c17.52,10.53,36.2,45.11,55.78,51.86
		c9.79-3.38,19.35-13.71,28.66-24.51c9.3-10.81,18.36-22.09,27.12-27.35c0.05,0.55,2.82,27.89-2.16,46.16
		c27.83-26.09,65.9-97.32,74.12-106.89c0.48,0.26,14.78,8.48,13.13,43.13c25.09-40.77,37.57-133.22,39.09-145.11
		c0.74-4.46,1.3-8.94,1.68-13.44c1.48-17.35,0.29-34.88-3.57-51.95c-1.58-6.99-3.61-13.9-6.08-20.7c-0.49-1.34-0.99-2.67-1.51-4
		C390.368,127.505,386.828,120.105,382.728,112.925z"/>
	<path style="fill:none;stroke:#333333;stroke-width:8;stroke-linejoin:round;stroke-miterlimit:10;" d="M222.868,404.025
		c9.88,0,17.9-8.02,17.9-17.9c0-9.89-8.02-17.9-17.9-17.9c-9.89,0-17.9,8.01-17.9,17.9
		C204.968,396.005,212.978,404.025,222.868,404.025z"/>
	<path style="fill:none;stroke:#333333;stroke-width:8;stroke-linecap:round;stroke-linejoin:round;stroke-miterlimit:10;" d="
		M104.938,207.945c2.73-2.77,4.43-6.58,4.43-10.79c0-8.46-6.87-15.33-15.34-15.33c-4.55,0-8.63,1.98-11.45,5.13"/>
	<path style="fill:none;stroke:#333333;stroke-width:8;stroke-linecap:round;stroke-linejoin:round;stroke-miterlimit:10;" d="
		M340.798,207.945c-2.73-2.77-4.43-6.58-4.43-10.79c0-8.46,6.86-15.33,15.33-15.33c4.56,0,8.64,1.99,11.45,5.13l0.01,0.01"/>
	
		<line style="fill:none;stroke:#333333;stroke-width:8;stroke-linejoin:round;stroke-miterlimit:10;" x1="222.868" y1="190.745" x2="222.868" y2="235.555"/>
</g>
<g>
</g>
<g>
</g>
<g>
</g>
<g>
</g>
<g>
</g>
<g>
</g>
<g>
</g>
<g>
</g>
<g>
</g>
<g>
</g>
<g>
</g>
<g>
</g>
<g>
</g>
<g>
</g>
<g>
</g>
</svg>
