<?xml version="1.0" encoding="iso-8859-1"?>
<!-- Generator: Adobe Illustrator 19.1.0, SVG Export Plug-In . SVG Version: 6.00 Build 0)  -->
<svg version="1.1" id="Capa_1" xmlns="http://www.w3.org/2000/svg" xmlns:xlink="http://www.w3.org/1999/xlink" x="0px" y="0px"
	 viewBox="0 0 467.65 467.65" style="enable-background:new 0 0 467.65 467.65;" xml:space="preserve">
<g>
	<path style="fill:#964502;" d="M397.42,219.535l-8.64,19.97l-39.29,3.63c-11.06,1.02-21.44,5.75-29.47,13.41l-11.74,11.21
		c-1.19-2.68-2.77-5.21-4.72-7.51l-3.37-3.97l0.34-0.29l19.49-18.61c8.03-7.67,18.41-12.4,29.47-13.42L397.42,219.535z"/>
	<path style="fill:#F9A653;" d="M388.78,239.505l-8.49,19.64c-8.67,20.05-30.19,31.29-51.6,26.95l-17.16-3.48l-0.59-0.03
		c0.05-0.67,0.07-1.35,0.07-2.02c0-4.41-0.93-8.78-2.73-12.81l11.74-11.21c8.03-7.66,18.41-12.39,29.47-13.41L388.78,239.505z"/>
	<path style="fill:#EA5F2F;" d="M367.72,337.105c0,5.27-0.62,10.58-1.88,15.83c-3.91-3.51-7.35-7.41-10.29-11.61
		c-10.96-15.68-14.92-35.52-10.33-54.59C359.72,299.725,367.72,318.125,367.72,337.105z"/>
	<path style="fill:#52CE7F;" d="M355.55,341.325c-0.61,4.1-1.53,8.16-2.76,12.15c-2.07,6.76-5.02,13.31-8.82,19.48
		c-15.46-26.78-14.98-59.89,1.25-86.22C340.63,305.805,344.59,325.645,355.55,341.325z"/>
	<path style="fill:#D16A0D;" d="M311.01,280.565c0,0.67-0.02,1.35-0.07,2.02c-0.16,2.54-0.63,5.07-1.42,7.55l-27.48,3.4h-0.01
		l-11.44,1.42c-7.39,0.92-13.08,6.98-13.52,14.42l-0.13,2.17c-7.19,2.7-14.98,4.18-23.11,4.18c-8.13,0-15.92-1.48-23.11-4.18h-0.01
		l-0.13-2.17c-0.43-7.44-6.12-13.5-13.51-14.42l-11.44-1.42h-0.01l-27.48-3.4c-0.79-2.47-1.26-4.99-1.42-7.52
		c-0.35-5.24,0.63-10.49,2.84-15.25c1.17-2.53,2.69-4.93,4.54-7.12l3.61-4.26l8.49-10.01c4.01-4.74,9.21-8,14.86-9.65
		c-0.36,2.22-0.54,4.5-0.54,6.82c0,23.92,19.39,43.31,43.31,43.31s43.31-19.39,43.31-43.31c0-2.32-0.18-4.6-0.54-6.82
		c5.64,1.65,10.84,4.91,14.86,9.65l8.73,10.3l3.37,3.97c1.95,2.3,3.53,4.83,4.72,7.51C310.08,271.785,311.01,276.155,311.01,280.565
		z M294.83,272.535c0-1.58-0.64-3.12-1.76-4.24c-1.11-1.12-2.66-1.76-4.24-1.76c-1.58,0-3.13,0.64-4.24,1.76
		c-1.12,1.12-1.76,2.66-1.76,4.24c0,1.58,0.64,3.12,1.76,4.24c1.11,1.12,2.66,1.76,4.24,1.76c1.58,0,3.12-0.64,4.24-1.76
		C294.19,275.655,294.83,274.115,294.83,272.535z M240.05,299.535c0-1.58-0.64-3.12-1.75-4.24c-1.12-1.12-2.67-1.76-4.24-1.76
		c-1.58,0-3.13,0.64-4.25,1.76c-1.11,1.12-1.75,2.66-1.75,4.24c0,1.58,0.64,3.13,1.75,4.24c1.12,1.12,2.67,1.76,4.25,1.76
		c1.57,0,3.12-0.64,4.24-1.76C239.41,302.665,240.05,301.115,240.05,299.535z M184.83,272.535c0-1.58-0.64-3.13-1.76-4.24
		c-1.11-1.12-2.66-1.76-4.24-1.76c-1.58,0-3.13,0.64-4.24,1.76c-1.12,1.12-1.76,2.66-1.76,4.24c0,1.58,0.64,3.13,1.76,4.24
		c1.11,1.12,2.66,1.76,4.24,1.76c1.58,0,3.13-0.64,4.24-1.76C184.19,275.665,184.83,274.115,184.83,272.535z"/>
	<path style="fill:#F9A653;" d="M308.91,307.105c1.68,6.95,2.34,14.05,1.99,21.1l-0.01,0.01c-5.62,16-20.85,27.48-38.77,27.48
		c-4.4,0-8.63-0.69-12.6-1.97c-2.9-6.62-4.24-13.83-3.81-21.09l0.08-1.41c4.21,4.13,9.97,6.68,16.33,6.68
		c12.86,0,23.29-10.43,23.29-23.29c0-9.32-5.47-17.35-13.37-21.08l27.48-3.4c-1,3.11-1.5,6.34-1.5,9.57
		C308.02,302.185,308.32,304.675,308.91,307.105z"/>
	<path style="fill:#D16A0D;" d="M310.89,328.215c-0.44,8.94-2.52,17.79-6.18,26.09c-0.03,0.07-0.06,0.13-0.09,0.2l-3.15,7.08
		c-2.17,4.89-4.99,9.43-8.37,13.52c-3.28,3.97-7.09,7.5-11.33,10.5c-0.12,0.09-0.24,0.18-0.37,0.27c-3.18,2.21-6.12,4.73-8.79,7.51
		c0-13.31-5.88-26.47-10.88-35.26c-0.82-1.43-1.55-2.9-2.21-4.4c3.97,1.28,8.2,1.97,12.6,1.97
		C290.04,355.695,305.27,344.215,310.89,328.215z"/>
	<path style="fill:#F9A653;" d="M304.71,354.305l0.47,0.2c0,0-6.35,41.11,11.65,61.11c-11.45-1.76-19.58-7.74-25.08-13.88
		c-7.01-7.8-9.79-15.86-9.79-15.86l-0.19-0.27c4.24-3,8.05-6.53,11.33-10.5c3.38-4.09,6.2-8.63,8.37-13.52l3.15-7.08
		C304.65,354.435,304.68,354.375,304.71,354.305z"/>
	<path style="fill:#F9CD16;" d="M293.81,89.195l-29.99,29.23l7.08,41.28l-37.07-19.49l-37.07,19.49l7.08-41.28l-30-29.23l41.45-6.03
		l18.54-37.55l18.53,37.55L293.81,89.195z M247.7,113.195l13.88-13.53l-19.18-2.79l-8.57-17.37l-8.58,17.37l-19.17,2.79l13.87,13.53
		l-3.27,19.09l17.15-9.01l17.15,9.01L247.7,113.195z"/>
	<path style="fill:#F9CD16;" d="M293.07,268.295c1.12,1.12,1.76,2.66,1.76,4.24c0,1.58-0.64,3.12-1.76,4.24
		c-1.12,1.12-2.66,1.76-4.24,1.76c-1.58,0-3.13-0.64-4.24-1.76c-1.12-1.12-1.76-2.66-1.76-4.24c0-1.58,0.64-3.12,1.76-4.24
		c1.11-1.12,2.66-1.76,4.24-1.76C290.41,266.535,291.96,267.175,293.07,268.295z"/>
	<path style="fill:#EA5F2F;" d="M282.04,293.535c7.9,3.73,13.37,11.76,13.37,21.08c0,12.86-10.43,23.29-23.29,23.29
		c-6.36,0-12.12-2.55-16.33-6.68l1.15-19.68l0.13-2.17c0.44-7.44,6.13-13.5,13.52-14.42l11.44-1.42H282.04z M279.62,314.615
		c0-1.98-0.8-3.91-2.2-5.3c-1.4-1.4-3.33-2.2-5.3-2.2c-1.98,0-3.91,0.8-5.31,2.2c-1.39,1.39-2.19,3.32-2.19,5.3
		c0,1.97,0.8,3.9,2.19,5.3c1.4,1.4,3.33,2.2,5.31,2.2c1.97,0,3.9-0.8,5.3-2.2C278.82,318.515,279.62,316.585,279.62,314.615z"/>
	<path style="fill:#D16A0D;" d="M291.75,401.735l-0.26,0.23c0,0-3.69,26.65,4.31,39.65c-20.28-11.06-29.28-35.1-30.57-38.79
		l0.31-0.48c2.06-3.21,4.43-6.21,7.07-8.96c2.67-2.78,5.61-5.3,8.79-7.51c0.13-0.09,0.25-0.18,0.37-0.27l0.19,0.27
		C281.96,385.875,284.74,393.935,291.75,401.735z"/>
	<path style="fill:#333333;" d="M277.42,309.315c1.4,1.39,2.2,3.32,2.2,5.3c0,1.97-0.8,3.9-2.2,5.3c-1.4,1.4-3.33,2.2-5.3,2.2
		c-1.98,0-3.91-0.8-5.31-2.2c-1.39-1.4-2.19-3.33-2.19-5.3c0-1.98,0.8-3.91,2.19-5.3c1.4-1.4,3.33-2.2,5.31-2.2
		C274.09,307.115,276.02,307.915,277.42,309.315z"/>
	<path style="fill:#F9A653;" d="M276.6,236.325c0.36,2.22,0.54,4.5,0.54,6.82c0,23.92-19.39,43.31-43.31,43.31
		s-43.31-19.39-43.31-43.31c0-2.32,0.18-4.6,0.54-6.82c2.79-0.81,5.7-1.23,8.63-1.23c3.47,0,6.96,0.59,10.33,1.79
		c-0.52,2-0.8,4.1-0.8,6.26c0,13.59,11.02,24.6,24.61,24.6c13.59,0,24.61-11.01,24.61-24.6c0-2.16-0.28-4.26-0.8-6.26
		C263.84,234.665,270.48,234.535,276.6,236.325z"/>
	<path style="fill:#F9A653;" d="M233.83,399.365h5.57c6.85,0,11.64-6.76,9.37-13.22c-1.1-3.13-3.12-5.73-5.7-7.56
		c-2.57-1.83-5.7-2.87-9.02-2.87c-3.31,0-6.44,1.04-9.02,2.87c-2.57,1.83-4.6,4.43-5.69,7.56c-0.39,1.11-0.57,2.22-0.57,3.31
		c0,5.27,4.26,9.91,9.94,9.91H233.83z M265.23,402.825l-11.39,17.77c-2.19,3.41-5.16,6.14-8.61,8.03c-3.44,1.88-7.35,2.91-11.4,2.91
		c-8.1,0-15.65-4.12-20.02-10.94l-11.69-18.25c-2.06-3.21-4.43-6.21-7.07-8.96c0-13.31,5.88-26.47,10.87-35.26l17.01-22.91
		c5.43-7.31,16.37-7.31,21.8,0l17,22.91c5,8.79,10.88,21.95,10.88,35.26c-2.64,2.75-5.01,5.75-7.07,8.96L265.23,402.825z
		 M240.05,347.635c0-1.58-0.64-3.12-1.75-4.24c-1.12-1.12-2.67-1.76-4.24-1.76c-1.58,0-3.13,0.64-4.25,1.76
		c-1.11,1.11-1.75,2.66-1.75,4.24c0,1.58,0.64,3.13,1.75,4.24c1.12,1.12,2.67,1.76,4.25,1.76c1.57,0,3.12-0.64,4.24-1.76
		C239.41,350.755,240.05,349.215,240.05,347.635z M240.05,361.635c0-1.58-0.64-3.13-1.75-4.24c-1.12-1.12-2.67-1.76-4.24-1.76
		c-1.58,0-3.13,0.64-4.25,1.76c-1.11,1.11-1.75,2.66-1.75,4.24c0,1.58,0.64,3.13,1.75,4.24c1.12,1.12,2.67,1.76,4.25,1.76
		c1.57,0,3.12-0.64,4.24-1.76C239.41,364.765,240.05,363.215,240.05,361.635z"/>
	<path style="fill:#964502;" d="M208.12,353.725c2.91-6.62,4.26-13.83,3.83-21.09l-0.08-1.41l-1.16-19.68h0.01
		c7.19,2.7,14.98,4.18,23.11,4.18c8.13,0,15.92-1.48,23.11-4.18l-1.15,19.68l-0.08,1.41c-0.43,7.26,0.91,14.47,3.81,21.09
		c0.66,1.5,1.39,2.97,2.21,4.4l-17-22.91c-5.43-7.31-16.37-7.31-21.8,0l-17.01,22.91C206.73,356.695,207.47,355.225,208.12,353.725z
		"/>
	<polygon style="fill:#EA5F2F;" points="261.58,99.665 247.7,113.195 250.98,132.285 233.83,123.275 216.68,132.285 219.95,113.195 
		206.08,99.665 225.25,96.875 233.83,79.505 242.4,96.875 	"/>
	<path style="fill:#EA5F2F;" d="M233.83,243.155c6.98,0,13.96-1.6,20.38-4.81c1.12-0.56,2.27-1.05,3.43-1.46
		c0.52,2,0.8,4.1,0.8,6.26c0,13.59-11.02,24.6-24.61,24.6c-13.59,0-24.61-11.01-24.61-24.6c0-2.16,0.28-4.26,0.8-6.26
		c1.16,0.41,2.31,0.9,3.43,1.46C219.87,241.555,226.85,243.155,233.83,243.155z"/>
	<path style="fill:#964502;" d="M248.77,386.145c2.27,6.46-2.52,13.22-9.37,13.22h-5.57h-5.12c-5.68,0-9.94-4.64-9.94-9.91
		c0-1.09,0.18-2.2,0.57-3.31c1.09-3.13,3.12-5.73,5.69-7.56c2.58-1.83,5.71-2.87,9.02-2.87c3.32,0,6.45,1.04,9.02,2.87
		C245.65,380.415,247.67,383.015,248.77,386.145z"/>
	<path style="fill:#F9CD16;" d="M238.3,295.295c1.11,1.12,1.75,2.66,1.75,4.24c0,1.58-0.64,3.13-1.75,4.24
		c-1.12,1.12-2.67,1.76-4.24,1.76c-1.58,0-3.13-0.64-4.25-1.76c-1.11-1.11-1.75-2.66-1.75-4.24c0-1.58,0.64-3.12,1.75-4.24
		c1.12-1.12,2.67-1.76,4.25-1.76C235.63,293.535,237.18,294.175,238.3,295.295z"/>
	<path style="fill:#F9CD16;" d="M238.3,343.395c1.11,1.12,1.75,2.66,1.75,4.24c0,1.58-0.64,3.12-1.75,4.24
		c-1.12,1.12-2.67,1.76-4.24,1.76c-1.58,0-3.13-0.64-4.25-1.76c-1.11-1.11-1.75-2.66-1.75-4.24c0-1.58,0.64-3.13,1.75-4.24
		c1.12-1.12,2.67-1.76,4.25-1.76C235.63,341.635,237.18,342.275,238.3,343.395z"/>
	<path style="fill:#F9CD16;" d="M238.3,357.395c1.11,1.11,1.75,2.66,1.75,4.24c0,1.58-0.64,3.13-1.75,4.24
		c-1.12,1.12-2.67,1.76-4.24,1.76c-1.58,0-3.13-0.64-4.25-1.76c-1.11-1.11-1.75-2.66-1.75-4.24c0-1.58,0.64-3.13,1.75-4.24
		c1.12-1.12,2.67-1.76,4.25-1.76C235.63,355.635,237.18,356.275,238.3,357.395z"/>
	<path style="fill:#F9A653;" d="M211.95,332.635c0.43,7.26-0.92,14.47-3.83,21.09c-3.96,1.28-8.19,1.97-12.58,1.97
		c-17.92,0-33.15-11.48-38.77-27.48l-0.01-0.01c-0.06-1.23-0.09-2.47-0.09-3.7c0-5.83,0.69-11.67,2.08-17.4
		c0.59-2.43,0.89-4.92,0.89-7.4c0-3.23-0.5-6.46-1.5-9.57l27.48,3.4c-7.9,3.73-13.37,11.76-13.37,21.08
		c0,12.86,10.43,23.29,23.29,23.29c6.36,0,12.12-2.55,16.33-6.68L211.95,332.635z"/>
	<path style="fill:#EA5F2F;" d="M210.71,311.545l1.16,19.68c-4.21,4.13-9.97,6.68-16.33,6.68c-12.86,0-23.29-10.43-23.29-23.29
		c0-9.32,5.47-17.35,13.37-21.08h0.01l11.44,1.42c7.39,0.92,13.08,6.98,13.51,14.42L210.71,311.545z M203.04,314.615
		c0-1.98-0.8-3.91-2.2-5.3c-1.39-1.4-3.32-2.2-5.3-2.2c-1.97,0-3.91,0.8-5.3,2.2c-1.4,1.39-2.2,3.32-2.2,5.3
		c0,1.97,0.8,3.91,2.2,5.3c1.39,1.4,3.33,2.2,5.3,2.2c1.98,0,3.91-0.8,5.3-2.2C202.24,318.525,203.04,316.585,203.04,314.615z"/>
	<path style="fill:#D16A0D;" d="M208.12,353.725c-0.65,1.5-1.39,2.97-2.2,4.4c-4.99,8.79-10.87,21.95-10.87,35.26
		c-0.02-0.02-0.03-0.03-0.05-0.05c-2.65-2.76-5.58-5.26-8.74-7.46c-0.13-0.09-0.25-0.18-0.37-0.27
		c-8.62-6.08-15.42-14.38-19.71-24.02l-3.14-7.08c-0.03-0.07-0.06-0.14-0.09-0.21c-3.66-8.29-5.74-17.14-6.18-26.08
		c5.62,16,20.85,27.48,38.77,27.48C199.93,355.695,204.16,355.005,208.12,353.725z"/>
	<path style="fill:#333333;" d="M200.84,309.315c1.4,1.39,2.2,3.32,2.2,5.3c0,1.97-0.8,3.91-2.2,5.3c-1.39,1.4-3.32,2.2-5.3,2.2
		c-1.97,0-3.91-0.8-5.3-2.2c-1.4-1.39-2.2-3.33-2.2-5.3c0-1.98,0.8-3.91,2.2-5.3c1.39-1.4,3.33-2.2,5.3-2.2
		C197.52,307.115,199.45,307.915,200.84,309.315z"/>
	<path style="fill:#D16A0D;" d="M195.05,393.385c2.64,2.75,5.01,5.75,7.07,8.96c0,0-8.73,27.27-30.73,39.27
		c7.9-12.84,4.4-39.01,4.31-39.64c0-0.01,0-0.01,0-0.01c7.17-7.87,10-16.09,10-16.09l0.19-0.27c0.12,0.09,0.24,0.18,0.37,0.27
		c3.16,2.2,6.09,4.7,8.74,7.46C195.02,393.355,195.03,393.365,195.05,393.385z"/>
	<path style="fill:#F9A653;" d="M185.89,385.605l-0.19,0.27c0,0-2.83,8.22-10,16.09c0,0,0,0,0,0.01
		c-5.5,6.05-13.57,11.9-24.87,13.64c18-20,11.64-61.11,11.64-61.11l0.48-0.21c0.03,0.07,0.06,0.14,0.09,0.21l3.14,7.08
		C170.47,371.225,177.27,379.525,185.89,385.605z"/>
	<path style="fill:#F9CD16;" d="M183.07,268.295c1.12,1.11,1.76,2.66,1.76,4.24c0,1.58-0.64,3.13-1.76,4.24
		c-1.11,1.12-2.66,1.76-4.24,1.76c-1.58,0-3.13-0.64-4.24-1.76c-1.12-1.11-1.76-2.66-1.76-4.24c0-1.58,0.64-3.12,1.76-4.24
		c1.11-1.12,2.66-1.76,4.24-1.76C180.41,266.535,181.96,267.175,183.07,268.295z"/>
	<path style="fill:#964502;" d="M167.71,255.985l-3.61,4.26c-1.85,2.19-3.37,4.59-4.54,7.12l-11.33-10.82
		c-8.03-7.66-18.42-12.39-29.47-13.41l-39.29-3.63l-8.64-19.97l47.93,4.42c11.05,1.02,21.44,5.75,29.47,13.42L167.71,255.985z"/>
	<path style="fill:#F9A653;" d="M148.23,256.545l11.33,10.82c-2.21,4.76-3.19,10.01-2.84,15.25l-17.17,3.48
		c-21.41,4.34-42.92-6.9-51.59-26.95l-8.49-19.64l39.29,3.63C129.81,244.155,140.2,248.885,148.23,256.545z"/>
	<path style="fill:#5484EF;" d="M122.45,286.765c16.22,26.33,16.69,59.42,1.24,86.19c-3.81-6.17-6.75-12.72-8.83-19.48
		c-1.22-3.99-2.14-8.05-2.76-12.15C123.06,325.655,127.02,305.825,122.45,286.765z"/>
	<path style="fill:#F9CD16;" d="M122.45,286.765c4.57,19.06,0.61,38.89-10.35,54.56c-2.93,4.2-6.37,8.1-10.28,11.61
		c-1.26-5.25-1.88-10.56-1.88-15.83c0-18.98,8-37.37,22.49-50.36C122.44,286.755,122.44,286.755,122.45,286.765z"/>
	<path style="fill:none;stroke:#333333;stroke-width:8;stroke-linejoin:round;stroke-miterlimit:10;" d="M345.22,286.735
		c14.5,12.99,22.5,31.39,22.5,50.37c0,5.27-0.62,10.58-1.88,15.83c-3.91-3.51-7.35-7.41-10.29-11.61
		C344.59,325.645,340.63,305.805,345.22,286.735z"/>
	<path style="fill:none;stroke:#333333;stroke-width:8;stroke-linejoin:round;stroke-miterlimit:10;" d="M355.55,341.325
		c-0.61,4.1-1.53,8.16-2.76,12.15c-2.07,6.76-5.02,13.31-8.82,19.48c-15.46-26.78-14.98-59.89,1.25-86.22"/>
	<path style="fill:none;stroke:#333333;stroke-width:8;stroke-linejoin:round;stroke-miterlimit:10;" d="M122.43,286.745
		c-14.49,12.99-22.49,31.38-22.49,50.36c0,5.27,0.62,10.58,1.88,15.83c3.91-3.51,7.35-7.41,10.28-11.61
		c10.96-15.67,14.92-35.5,10.35-54.56c-0.01-0.01-0.01-0.02-0.01-0.03h-0.01"/>
	<path style="fill:none;stroke:#333333;stroke-width:8;stroke-linejoin:round;stroke-miterlimit:10;" d="M122.43,286.735v0.01
		c0.01,0.01,0.01,0.01,0.02,0.02c16.22,26.33,16.69,59.42,1.24,86.19c-3.81-6.17-6.75-12.72-8.83-19.48
		c-1.22-3.99-2.14-8.05-2.76-12.15"/>
	<path style="fill:none;stroke:#333333;stroke-width:10;stroke-linecap:round;stroke-linejoin:round;stroke-miterlimit:10;" d="
		M156.77,328.215c0.44,8.94,2.52,17.79,6.18,26.08c0.03,0.07,0.06,0.14,0.09,0.21l3.14,7.08c4.29,9.64,11.09,17.94,19.71,24.02
		c0.12,0.09,0.24,0.18,0.37,0.27c3.16,2.2,6.09,4.7,8.74,7.46c0.02,0.02,0.03,0.03,0.05,0.05c2.64,2.75,5.01,5.75,7.07,8.96
		l11.69,18.25c4.37,6.82,11.92,10.94,20.02,10.94c4.05,0,7.96-1.03,11.4-2.91c3.45-1.89,6.42-4.62,8.61-8.03l11.39-17.77l0.31-0.48
		c2.06-3.21,4.43-6.21,7.07-8.96c2.67-2.78,5.61-5.3,8.79-7.51c0.13-0.09,0.25-0.18,0.37-0.27c4.24-3,8.05-6.53,11.33-10.5
		c3.38-4.09,6.2-8.63,8.37-13.52l3.15-7.08c0.03-0.07,0.06-0.13,0.09-0.2c3.66-8.3,5.74-17.15,6.18-26.09"/>
	<path style="fill:none;stroke:#333333;stroke-width:10;stroke-linecap:round;stroke-linejoin:round;stroke-miterlimit:10;" d="
		M310.9,328.205c0.35-7.05-0.31-14.15-1.99-21.1c-0.59-2.43-0.89-4.92-0.89-7.4c0-3.23,0.5-6.46,1.5-9.57
		c0.79-2.48,1.26-5.01,1.42-7.55c0.05-0.67,0.07-1.35,0.07-2.02c0-4.41-0.93-8.78-2.73-12.81c-1.19-2.68-2.77-5.21-4.72-7.51
		l-3.37-3.97l-8.73-10.3c-4.02-4.74-9.22-8-14.86-9.65c-6.12-1.79-12.76-1.66-18.96,0.56c-1.16,0.41-2.31,0.9-3.43,1.46
		c-6.42,3.21-13.4,4.81-20.38,4.81c-6.98,0-13.96-1.6-20.38-4.81c-1.12-0.56-2.27-1.05-3.43-1.46c-3.37-1.2-6.86-1.79-10.33-1.79
		c-2.93,0-5.84,0.42-8.63,1.23c-5.65,1.65-10.85,4.91-14.86,9.65l-8.49,10.01l-3.61,4.26c-1.85,2.19-3.37,4.59-4.54,7.12
		c-2.21,4.76-3.19,10.01-2.84,15.25c0.16,2.53,0.63,5.05,1.42,7.52c1,3.11,1.5,6.34,1.5,9.57c0,2.48-0.3,4.97-0.89,7.4
		c-1.39,5.73-2.08,11.57-2.08,17.4c0,1.23,0.03,2.47,0.09,3.7"/>
	<path style="fill:none;stroke:#333333;stroke-width:8;stroke-linejoin:round;stroke-miterlimit:10;" d="M228.71,399.365h5.12h5.57
		c6.85,0,11.64-6.76,9.37-13.22c-1.1-3.13-3.12-5.73-5.7-7.56c-2.57-1.83-5.7-2.87-9.02-2.87c-3.31,0-6.44,1.04-9.02,2.87
		c-2.57,1.83-4.6,4.43-5.69,7.56c-0.39,1.11-0.57,2.22-0.57,3.31C218.77,394.725,223.03,399.365,228.71,399.365z"/>
	<path style="fill:none;stroke:#333333;stroke-width:8;stroke-linejoin:round;stroke-miterlimit:10;" d="M185.63,293.535l11.44,1.42
		c7.39,0.92,13.08,6.98,13.51,14.42l0.13,2.17l1.16,19.68l0.08,1.41c0.43,7.26-0.92,14.47-3.83,21.09c-0.65,1.5-1.39,2.97-2.2,4.4
		c-4.99,8.79-10.87,21.95-10.87,35.26"/>
	
		<line style="fill:none;stroke:#333333;stroke-width:8;stroke-linejoin:round;stroke-miterlimit:10;" x1="158.14" y1="290.135" x2="185.62" y2="293.535"/>
	<path style="fill:none;stroke:#333333;stroke-width:8;stroke-linejoin:round;stroke-miterlimit:10;" d="M282.03,293.535
		l-11.44,1.42c-7.39,0.92-13.08,6.98-13.52,14.42l-0.13,2.17l-1.15,19.68l-0.08,1.41c-0.43,7.26,0.91,14.47,3.81,21.09
		c0.66,1.5,1.39,2.97,2.21,4.4c5,8.79,10.88,21.95,10.88,35.26"/>
	
		<line style="fill:none;stroke:#333333;stroke-width:8;stroke-linejoin:round;stroke-miterlimit:10;" x1="309.52" y1="290.135" x2="282.04" y2="293.535"/>
	<path style="fill:none;stroke:#333333;stroke-width:8;stroke-linejoin:round;stroke-miterlimit:10;" d="M205.92,358.125
		l17.01-22.91c5.43-7.31,16.37-7.31,21.8,0l17,22.91"/>
	<path style="fill:none;stroke:#333333;stroke-width:10;stroke-linejoin:round;stroke-miterlimit:10;" d="M167.71,255.985
		l-19.48-18.61c-8.03-7.67-18.42-12.4-29.47-13.42l-47.93-4.42l8.64,19.97l8.49,19.64c8.67,20.05,30.18,31.29,51.59,26.95
		l17.17-3.48"/>
	<path style="fill:none;stroke:#333333;stroke-width:10;stroke-linejoin:round;stroke-miterlimit:10;" d="M300.53,255.985
		l19.49-18.61c8.03-7.67,18.41-12.4,29.47-13.42l47.93-4.42l-8.64,19.97l-8.49,19.64c-8.67,20.05-30.19,31.29-51.6,26.95
		l-17.16-3.48"/>
	<path style="fill:none;stroke:#333333;stroke-width:8;stroke-linejoin:round;stroke-miterlimit:10;" d="M79.47,239.505l39.29,3.63
		c11.05,1.02,21.44,5.75,29.47,13.41l11.33,10.82"/>
	<path style="fill:none;stroke:#333333;stroke-width:8;stroke-linejoin:round;stroke-miterlimit:10;" d="M308.28,267.755
		l11.74-11.21c8.03-7.66,18.41-12.39,29.47-13.41l39.29-3.63"/>
	<path style="fill:none;stroke:#333333;stroke-width:15;stroke-linecap:round;stroke-linejoin:round;stroke-miterlimit:10;" d="
		M105.29,200.765c-2.34-0.16-4.69-0.23-7.05-0.23c-52.12,0-90.74-42.73-90.74-90.58c0-11.48,2.23-23.26,7.03-34.82l18.93-45.6"/>
	<path style="fill:none;stroke:#333333;stroke-width:15;stroke-linecap:round;stroke-linejoin:round;stroke-miterlimit:10;" d="
		M153.91,215.385c-14.81-8.51-31.43-13.54-48.61-14.62"/>
	<path style="fill:none;stroke:#333333;stroke-width:15;stroke-linecap:round;stroke-linejoin:round;stroke-miterlimit:10;" d="
		M155.81,216.495c-0.62-0.37-1.24-0.73-1.86-1.08"/>
	<path style="fill:none;stroke:#333333;stroke-width:15;stroke-linecap:round;stroke-linejoin:round;stroke-miterlimit:10;" d="
		M184.2,239.065l-12.06-10.62c-5.1-4.49-10.56-8.47-16.3-11.93"/>
	<path style="fill:none;stroke:#333333;stroke-width:15;stroke-linecap:round;stroke-linejoin:round;stroke-miterlimit:10;" d="
		M57.46,66.535l-11.04,23.36c-21.26,44.97,3.66,98.18,51.82,110.64"/>
	<path style="fill:none;stroke:#333333;stroke-width:15;stroke-linecap:round;stroke-linejoin:round;stroke-miterlimit:10;" d="
		M89.46,95.535l-18,29.25c-18.95,30.8-0.17,69.93,33.83,75.98c0,0,0,0,0.01,0c2.55,0.45,5.19,0.72,7.91,0.78"/>
	<path style="fill:none;stroke:#333333;stroke-width:15;stroke-linecap:round;stroke-linejoin:round;stroke-miterlimit:10;" d="
		M158.07,164.025c8.06,12.27,13.01,26.18,14.58,40.55c1.02,9.37-8.77,15.73-16.81,11.94c-0.01,0-0.02,0-0.03-0.02
		c-0.63-0.29-1.25-0.65-1.86-1.08c-0.01-0.01-0.03-0.02-0.04-0.03"/>
	<path style="fill:none;stroke:#333333;stroke-width:15;stroke-linecap:round;stroke-linejoin:round;stroke-miterlimit:10;" d="
		M309.12,164.025c-8.06,12.27-13.01,26.18-14.58,40.55c-1.11,10.14,10.44,16.75,18.73,10.81"/>
	<path style="fill:none;stroke:#333333;stroke-width:15;stroke-linecap:round;stroke-linejoin:round;stroke-miterlimit:10;" d="
		M362.37,200.765c2.34-0.16,4.69-0.23,7.05-0.23c52.12,0,90.73-42.73,90.73-90.58c0-11.49-2.22-23.27-7.02-34.82l-18.93-45.6"/>
	<path style="fill:none;stroke:#333333;stroke-width:15;stroke-linecap:round;stroke-linejoin:round;stroke-miterlimit:10;" d="
		M283.46,239.065l12.06-10.62c18.64-16.43,42.18-26.13,66.84-27.68"/>
	<path style="fill:none;stroke:#333333;stroke-width:15;stroke-linecap:round;stroke-linejoin:round;stroke-miterlimit:10;" d="
		M410.2,66.535l11.04,23.36c21.26,44.97-3.67,98.18-51.82,110.64"/>
	<path style="fill:none;stroke:#333333;stroke-width:15;stroke-linecap:round;stroke-linejoin:round;stroke-miterlimit:10;" d="
		M378.2,95.535l18,29.25c18.95,30.8,0.17,69.93-33.83,75.98c0,0,0,0-0.01,0c-2.55,0.45-5.19,0.72-7.91,0.78"/>
	<path style="fill:none;stroke:#333333;stroke-width:8;stroke-linejoin:round;stroke-miterlimit:10;" d="M257.64,236.885
		c0.52,2,0.8,4.1,0.8,6.26c0,13.59-11.02,24.6-24.61,24.6c-13.59,0-24.61-11.01-24.61-24.6c0-2.16,0.28-4.26,0.8-6.26"/>
	<path style="fill:none;stroke:#333333;stroke-width:8;stroke-linejoin:round;stroke-miterlimit:10;" d="M276.6,236.325
		c0.36,2.22,0.54,4.5,0.54,6.82c0,23.92-19.39,43.31-43.31,43.31s-43.31-19.39-43.31-43.31c0-2.32,0.18-4.6,0.54-6.82"/>
	<path style="fill:none;stroke:#333333;stroke-width:8;stroke-linejoin:round;stroke-miterlimit:10;" d="M210.72,311.545
		c7.19,2.7,14.98,4.18,23.11,4.18c8.13,0,15.92-1.48,23.11-4.18"/>
	
		<polyline style="fill:none;stroke:#333333;stroke-width:8;stroke-linecap:round;stroke-linejoin:round;stroke-miterlimit:10;" points="
		233.83,250.535 233.83,243.155 233.83,243.145 	"/>
	<path style="fill:none;stroke:#333333;stroke-width:8;stroke-linejoin:round;stroke-miterlimit:10;" d="M185.63,293.535h-0.01
		c-7.9,3.73-13.37,11.76-13.37,21.08c0,12.86,10.43,23.29,23.29,23.29c6.36,0,12.12-2.55,16.33-6.68"/>
	<path style="fill:none;stroke:#333333;stroke-width:8;stroke-linejoin:round;stroke-miterlimit:10;" d="M156.76,328.205l0.01,0.01
		c5.62,16,20.85,27.48,38.77,27.48c4.39,0,8.62-0.69,12.58-1.97c0.01,0,0.01,0,0.02,0"/>
	<path style="fill:none;stroke:#333333;stroke-width:8;stroke-linejoin:round;stroke-miterlimit:10;" d="M282.03,293.535h0.01
		c7.9,3.73,13.37,11.76,13.37,21.08c0,12.86-10.43,23.29-23.29,23.29c-6.36,0-12.12-2.55-16.33-6.68"/>
	<path style="fill:none;stroke:#333333;stroke-width:8;stroke-linejoin:round;stroke-miterlimit:10;" d="M259.52,353.725
		c3.97,1.28,8.2,1.97,12.6,1.97c17.92,0,33.15-11.48,38.77-27.48l0.01-0.01"/>
	
		<line style="fill:none;stroke:#333333;stroke-width:8;stroke-linejoin:round;stroke-miterlimit:10;" x1="233.83" y1="431.535" x2="233.83" y2="399.365"/>
	<path style="fill:none;stroke:#333333;stroke-width:8;stroke-linecap:round;stroke-linejoin:round;stroke-miterlimit:10;" d="
		M175.7,401.965c7.17-7.87,10-16.09,10-16.09"/>
	<path style="fill:none;stroke:#333333;stroke-width:8;stroke-linecap:round;stroke-linejoin:round;stroke-miterlimit:10;" d="
		M162.47,354.505c0,0,6.36,41.11-11.64,61.11c11.3-1.74,19.37-7.59,24.87-13.64"/>
	<path style="fill:none;stroke:#333333;stroke-width:8;stroke-linecap:round;stroke-linejoin:round;stroke-miterlimit:10;" d="
		M305.18,354.505c0,0-6.35,41.11,11.65,61.11c-11.45-1.76-19.58-7.74-25.08-13.88c-7.01-7.8-9.79-15.86-9.79-15.86"/>
	<path style="fill:none;stroke:#333333;stroke-width:8;stroke-linecap:round;stroke-linejoin:round;stroke-miterlimit:10;" d="
		M175.7,401.965c0,0,0,0,0,0.01c0.09,0.63,3.59,26.8-4.31,39.64c22-12,30.73-39.27,30.73-39.27"/>
	<path style="fill:none;stroke:#333333;stroke-width:8;stroke-linecap:round;stroke-linejoin:round;stroke-miterlimit:10;" d="
		M291.49,401.965c0,0-3.69,26.65,4.31,39.65c-20.28-11.06-29.28-35.1-30.57-38.79c-0.11-0.31-0.16-0.48-0.16-0.48"/>
	<polygon style="fill:none;stroke:#333333;stroke-width:8;stroke-linejoin:round;stroke-miterlimit:10;" points="233.83,45.615 
		252.36,83.165 293.81,89.195 263.82,118.425 270.9,159.705 233.83,140.215 196.76,159.705 203.84,118.425 173.84,89.195 
		215.29,83.165 	"/>
	<polygon style="fill:none;stroke:#333333;stroke-width:8;stroke-linejoin:round;stroke-miterlimit:10;" points="233.83,123.275 
		216.68,132.285 219.95,113.195 206.08,99.665 225.25,96.875 233.83,79.505 242.4,96.875 261.58,99.665 247.7,113.195 
		250.98,132.285 	"/>
</g>
<g>
</g>
<g>
</g>
<g>
</g>
<g>
</g>
<g>
</g>
<g>
</g>
<g>
</g>
<g>
</g>
<g>
</g>
<g>
</g>
<g>
</g>
<g>
</g>
<g>
</g>
<g>
</g>
<g>
</g>
</svg>
