<?xml version="1.0" encoding="iso-8859-1"?>
<!-- Generator: Adobe Illustrator 19.1.0, SVG Export Plug-In . SVG Version: 6.00 Build 0)  -->
<svg version="1.1" id="Capa_1" xmlns="http://www.w3.org/2000/svg" xmlns:xlink="http://www.w3.org/1999/xlink" x="0px" y="0px"
	 viewBox="0 0 456.93 456.93" style="enable-background:new 0 0 456.93 456.93;" xml:space="preserve">
<g>
	<path style="fill:#CCCCCC;" d="M436.094,108.56c1.74,5.03,2.48,10.64,1.95,16.68l-2.47,28.13c-1.31,14.81-9.77,28.04-22.66,35.44
		l-21.1,12.11c1.12-24.14-12.86-42.5-31.32-50.67c0,0,25.24-66.2,75.59-41.69H436.094z"/>
	<path style="fill:#808080;" d="M436.094,108.56h-0.01c-50.35-24.51-75.59,41.69-75.59,41.69c-7.49-3.32-15.73-4.95-24-4.62
		c5.61-18.31,18.47-35.89,33.46-51.41c0.8-0.83,1.62-1.62,2.46-2.35C394.314,72.49,427.454,83.48,436.094,108.56z"/>
	<path style="fill:#808080;" d="M218.324,213.26h20.28c11.99-2.2,23.03-8.24,31.37-17.36l20.86-22.79l15.33-15.89l0.01-0.01
		c9.18-7.48,19.77-11.14,30.32-11.58c8.27-0.33,16.51,1.3,24,4.62c18.46,8.17,32.44,26.53,31.32,50.67l-3.48,75.01
		c-39.32-0.33-39.63-22.52-79.57-22.52c-40.25,0-40.25,22.53-80.5,22.53c-40.26,0-40.26-22.53-80.51-22.53
		c-39.79,0-40.24,22.02-79.15,22.52l-3.48-75.01c-1.12-24.15,12.86-42.51,31.32-50.67c7.5-3.32,15.74-4.95,24-4.62
		c10.55,0.44,21.15,4.1,30.32,11.58l15.34,15.9l20.85,22.79c5.33,5.82,11.76,10.39,18.83,13.5
		C209.774,211.17,213.994,212.47,218.324,213.26z"/>
	<path style="fill:#CCCCCC;" d="M313.494,279.17c-2.94,1.15-5.68,3.06-7.93,5.75l-19.44,23.22l22.35,10.83
		c1.63,0.79,3.31,1.37,5.02,1.74c1.59,0.35,3.21,0.52,4.81,0.52c6.04,0,11.99-2.43,16.35-7.02c4.06-4.26,6.2-9.85,6.2-15.52
		c0-2.88-0.55-5.79-1.69-8.56C334.824,279.55,323.074,275.4,313.494,279.17z M143.444,320.71c1.71-0.37,3.39-0.95,5.02-1.74
		l22.34-10.83l-19.44-23.22c-2.25-2.69-4.98-4.59-7.92-5.74c-9.58-3.78-21.34,0.36-25.68,10.95c-1.13,2.77-1.69,5.67-1.69,8.55
		c0,5.68,2.15,11.26,6.21,15.53c4.36,4.59,10.3,7.02,16.35,7.02C140.234,321.23,141.854,321.06,143.444,320.71z M228.464,421.46
		h13.8c10.5,0,17.8-10.44,14.21-20.31c-2.09-5.74-5.87-10.52-10.65-13.86c-4.78-3.35-10.56-5.26-16.67-5.26h-1.37
		c-12.22,0-23.14,7.64-27.32,19.12c-0.63,1.74-0.93,3.49-0.93,5.2c0,8.02,6.49,15.11,15.14,15.11H228.464z M388.334,275.93
		l-0.26,5.58c-1.19,25.75-12.46,49.99-31.35,67.51c-5.4-6.03-13.24-9.82-21.96-9.82c-16.27,0-29.46,13.19-29.46,29.46
		c0,7.7,2.95,14.71,7.79,19.96l-55.92,50.74c-16.29,14.76-41.12,14.76-57.41,0l-55.92-50.73c4.83-5.25,7.79-12.26,7.79-19.97
		c0-16.27-13.19-29.46-29.46-29.46c-8.72,0-16.56,3.79-21.96,9.82c-18.88-17.51-30.16-41.76-31.35-67.51l-0.26-5.58
		c38.91-0.5,39.36-22.52,79.15-22.52c40.25,0,40.25,22.53,80.51,22.53c40.25,0,40.25-22.53,80.5-22.53
		C348.704,253.41,349.014,275.6,388.334,275.93z"/>
	<path style="fill:#CCCCCC;" d="M218.324,213.26c-4.33-0.79-8.55-2.09-12.54-3.86c-7.07-3.11-13.5-7.68-18.83-13.5l-20.85-22.79
		l-15.34-15.9c-9.17-7.48-19.77-11.14-30.32-11.58c-5.62-18.31-18.47-35.89-33.47-51.41c-0.88-0.91-1.77-1.76-2.69-2.55
		c3.6-3.81,7.35-7.47,11.24-10.98c4.05-3.66,8.25-7.15,12.59-10.47c4.32-3.3,8.78-6.43,13.37-9.36c4.55-2.93,9.23-5.67,14.03-8.22
		c4.77-2.52,9.64-4.86,14.62-7c4.93-2.12,9.96-4.04,15.09-5.75c5.07-1.71,10.23-3.21,15.48-4.5c5.17-1.28,10.43-2.35,15.76-3.21
		c5.25-0.85,10.57-1.49,15.95-1.92c5.23-0.41,10.52-0.62,15.85-0.62c0.07,0,0.13,0,0.2,0c5.4,0.01,10.74,0.23,16.03,0.66
		c5.38,0.43,10.7,1.08,15.95,1.95c5.33,0.86,10.58,1.94,15.75,3.23c5.24,1.3,10.4,2.81,15.46,4.52c5.12,1.73,10.15,3.66,15.07,5.79
		c4.97,2.14,9.84,4.48,14.59,7.02c4.79,2.55,9.46,5.29,14,8.22c4.58,2.94,9.03,6.07,13.34,9.37c4.33,3.33,8.52,6.82,12.56,10.49
		c3.88,3.51,7.61,7.17,11.2,10.98c-0.84,0.73-1.66,1.52-2.46,2.35c-14.99,15.52-27.85,33.1-33.46,51.41
		c-10.55,0.44-21.14,4.1-30.32,11.58l-0.01,0.01l-15.33,15.89l-20.86,22.79c-8.34,9.12-19.38,15.16-31.37,17.36H218.324z"/>
	<path style="fill:#F9CD16;" d="M356.724,349.02c-0.27,0.26-0.55,0.51-0.82,0.76l-42.81,38.84c-4.84-5.25-7.79-12.26-7.79-19.96
		c0-16.27,13.19-29.46,29.46-29.46C343.484,339.2,351.324,342.99,356.724,349.02z"/>
	<path style="fill:#333333;" d="M313.494,279.17v41.54c-1.71-0.37-3.39-0.95-5.02-1.74l-22.35-10.83l19.44-23.22
		C307.814,282.23,310.554,280.32,313.494,279.17z"/>
	<path style="fill:#964502;" d="M256.474,401.15c3.59,9.87-3.71,20.31-14.21,20.31h-13.8h-13.79c-8.65,0-15.14-7.09-15.14-15.11
		c0-1.71,0.3-3.46,0.93-5.2c4.18-11.48,15.1-19.12,27.32-19.12h1.37c6.11,0,11.89,1.91,16.67,5.26
		C250.604,390.63,254.384,395.41,256.474,401.15z"/>
	<path style="fill:#333333;" d="M151.364,284.92l19.44,23.22l-22.34,10.83c-1.63,0.79-3.31,1.37-5.02,1.74v-41.53
		C146.384,280.33,149.114,282.23,151.364,284.92z"/>
	<path style="fill:#F9CD16;" d="M151.634,368.66c0,7.71-2.96,14.72-7.79,19.97l-42.82-38.85c-0.27-0.25-0.54-0.49-0.81-0.76
		c5.4-6.03,13.24-9.82,21.96-9.82C138.444,339.2,151.634,352.39,151.634,368.66z"/>
	<path style="fill:#808080;" d="M120.444,145.63c-8.26-0.33-16.5,1.3-24,4.62c0,0-25.25-66.2-75.6-41.69h-0.01
		c8.61-24.99,41.56-35.99,63.45-16.89c0.92,0.79,1.81,1.64,2.69,2.55C101.974,109.74,114.824,127.32,120.444,145.63z"/>
	<path style="fill:#CCCCCC;" d="M65.124,200.92l-21.1-12.11c-12.9-7.4-21.36-20.63-22.66-35.44l-2.48-28.13
		c-0.53-6.04,0.22-11.65,1.95-16.68h0.01c50.35-24.51,75.6,41.69,75.6,41.69C77.984,158.41,64.004,176.77,65.124,200.92z"/>
	<path style="fill:none;stroke:#333333;stroke-width:13;stroke-linejoin:round;stroke-miterlimit:10;" d="M306.174,157.21
		c9.18-7.48,19.77-11.14,30.32-11.58c8.27-0.33,16.51,1.3,24,4.62c18.46,8.17,32.44,26.53,31.32,50.67l-3.48,75.01l-0.26,5.58
		c-1.19,25.75-12.46,49.99-31.35,67.51c-0.27,0.26-0.55,0.51-0.82,0.76l-42.81,38.84l-55.92,50.74c-16.29,14.76-41.12,14.76-57.41,0
		l-55.92-50.73l-42.82-38.85c-0.27-0.25-0.54-0.49-0.81-0.76c-18.88-17.51-30.16-41.76-31.35-67.51l-0.26-5.58l-3.48-75.01
		c-1.12-24.15,12.86-42.51,31.32-50.67c7.5-3.32,15.74-4.95,24-4.62c10.55,0.44,21.15,4.1,30.32,11.58"/>
	<path style="fill:none;stroke:#333333;stroke-width:13;stroke-linejoin:round;stroke-miterlimit:10;" d="M238.604,213.26
		c11.99-2.2,23.03-8.24,31.37-17.36l20.86-22.79"/>
	<path style="fill:none;stroke:#333333;stroke-width:13;stroke-linejoin:round;stroke-miterlimit:10;" d="M166.104,173.11
		l20.85,22.79c5.33,5.82,11.76,10.39,18.83,13.5c3.99,1.77,8.21,3.07,12.54,3.86"/>
	<path style="fill:none;stroke:#333333;stroke-width:13;stroke-linejoin:round;stroke-miterlimit:10;" d="M143.444,320.71
		c1.71-0.37,3.39-0.95,5.02-1.74l22.34-10.83l-19.44-23.22c-2.25-2.69-4.98-4.59-7.92-5.74c-9.58-3.78-21.34,0.36-25.68,10.95
		c-1.13,2.77-1.69,5.67-1.69,8.55c0,5.68,2.15,11.26,6.21,15.53c4.36,4.59,10.3,7.02,16.35,7.02
		C140.234,321.23,141.854,321.06,143.444,320.71z"/>
	<path style="fill:none;stroke:#333333;stroke-width:13;stroke-linejoin:round;stroke-miterlimit:10;" d="M313.494,320.71
		c-1.71-0.37-3.39-0.95-5.02-1.74l-22.35-10.83l19.44-23.22c2.25-2.69,4.99-4.6,7.93-5.75c9.58-3.77,21.33,0.38,25.67,10.96
		c1.14,2.77,1.69,5.68,1.69,8.56c0,5.67-2.14,11.26-6.2,15.52c-4.36,4.59-10.31,7.02-16.35,7.02
		C316.704,321.23,315.084,321.06,313.494,320.71z"/>
	<polyline style="fill:none;stroke:#333333;stroke-width:13;stroke-linejoin:round;stroke-miterlimit:10;" points="313.494,277.88 
		313.494,279.17 313.494,320.71 313.494,321.19 	"/>
	<polyline style="fill:none;stroke:#333333;stroke-width:13;stroke-linejoin:round;stroke-miterlimit:10;" points="143.444,277.88 
		143.444,279.18 143.444,320.71 143.444,321.19 	"/>
	<path style="fill:none;stroke:#333333;stroke-width:8;stroke-linejoin:round;stroke-miterlimit:10;" d="M229.154,382.03h-1.37
		c-12.22,0-23.14,7.64-27.32,19.12c-0.63,1.74-0.93,3.49-0.93,5.2c0,8.02,6.49,15.11,15.14,15.11h13.79h13.8
		c10.5,0,17.8-10.44,14.21-20.31c-2.09-5.74-5.87-10.52-10.65-13.86C241.044,383.94,235.264,382.03,229.154,382.03z"/>
	<path style="fill:none;stroke:#333333;stroke-width:13;stroke-linejoin:round;stroke-miterlimit:10;" d="M65.124,200.92
		l-21.1-12.11c-12.9-7.4-21.36-20.63-22.66-35.44l-2.48-28.13c-0.53-6.04,0.22-11.65,1.95-16.68c8.61-24.99,41.56-35.99,63.45-16.89
		c0.92,0.79,1.81,1.64,2.69,2.55c15,15.52,27.85,33.1,33.47,51.41v0.01"/>
	<path style="fill:none;stroke:#333333;stroke-width:8;stroke-linejoin:round;stroke-miterlimit:10;" d="M96.444,150.25
		c0,0-25.25-66.2-75.6-41.69"/>
	<path style="fill:none;stroke:#333333;stroke-width:13;stroke-linejoin:round;stroke-miterlimit:10;" d="M391.814,200.92
		l21.1-12.11c12.89-7.4,21.35-20.63,22.66-35.44l2.47-28.13c0.53-6.04-0.21-11.65-1.95-16.68c-8.64-25.08-41.78-36.07-63.68-16.69
		c-0.84,0.73-1.66,1.52-2.46,2.35c-14.99,15.52-27.85,33.1-33.46,51.41v0.01"/>
	<path style="fill:none;stroke:#333333;stroke-width:8;stroke-linejoin:round;stroke-miterlimit:10;" d="M360.494,150.25
		c0,0,25.24-66.2,75.59-41.69"/>
	
		<line style="fill:none;stroke:#333333;stroke-width:13;stroke-linejoin:round;stroke-miterlimit:10;" x1="62.954" y1="149.93" x2="62.954" y2="149.92"/>
	<path style="fill:none;stroke:#333333;stroke-width:8;stroke-linecap:round;stroke-linejoin:round;stroke-miterlimit:10;" d="
		M169.034,352.74c15.5-14.66,36.42-23.66,59.43-23.66c23.02,0,43.94,9,59.43,23.66"/>
	
		<line style="fill:none;stroke:#333333;stroke-width:13;stroke-linejoin:round;stroke-miterlimit:10;" x1="419.094" y1="149.93" x2="419.094" y2="149.92"/>
	
		<line style="fill:none;stroke:#333333;stroke-width:8;stroke-linejoin:round;stroke-miterlimit:10;" x1="228.464" y1="421.46" x2="228.464" y2="450.41"/>
	
		<polyline style="fill:none;stroke:#333333;stroke-width:8;stroke-linecap:round;stroke-linejoin:round;stroke-miterlimit:10;" points="
		228.464,37.9 228.464,29.64 228.464,4 	"/>
	
		<polyline style="fill:none;stroke:#333333;stroke-width:8;stroke-linecap:round;stroke-linejoin:round;stroke-miterlimit:10;" points="
		213.144,38.56 212.414,30.26 211.274,17.19 	"/>
	
		<polyline style="fill:none;stroke:#333333;stroke-width:8;stroke-linecap:round;stroke-linejoin:round;stroke-miterlimit:10;" points="
		197.934,40.55 196.464,32.18 192.054,7.19 	"/>
	
		<polyline style="fill:none;stroke:#333333;stroke-width:8;stroke-linecap:round;stroke-linejoin:round;stroke-miterlimit:10;" points="
		182.964,43.85 180.704,35.39 177.424,23.16 	"/>
	
		<polyline style="fill:none;stroke:#333333;stroke-width:8;stroke-linecap:round;stroke-linejoin:round;stroke-miterlimit:10;" points="
		168.344,48.45 165.224,39.89 156.764,16.64 	"/>
	
		<polyline style="fill:none;stroke:#333333;stroke-width:8;stroke-linecap:round;stroke-linejoin:round;stroke-miterlimit:10;" points="
		154.184,54.32 150.134,45.64 145.124,34.91 	"/>
	
		<polyline style="fill:none;stroke:#333333;stroke-width:8;stroke-linecap:round;stroke-linejoin:round;stroke-miterlimit:10;" points="
		140.584,61.42 135.514,52.64 123.644,32.09 	"/>
	
		<polyline style="fill:none;stroke:#333333;stroke-width:8;stroke-linecap:round;stroke-linejoin:round;stroke-miterlimit:10;" points="
		127.654,69.67 121.484,60.86 115.354,52.1 	"/>
	
		<polyline style="fill:none;stroke:#333333;stroke-width:8;stroke-linecap:round;stroke-linejoin:round;stroke-miterlimit:10;" points="
		115.504,79.02 108.114,70.22 93.714,53.05 	"/>
	
		<polyline style="fill:none;stroke:#333333;stroke-width:8;stroke-linecap:round;stroke-linejoin:round;stroke-miterlimit:10;" points="
		104.204,89.37 95.524,80.69 89.024,74.19 	"/>
	
		<polyline style="fill:none;stroke:#333333;stroke-width:8;stroke-linecap:round;stroke-linejoin:round;stroke-miterlimit:10;" points="
		367.904,74.19 361.214,80.89 352.734,89.37 	"/>
	
		<polyline style="fill:none;stroke:#333333;stroke-width:8;stroke-linecap:round;stroke-linejoin:round;stroke-miterlimit:10;" points="
		363.204,53.05 348.654,70.4 341.434,79 	"/>
	
		<polyline style="fill:none;stroke:#333333;stroke-width:8;stroke-linecap:round;stroke-linejoin:round;stroke-miterlimit:10;" points="
		341.564,52.1 335.314,61.03 329.264,69.67 	"/>
	
		<polyline style="fill:none;stroke:#333333;stroke-width:8;stroke-linecap:round;stroke-linejoin:round;stroke-miterlimit:10;" points="
		333.274,32.09 321.314,52.81 316.334,61.42 	"/>
	
		<polyline style="fill:none;stroke:#333333;stroke-width:8;stroke-linecap:round;stroke-linejoin:round;stroke-miterlimit:10;" points="
		311.804,34.91 306.724,45.79 302.744,54.32 	"/>
	
		<polyline style="fill:none;stroke:#333333;stroke-width:8;stroke-linecap:round;stroke-linejoin:round;stroke-miterlimit:10;" points="
		300.154,16.64 291.654,40 288.574,48.45 	"/>
	
		<polyline style="fill:none;stroke:#333333;stroke-width:8;stroke-linecap:round;stroke-linejoin:round;stroke-miterlimit:10;" points="
		279.494,23.16 276.194,35.48 273.954,43.85 	"/>
	
		<polyline style="fill:none;stroke:#333333;stroke-width:8;stroke-linecap:round;stroke-linejoin:round;stroke-miterlimit:10;" points="
		264.864,7.19 260.444,32.25 258.984,40.55 	"/>
	
		<polyline style="fill:none;stroke:#333333;stroke-width:8;stroke-linecap:round;stroke-linejoin:round;stroke-miterlimit:10;" points="
		245.644,17.19 244.494,30.3 243.774,38.56 	"/>
	
		<polyline style="fill:none;stroke:#333333;stroke-width:8;stroke-linecap:round;stroke-linejoin:round;stroke-miterlimit:10;" points="
		218.324,192.78 218.324,213.26 218.324,225.44 	"/>
	
		<polyline style="fill:none;stroke:#333333;stroke-width:8;stroke-linecap:round;stroke-linejoin:round;stroke-miterlimit:10;" points="
		238.604,192.78 238.604,213.26 238.604,225.44 	"/>
	
		<polyline style="fill:none;stroke:#333333;stroke-width:8;stroke-linecap:round;stroke-linejoin:round;stroke-miterlimit:10;" points="
		173.774,154.74 166.104,173.11 161.184,184.88 	"/>
	
		<polyline style="fill:none;stroke:#333333;stroke-width:8;stroke-linecap:round;stroke-linejoin:round;stroke-miterlimit:10;" points="
		155.064,146.92 150.764,157.21 142.474,177.07 	"/>
	
		<polyline style="fill:none;stroke:#333333;stroke-width:8;stroke-linecap:round;stroke-linejoin:round;stroke-miterlimit:10;" points="
		283.154,154.74 290.834,173.11 295.754,184.88 	"/>
	
		<polyline style="fill:none;stroke:#333333;stroke-width:8;stroke-linecap:round;stroke-linejoin:round;stroke-miterlimit:10;" points="
		301.864,146.92 306.164,157.22 314.464,177.07 	"/>
	<path style="fill:none;stroke:#333333;stroke-width:8;stroke-linecap:round;stroke-linejoin:round;stroke-miterlimit:10;" d="
		M389.254,275.94c-0.31,0-0.62,0-0.92-0.01c-39.32-0.33-39.63-22.52-79.57-22.52c-40.25,0-40.25,22.53-80.5,22.53
		c-40.26,0-40.26-22.53-80.51-22.53c-39.79,0-40.24,22.02-79.15,22.52c-0.44,0.01-0.89,0.01-1.35,0.01"/>
	<path style="fill:none;stroke:#333333;stroke-width:8;stroke-linecap:round;stroke-linejoin:round;stroke-miterlimit:10;" d="
		M313.094,388.62c-4.84-5.25-7.79-12.26-7.79-19.96c0-16.27,13.19-29.46,29.46-29.46c8.72,0,16.56,3.79,21.96,9.82"/>
	<path style="fill:none;stroke:#333333;stroke-width:8;stroke-linecap:round;stroke-linejoin:round;stroke-miterlimit:10;" d="
		M143.844,388.63c4.83-5.25,7.79-12.26,7.79-19.97c0-16.27-13.19-29.46-29.46-29.46c-8.72,0-16.56,3.79-21.96,9.82"/>
	<g>
		<path style="fill:#F9CD16;" d="M223.504,251.36c0-2.76,2.23-5,4.99-5.01l0,0c2.76,0,5.01,2.23,5.01,4.99l0,0
			c0.011,2.76-2.22,5.01-4.98,5.01l0,0C225.754,256.36,223.515,254.13,223.504,251.36z M206.254,253.64
			c-2.67-0.74-4.23-3.49-3.5-6.15l0,0c0.74-2.67,3.5-4.23,6.16-3.49l0,0c2.66,0.73,4.22,3.49,3.48,6.15l0,0
			c-0.61,2.22-2.62,3.67-4.811,3.67l0,0C207.145,253.82,206.694,253.76,206.254,253.64z M366.935,253.55
			c-2.65-0.75-4.2-3.51-3.46-6.17l0,0c0.75-2.66,3.51-4.2,6.17-3.46l0,0c2.66,0.75,4.21,3.51,3.46,6.17l0,0
			c-0.62,2.21-2.63,3.65-4.811,3.65l0,0C367.844,253.74,367.395,253.68,366.935,253.55z M244.614,250.05
			c-0.76-2.65,0.78-5.42,3.441-6.18l0,0c2.649-0.75,5.42,0.79,6.18,3.44l0,0c0.75,2.66-0.79,5.42-3.441,6.18l0,0
			c-0.46,0.13-0.92,0.19-1.37,0.19l0,0C247.244,253.68,245.244,252.25,244.614,250.05z M83.924,249.99
			c-0.77-2.65,0.75-5.43,3.41-6.2l0,0c2.65-0.77,5.42,0.76,6.19,3.41l0,0c0.77,2.65-0.75,5.42-3.4,6.19l0,0
			c-0.47,0.14-0.939,0.2-1.399,0.2l0,0C86.555,253.59,84.564,252.17,83.924,249.99z M185.855,244.62c-2.41-1.35-3.271-4.4-1.92-6.81
			l0,0c1.35-2.41,4.399-3.27,6.81-1.92l0,0c2.41,1.35,3.27,4.39,1.92,6.8l0,0c-0.92,1.64-2.62,2.56-4.37,2.56l0,0
			C187.464,245.25,186.634,245.05,185.855,244.62z M346.584,244.46c-2.41-1.35-3.27-4.39-1.92-6.8l0,0
			c1.351-2.41,4.4-3.27,6.811-1.92l0,0c2.409,1.35,3.27,4.39,1.92,6.8l0,0c-0.92,1.64-2.62,2.56-4.37,2.56l0,0
			C348.194,245.1,347.364,244.9,346.584,244.46z M264.294,242.45c-1.35-2.41-0.489-5.46,1.92-6.81l0,0
			c2.41-1.34,5.45-0.48,6.801,1.93l0,0c1.35,2.41,0.489,5.45-1.921,6.8l0,0c-0.769,0.43-1.609,0.64-2.439,0.64l0,0
			C266.904,245.01,265.204,244.09,264.294,242.45z M103.574,242.29c-1.35-2.41-0.49-5.46,1.92-6.81l0,0
			c2.41-1.35,5.46-0.48,6.8,1.93l0,0c1.351,2.41,0.49,5.45-1.92,6.8l0,0c-0.769,0.43-1.609,0.64-2.43,0.64l0,0
			C106.194,244.85,104.494,243.92,103.574,242.29z M167.704,236.35L167.704,236.35L167.704,236.35c-2.66-0.77-4.189-3.54-3.43-6.19
			l0,0c0.77-2.65,3.54-4.19,6.189-3.42l0,0c2.66,0.76,4.19,3.53,3.42,6.19l0,0c-0.63,2.19-2.63,3.61-4.8,3.61l0,0
			C168.624,236.54,168.164,236.48,167.704,236.35z M328.414,236.27c-2.66-0.76-4.2-3.52-3.45-6.17l0,0
			c0.75-2.66,3.511-4.21,6.17-3.46l0,0c2.65,0.75,4.2,3.51,3.45,6.17l0,0c-0.62,2.21-2.63,3.64-4.81,3.64l0,0
			C329.324,236.45,328.874,236.39,328.414,236.27z M283.105,232.75c-0.75-2.66,0.81-5.42,3.47-6.16l0,0
			c2.66-0.74,5.42,0.81,6.16,3.47l0,0c0.74,2.66-0.811,5.42-3.47,6.16l0,0c0,0,0,0-0.011,0l0,0c-0.449,0.13-0.899,0.19-1.34,0.19
			l0,0C285.725,236.41,283.714,234.96,283.105,232.75z M122.414,232.64c-0.729-2.67,0.84-5.42,3.5-6.15l0,0
			c2.67-0.73,5.42,0.84,6.141,3.51l0,0c0.73,2.66-0.841,5.41-3.5,6.14l0,0l0,0l0,0c-0.441,0.12-0.881,0.18-1.32,0.18l0,0
			C125.034,236.32,123.024,234.86,122.414,232.64z M148.154,233.82c-2.76-0.01-4.99-2.25-4.98-5.02l0,0
			c0.011-2.76,2.261-4.99,5.021-4.98l0,0c2.77,0.02,5,2.26,4.979,5.02l0,0c-0.01,2.76-2.25,4.98-5,4.98l0,0
			C148.174,233.82,148.164,233.82,148.154,233.82z M308.834,233.82L308.834,233.82L308.834,233.82L308.834,233.82L308.834,233.82
			L308.834,233.82z M303.844,228.82c0-2.76,2.24-5,5-5l0,0c2.761,0.01,5,2.25,4.99,5.01l0,0c0,2.76-2.24,4.99-5,4.99l0,0
			C306.074,233.82,303.834,231.58,303.844,228.82z"/>
	</g>
	<g>
		<path style="fill:#EA5F2F;" d="M192.154,297.71c-1.32,0-2.61-0.54-3.54-1.47c-0.93-0.93-1.47-2.22-1.47-3.53
			c0-1.32,0.54-2.61,1.47-3.54c0.93-0.93,2.22-1.46,3.54-1.46c1.31,0,2.6,0.53,3.53,1.46c0.93,0.93,1.47,2.22,1.47,3.54
			c0,1.31-0.54,2.6-1.47,3.53C194.754,297.17,193.464,297.71,192.154,297.71z"/>
		<path style="fill:#EA5F2F;" d="M223.254,301.69c0-2.76,2.24-5,5-5l0,0c2.761,0,5,2.24,5,5l0,0c0,2.76-2.239,5-5,5l0,0
			C225.494,306.69,223.254,304.45,223.254,301.69z M242.064,300.84c-0.641-2.68,1.01-5.38,3.7-6.03l0,0c0,0,0,0-0.011,0l0,0
			c2.69-0.65,5.391,1,6.04,3.69l0,0c0.641,2.69-1.01,5.39-3.689,6.03h-0.011c-0.39,0.1-0.779,0.14-1.17,0.14l0,0
			C244.664,304.67,242.624,303.13,242.064,300.84z M208.414,304.53L208.414,304.53c-2.689-0.65-4.34-3.35-3.689-6.03l0,0
			c0.649-2.69,3.35-4.34,6.029-3.69l0,0c2.69,0.64,4.34,3.34,3.69,6.03l0,0c-0.55,2.29-2.601,3.83-4.86,3.83l0,0
			C209.204,304.67,208.805,304.62,208.414,304.53z"/>
		<path style="fill:#EA5F2F;" d="M264.384,297.71c-1.319,0-2.609-0.54-3.54-1.47c-0.93-0.93-1.46-2.22-1.46-3.53
			c0-1.32,0.53-2.61,1.46-3.54c0.931-0.93,2.221-1.46,3.54-1.46c1.311,0,2.601,0.53,3.53,1.46c0.93,0.93,1.46,2.22,1.46,3.54
			c0,1.31-0.53,2.6-1.46,3.53C266.984,297.17,265.694,297.71,264.384,297.71z"/>
	</g>
	<g>
		<path style="fill:#EA5F2F;" d="M264.384,365.27c-1.319,0-2.609-0.54-3.54-1.47c-0.93-0.93-1.46-2.22-1.46-3.53
			c0-1.32,0.53-2.61,1.46-3.54c0.931-0.93,2.221-1.47,3.54-1.47c1.311,0,2.601,0.54,3.53,1.47c0.93,0.93,1.46,2.22,1.46,3.54
			c0,1.31-0.53,2.6-1.46,3.53C266.984,364.73,265.694,365.27,264.384,365.27z"/>
		<path style="fill:#EA5F2F;" d="M245.774,358.17c-2.69-0.65-4.34-3.35-3.69-6.04l0,0c0.641-2.68,3.351-4.33,6.03-3.68l0,0
			c2.68,0.64,4.34,3.34,3.691,6.03l0,0c-0.551,2.29-2.601,3.83-4.86,3.83l0,0C246.564,358.31,246.164,358.26,245.774,358.17z
			 M204.734,354.47c-0.641-2.68,1.01-5.38,3.689-6.03l0,0c2.69-0.64,5.391,1.01,6.04,3.69l0,0c0.641,2.69-1.01,5.39-3.689,6.03l0,0
			c-0.4,0.1-0.79,0.14-1.181,0.14l0,0C207.334,358.3,205.294,356.76,204.734,354.47z M223.274,351.29c0-2.76,2.23-5,5-5l0,0
			c2.76,0,4.99,2.24,4.99,5l0,0c0,2.76-2.23,5-4.99,5l0,0C225.504,356.29,223.274,354.05,223.274,351.29z M228.274,346.29
			L228.274,346.29L228.274,346.29L228.274,346.29L228.274,346.29z"/>
		<path style="fill:#EA5F2F;" d="M192.154,365.27c-1.32,0-2.61-0.54-3.54-1.47c-0.93-0.93-1.47-2.22-1.47-3.53
			c0-1.32,0.54-2.61,1.47-3.54c0.93-0.93,2.22-1.46,3.54-1.46c1.31,0,2.6,0.53,3.53,1.46c0.93,0.93,1.47,2.22,1.47,3.54
			c0,1.31-0.54,2.6-1.47,3.53C194.754,364.73,193.464,365.27,192.154,365.27z"/>
	</g>
</g>
<g>
</g>
<g>
</g>
<g>
</g>
<g>
</g>
<g>
</g>
<g>
</g>
<g>
</g>
<g>
</g>
<g>
</g>
<g>
</g>
<g>
</g>
<g>
</g>
<g>
</g>
<g>
</g>
<g>
</g>
</svg>
