<?xml version="1.0" encoding="iso-8859-1"?>
<!-- Generator: Adobe Illustrator 19.1.0, SVG Export Plug-In . SVG Version: 6.00 Build 0)  -->
<svg version="1.1" id="Capa_1" xmlns="http://www.w3.org/2000/svg" xmlns:xlink="http://www.w3.org/1999/xlink" x="0px" y="0px"
	 viewBox="0 0 458.98 458.98" style="enable-background:new 0 0 458.98 458.98;" xml:space="preserve">
<g>
	<path style="fill:#964502;" d="M417.99,58.326c22.71,8.73,37.24,35.77,24.55,61.81c-19.93,40.89-34.6,80.03-26.8,94.81
		c-14.56-25.15-31.14-50.5-45.91-72.01C364.69,72.806,417.99,58.326,417.99,58.326z"/>
	<path style="fill:#CCCCCC;" d="M369.83,142.936c14.77,21.51,31.35,46.86,45.91,72.01c0.01,0.03,0.02,0.06,0.04,0.09
		c17.67,30.54,32.36,60.79,37.2,83.54c0,0-11.45-3.9-28.65-5.9l0.1-0.84c0-30.35-14.83-75.87-85.44-120.38
		c-12.58-7.94-22.17-19.92-27.01-33.75l-1.4-4.11c-6.87-20.11-32.92-25.3-46.97-9.34L280,80.626c4.9,0.4,9.8,0.86,14.69,1.38
		l33.79,3.58C328.48,85.586,346.98,109.666,369.83,142.936z"/>
	<path style="fill:#F9CD16;" d="M64.54,291.846c21.01,1.37,44.76,7.34,65.95,23.23c12.75,9.56,22.9,17.61,31.47,24.34
		c20.58,16.16,32.02,24.66,48.25,27.98c9.95,2.03,19.28-5.57,19.28-15.73c0,9.04,7.39,16.06,16.03,16.06c1.07,0,2.16-0.11,3.25-0.33
		c16.22-3.32,27.67-11.83,48.25-27.97c8.57-6.74,18.72-14.8,31.46-24.35c21.19-15.89,44.94-21.86,65.95-23.23
		c10.96-0.72,21.17-0.19,29.9,0.83c17.2,2,28.65,5.9,28.65,5.9c-37.5,0-169.5,104.99-223.49,104.99
		c-54,0-185.99-104.99-223.49-104.99c0,0,11.44-3.9,28.64-5.9C43.37,291.656,53.58,291.126,64.54,291.846z"/>
	<path style="fill:#808080;" d="M424.43,291.836l-0.1,0.84c-8.73-1.02-18.94-1.55-29.9-0.83c-0.01-42.58-42.16-76.55-71.44-95.01
		c-18.32-11.55-32.25-28.89-39.37-49.34l-0.14-0.41c0,0-47.95,54.46-4.5,136.49c9.21,17.39,14.86,36.51,18.03,55.84l0.01,0.01
		c-20.58,16.14-32.03,24.65-48.25,27.97c-1.09,0.22-2.18,0.33-3.25,0.33c-8.64,0-16.03-7.02-16.03-16.06
		c7.08,0,13.77-2.28,19.23-6.24c5.45-3.97,9.69-9.62,11.88-16.36c0.27-0.83,0.4-1.66,0.4-2.47c0-4.22-3.42-7.93-7.95-7.93h-23.56
		v-103.58l34.12-90.83c14.05-15.96,40.1-10.77,46.97,9.34l1.4,4.11c4.84,13.83,14.43,25.81,27.01,33.75
		C409.6,215.966,424.43,261.486,424.43,291.836z"/>
	<path style="fill:#F9CD16;" d="M383.09,59.866c12.13-5.71,24.39-5.59,34.9-1.54c0,0-53.3,14.48-48.16,84.61
		c-22.85-33.27-41.35-57.35-41.35-57.35L383.09,59.866z"/>
	<path style="fill:#666666;" d="M322.99,196.836c29.28,18.46,71.43,52.43,71.44,95.01c-21.01,1.37-44.76,7.34-65.95,23.23
		c-12.74,9.55-22.89,17.61-31.46,24.35l-0.01-0.01c-3.17-19.33-8.82-38.45-18.03-55.84c-43.45-82.03,4.5-136.49,4.5-136.49
		l0.14,0.41C290.74,167.946,304.67,185.286,322.99,196.836z M343.27,244.656c0-1.31-0.53-2.6-1.46-3.53
		c-0.93-0.93-2.22-1.46-3.54-1.46s-2.61,0.53-3.53,1.46c-0.93,0.93-1.47,2.22-1.47,3.53c0,1.32,0.54,2.61,1.47,3.54
		c0.92,0.93,2.21,1.46,3.53,1.46s2.61-0.53,3.54-1.46C342.74,247.266,343.27,245.976,343.27,244.656z M332.11,257.326
		c0-1.71-0.7-3.38-1.91-4.59c-1.21-1.21-2.88-1.91-4.6-1.91c-1.71,0-3.38,0.7-4.59,1.91c-1.21,1.2-1.91,2.88-1.91,4.59
		c0,1.71,0.7,3.39,1.91,4.6c1.21,1.21,2.88,1.9,4.59,1.9c1.72,0,3.39-0.69,4.6-1.9C331.41,260.716,332.11,259.036,332.11,257.326z
		 M309.08,243.626c10.02-3.95,14.94-15.27,10.98-25.29c-3.95-10.02-10.32-2.38-20.34,1.57c-10.01,3.95-19.88,2.72-15.93,12.74
		C287.74,242.666,299.06,247.576,309.08,243.626z M316.94,267.326c0-2.1-0.86-4.17-2.35-5.66c-1.48-1.48-3.55-2.34-5.65-2.34
		c-2.11,0-4.17,0.86-5.66,2.34c-1.49,1.49-2.34,3.56-2.34,5.66c0,2.11,0.85,4.17,2.34,5.66c1.49,1.49,3.55,2.34,5.66,2.34
		c2.1,0,4.17-0.85,5.65-2.34C316.08,271.496,316.94,269.436,316.94,267.326z"/>
	<path style="fill:#EA5F2F;" d="M320.06,218.336c3.96,10.02-0.96,21.34-10.98,25.29c-10.02,3.95-21.34-0.96-25.29-10.98
		c-3.95-10.02,5.92-8.79,15.93-12.74C309.74,215.956,316.11,208.316,320.06,218.336z"/>
	<path style="fill:#F9CD16;" d="M280,80.626l-16.39,43.63l-34.12,90.83l-34.12-90.83l-0.01-0.01l-16.38-43.62
		c7.81-0.64,15.64-1.14,23.47-1.47l27.04,71.97l27.04-71.97C264.36,79.496,272.18,79.986,280,80.626z"/>
	<path style="fill:#964502;" d="M261,326.596c0,0.81-0.13,1.64-0.4,2.47c-2.19,6.74-6.43,12.39-11.88,16.36
		c-5.46,3.96-12.15,6.24-19.23,6.24c-7.09,0-13.78-2.28-19.24-6.24c-5.46-3.97-9.69-9.62-11.88-16.36
		c-1.67-5.13,2.16-10.4,7.55-10.4h23.57h23.56C257.58,318.666,261,322.376,261,326.596z"/>
	<path style="fill:#964502;" d="M256.53,79.156l-27.04,71.97l-27.04-71.97C220.47,78.356,238.51,78.356,256.53,79.156z"/>
	<path style="fill:#808080;" d="M229.49,215.086v103.58h-23.57c-5.39,0-9.22,5.27-7.55,10.4c2.19,6.74,6.42,12.39,11.88,16.36
		c5.46,3.96,12.15,6.24,19.24,6.24c0,10.16-9.33,17.76-19.28,15.73c-16.23-3.32-27.67-11.82-48.25-27.98
		c3.17-19.33,8.82-38.45,18.03-55.84c43.45-82.03-4.5-136.49-4.5-136.49l-0.14,0.41c-7.12,20.45-21.05,37.79-39.37,49.34
		c-29.28,18.46-71.43,52.43-71.44,95.01c-10.96-0.72-21.17-0.19-29.9,0.83l-0.1-0.82c0.01-30.37,14.84-75.89,85.44-120.4
		c12.59-7.94,22.18-19.92,27.01-33.75l1.41-4.12c6.87-20.11,32.92-25.29,46.96-9.34l0.01,0.01L229.49,215.086z"/>
	<path style="fill:#CCCCCC;" d="M178.98,80.626l16.38,43.62c-14.04-15.95-40.09-10.77-46.96,9.34l-1.41,4.12
		c-4.83,13.83-14.42,25.81-27.01,33.75c-70.6,44.51-85.43,90.03-85.44,120.4l0.1,0.82c-17.2,2-28.64,5.9-28.64,5.9
		c4.84-22.75,19.52-53,37.19-83.54c0.01-0.01,0.01-0.03,0.02-0.04c14.56-25.17,31.15-50.53,45.93-72.05
		c22.84-33.27,41.35-57.36,41.35-57.36l33.8-3.58C169.18,81.486,174.08,81.026,178.98,80.626z"/>
	<path style="fill:#666666;" d="M175.49,147.086c0,0,47.95,54.46,4.5,136.49c-9.21,17.39-14.86,36.51-18.03,55.84
		c-8.57-6.73-18.72-14.78-31.47-24.34c-21.19-15.89-44.94-21.86-65.95-23.23c0.01-42.58,42.16-76.55,71.44-95.01
		c18.32-11.55,32.25-28.89,39.37-49.34L175.49,147.086z M175.19,232.646c3.95-10.02-5.92-8.79-15.94-12.74
		c-10.02-3.95-16.39-11.59-20.34-1.57c-3.95,10.02,0.96,21.34,10.98,25.29S171.23,242.666,175.19,232.646z M158.03,267.326
		c0-2.1-0.85-4.16-2.34-5.65c-1.49-1.49-3.55-2.35-5.66-2.35c-2.1,0-4.16,0.86-5.65,2.35c-1.49,1.49-2.35,3.55-2.35,5.65
		c0,2.11,0.86,4.17,2.35,5.66c1.48,1.49,3.55,2.34,5.65,2.34c2.11,0,4.17-0.85,5.66-2.34
		C157.18,271.496,158.03,269.436,158.03,267.326z M139.86,257.326c0-1.71-0.69-3.38-1.9-4.59c-1.21-1.21-2.89-1.91-4.6-1.91
		c-1.71,0-3.38,0.7-4.59,1.91c-1.21,1.2-1.91,2.88-1.91,4.59c0,1.71,0.7,3.39,1.91,4.6c1.21,1.21,2.88,1.9,4.59,1.9
		c1.71,0,3.39-0.69,4.6-1.9C139.17,260.716,139.86,259.036,139.86,257.326z M125.7,244.666c0-1.32-0.54-2.61-1.47-3.54
		c-0.93-0.93-2.22-1.46-3.53-1.46c-1.32,0-2.61,0.53-3.54,1.46c-0.93,0.93-1.46,2.22-1.46,3.54c0,1.31,0.53,2.6,1.46,3.53
		c0.93,0.93,2.22,1.47,3.54,1.47s2.6-0.54,3.53-1.47C125.16,247.266,125.7,245.976,125.7,244.666z"/>
	<path style="fill:#EA5F2F;" d="M159.25,219.906c10.02,3.95,19.89,2.72,15.94,12.74c-3.96,10.02-15.28,14.93-25.3,10.98
		s-14.93-15.27-10.98-25.29C142.86,208.316,149.23,215.956,159.25,219.906z"/>
	<path style="fill:#F9CD16;" d="M75.89,59.866l54.6,25.72c0,0-18.51,24.09-41.35,57.36c5.15-70.14-48.16-84.62-48.16-84.62
		C51.49,54.276,63.76,54.146,75.89,59.866z"/>
	<g>
		<path style="fill:#F9CD16;" d="M341.81,241.126c0.93,0.93,1.46,2.22,1.46,3.53c0,1.32-0.53,2.61-1.46,3.54
			c-0.93,0.93-2.22,1.46-3.54,1.46s-2.61-0.53-3.53-1.46c-0.93-0.93-1.47-2.22-1.47-3.54c0-1.31,0.54-2.6,1.47-3.53
			c0.92-0.93,2.21-1.46,3.53-1.46S340.88,240.196,341.81,241.126z"/>
		<path style="fill:#F9CD16;" d="M330.2,252.736c1.21,1.21,1.91,2.88,1.91,4.59c0,1.71-0.7,3.39-1.91,4.6
			c-1.21,1.21-2.88,1.9-4.6,1.9c-1.71,0-3.38-0.69-4.59-1.9c-1.21-1.21-1.91-2.89-1.91-4.6c0-1.71,0.7-3.39,1.91-4.59
			c1.21-1.21,2.88-1.91,4.59-1.91C327.32,250.826,328.99,251.526,330.2,252.736z"/>
		<path style="fill:#F9CD16;" d="M314.59,261.666c1.49,1.49,2.35,3.56,2.35,5.66c0,2.11-0.86,4.17-2.35,5.66
			c-1.48,1.49-3.55,2.34-5.65,2.34c-2.11,0-4.17-0.85-5.66-2.34c-1.49-1.49-2.34-3.55-2.34-5.66c0-2.1,0.85-4.17,2.34-5.66
			c1.49-1.48,3.55-2.34,5.66-2.34C311.04,259.326,313.11,260.186,314.59,261.666z"/>
		<path style="fill:#F9CD16;" d="M155.69,261.676c1.49,1.49,2.34,3.55,2.34,5.65c0,2.11-0.85,4.17-2.34,5.66
			c-1.49,1.49-3.55,2.34-5.66,2.34c-2.1,0-4.17-0.85-5.65-2.34c-1.49-1.49-2.35-3.55-2.35-5.66c0-2.1,0.86-4.16,2.35-5.65
			c1.49-1.49,3.55-2.35,5.65-2.35C152.14,259.326,154.2,260.186,155.69,261.676z"/>
		<path style="fill:#F9CD16;" d="M137.96,252.736c1.21,1.21,1.9,2.88,1.9,4.59c0,1.71-0.69,3.39-1.9,4.6
			c-1.21,1.21-2.89,1.9-4.6,1.9c-1.71,0-3.38-0.69-4.59-1.9c-1.21-1.21-1.91-2.89-1.91-4.6c0-1.71,0.7-3.39,1.91-4.59
			c1.21-1.21,2.88-1.91,4.59-1.91C135.07,250.826,136.75,251.526,137.96,252.736z"/>
		<path style="fill:#F9CD16;" d="M124.23,241.126c0.93,0.93,1.47,2.22,1.47,3.54c0,1.31-0.54,2.6-1.47,3.53
			c-0.93,0.93-2.21,1.47-3.53,1.47s-2.61-0.54-3.54-1.47c-0.93-0.93-1.46-2.22-1.46-3.53c0-1.32,0.53-2.61,1.46-3.54
			c0.93-0.93,2.22-1.46,3.54-1.46C122.01,239.666,123.3,240.196,124.23,241.126z"/>
	</g>
	<path style="fill:#964502;" d="M40.98,58.326c0,0,53.31,14.48,48.16,84.62c-14.78,21.52-31.37,46.88-45.93,72.05
		c7.85-14.74-6.83-53.93-26.77-94.86C3.75,94.096,18.27,67.056,40.98,58.326z"/>
	<path style="fill:none;stroke:#333333;stroke-width:8;stroke-linecap:round;stroke-linejoin:round;stroke-miterlimit:10;" d="
		M40.98,58.326c0,0,53.31,14.48,48.16,84.62"/>
	<path style="fill:none;stroke:#333333;stroke-width:12;stroke-linecap:round;stroke-linejoin:round;stroke-miterlimit:10;" d="
		M130.49,85.586l-54.6-25.72c-12.13-5.72-24.4-5.59-34.91-1.54c-22.71,8.73-37.23,35.77-24.54,61.81
		c19.94,40.93,34.62,80.12,26.77,94.86"/>
	<path style="fill:none;stroke:#333333;stroke-width:8;stroke-linecap:round;stroke-linejoin:round;stroke-miterlimit:10;" d="
		M417.99,58.326c0,0-53.3,14.48-48.16,84.61v0.01"/>
	<path style="fill:none;stroke:#333333;stroke-width:12;stroke-linecap:round;stroke-linejoin:round;stroke-miterlimit:10;" d="
		M415.74,214.946c-14.56-25.15-31.14-50.5-45.91-72.01c-22.85-33.27-41.35-57.35-41.35-57.35l-33.79-3.58
		c-4.89-0.52-9.79-0.98-14.69-1.38c-7.82-0.64-15.64-1.13-23.47-1.47c-18.02-0.8-36.06-0.8-54.08,0
		c-7.83,0.33-15.66,0.83-23.47,1.47c-4.9,0.4-9.8,0.86-14.69,1.38l-33.8,3.58c0,0-18.51,24.09-41.35,57.36
		c-14.78,21.52-31.37,46.88-45.93,72.05c-0.01,0.01-0.01,0.03-0.02,0.04c-17.67,30.54-32.35,60.79-37.19,83.54
		c37.5,0,169.49,104.99,223.49,104.99c53.99,0,185.99-104.99,223.49-104.99c-4.84-22.75-19.53-53-37.2-83.54"/>
	<path style="fill:none;stroke:#333333;stroke-width:12;stroke-linecap:round;stroke-linejoin:round;stroke-miterlimit:10;" d="
		M328.48,85.586l54.61-25.72c12.13-5.71,24.39-5.59,34.9-1.54c22.71,8.73,37.24,35.77,24.55,61.81
		c-19.93,40.89-34.6,80.03-26.8,94.81c0.01,0.03,0.02,0.06,0.04,0.09"/>
	<path style="fill:none;stroke:#333333;stroke-width:8;stroke-linecap:round;stroke-linejoin:round;stroke-miterlimit:10;" d="
		M283.79,232.646c-3.95-10.02,5.92-8.79,15.93-12.74c10.02-3.95,16.39-11.59,20.34-1.57c3.96,10.02-0.96,21.34-10.98,25.29
		C299.06,247.576,287.74,242.666,283.79,232.646z"/>
	<path style="fill:none;stroke:#333333;stroke-width:8;stroke-linecap:round;stroke-linejoin:round;stroke-miterlimit:10;" d="
		M175.19,232.646c3.95-10.02-5.92-8.79-15.94-12.74c-10.02-3.95-16.39-11.59-20.34-1.57c-3.95,10.02,0.96,21.34,10.98,25.29
		S171.23,242.666,175.19,232.646z"/>
	
		<polyline style="fill:none;stroke:#333333;stroke-width:8;stroke-linecap:round;stroke-linejoin:round;stroke-miterlimit:10;" points="
		202.45,79.156 229.49,151.126 256.53,79.156 	"/>
	<path style="fill:#EA5F2F;" d="M248.77,367.396c2.08-0.43,4.08-0.94,6.04-1.54c-2.55,11.62-12.93,20.32-25.32,20.32
		c-12.4,0-22.78-8.7-25.34-20.32c1.96,0.6,3.97,1.11,6.06,1.54c9.95,2.03,19.28-5.57,19.28-15.73c0,9.04,7.39,16.06,16.03,16.06
		C246.59,367.726,247.68,367.616,248.77,367.396z"/>
	<path style="fill:none;stroke:#333333;stroke-width:8;stroke-linejoin:round;stroke-miterlimit:10;" d="M203.96,364.896
		c0.06,0.32,0.12,0.64,0.19,0.96c2.56,11.62,12.94,20.32,25.34,20.32c12.39,0,22.77-8.7,25.32-20.32c0.08-0.32,0.14-0.64,0.2-0.96"
		/>
	<path style="fill:#999999;" d="M261.951,332.831l-2.693-7.533l24.003-8.583l-55.915-35.51c-0.979-0.622-1.64-1.638-1.812-2.784
		c-0.171-1.147,0.163-2.312,0.917-3.193l30.593-35.749l-29.864-21.127c-0.982-0.695-1.599-1.794-1.681-2.994
		c-0.081-1.2,0.38-2.372,1.259-3.194l35.169-32.879l-2.314-54.86c-0.072-1.702,0.942-3.262,2.525-3.888
		c1.582-0.626,3.391-0.181,4.502,1.109l16.883,19.601l17.04-21.116c1.03-1.277,2.736-1.796,4.304-1.307
		c1.567,0.489,2.676,1.885,2.797,3.522l4.245,57.123l25.413-11.648c1.131-0.518,2.438-0.481,3.538,0.101
		c1.099,0.582,1.865,1.643,2.073,2.869l6.305,37.339l31.031-8.044c1.25-0.324,2.581-0.025,3.57,0.804
		c0.991,0.829,1.52,2.085,1.422,3.372l-2.969,38.917l38.83,15.064c1.205,0.467,2.11,1.489,2.429,2.741
		c0.319,1.253,0.014,2.582-0.821,3.57l-25.244,29.869l-6.11-5.164l21.624-25.586l-36.369-14.109
		c-1.644-0.638-2.676-2.276-2.542-4.034l2.769-36.297l-29.835,7.734c-1.085,0.281-2.239,0.094-3.179-0.515
		c-0.94-0.609-1.582-1.586-1.769-2.691l-6.163-36.496l-25.9,11.871c-1.19,0.546-2.573,0.474-3.7-0.192
		c-1.128-0.666-1.858-1.842-1.955-3.148l-3.922-52.772l-13.7,16.978c-0.745,0.924-1.862,1.469-3.049,1.488
		c-1.161,0.021-2.32-0.49-3.095-1.389l-12.501-14.514l1.906,45.195c0.049,1.165-0.413,2.294-1.265,3.09l-32.926,30.782
		l29.438,20.826c0.919,0.65,1.521,1.656,1.659,2.772c0.139,1.116-0.199,2.239-0.93,3.094l-30.446,35.577l58.93,37.425
		c1.29,0.819,2.001,2.302,1.831,3.82c-0.169,1.519-1.189,2.808-2.628,3.323L261.951,332.831z"/>
	<path style="fill:#999999;" d="M197.029,332.831l-31.709-11.339c-1.439-0.514-2.459-1.804-2.628-3.323
		c-0.17-1.519,0.54-3.001,1.831-3.82l58.93-37.425l-30.447-35.577c-0.732-0.855-1.069-1.978-0.931-3.094
		c0.139-1.116,0.741-2.122,1.66-2.772l29.438-20.826l-32.926-30.782c-0.852-0.796-1.313-1.925-1.265-3.09l1.906-45.195
		l-12.501,14.514c-0.775,0.899-1.908,1.41-3.095,1.389c-1.187-0.019-2.304-0.564-3.049-1.488l-13.701-16.978l-3.921,52.772
		c-0.097,1.306-0.827,2.482-1.955,3.148c-1.128,0.666-2.511,0.738-3.701,0.192l-25.9-11.871l-6.164,36.496
		c-0.187,1.105-0.829,2.081-1.769,2.691c-0.941,0.609-2.094,0.796-3.179,0.515l-29.835-7.734l2.77,36.297
		c0.134,1.758-0.898,3.396-2.541,4.034l-36.369,14.109l21.624,25.586l-6.11,5.164l-25.243-29.869
		c-0.834-0.987-1.14-2.317-0.821-3.57c0.319-1.253,1.224-2.274,2.429-2.741l38.83-15.063l-2.969-38.918
		c-0.098-1.288,0.431-2.544,1.422-3.372c0.991-0.829,2.32-1.128,3.57-0.804l31.031,8.044l6.306-37.339
		c0.207-1.227,0.974-2.287,2.073-2.869c1.1-0.582,2.407-0.619,3.538-0.101l25.414,11.648l4.245-57.123
		c0.122-1.637,1.231-3.033,2.797-3.522c1.569-0.489,3.273,0.029,4.304,1.307l17.04,21.116l16.883-19.601
		c1.111-1.29,2.918-1.735,4.502-1.109c1.583,0.626,2.597,2.187,2.525,3.888l-2.314,54.86l35.169,32.879
		c0.878,0.821,1.34,1.994,1.259,3.194c-0.082,1.2-0.699,2.299-1.681,2.993l-29.865,21.127l30.594,35.749
		c0.754,0.881,1.088,2.046,0.917,3.193c-0.172,1.147-0.833,2.163-1.812,2.784l-55.915,35.51l24.003,8.583L197.029,332.831z"/>
	<g>
		<path style="fill:none;stroke:#333333;stroke-width:8;stroke-linecap:round;stroke-linejoin:round;stroke-miterlimit:10;" d="
			M369.57,129.306c21.45,7.7,39.5,22.6,51.21,41.78"/>
		<path style="fill:none;stroke:#333333;stroke-width:8;stroke-linecap:round;stroke-linejoin:round;stroke-miterlimit:10;" d="
			M372.36,109.136c22.76,7.27,42.57,21.22,57.1,39.53"/>
		<path style="fill:none;stroke:#333333;stroke-width:8;stroke-linecap:round;stroke-linejoin:round;stroke-miterlimit:10;" d="
			M379.68,90.466c22.77,7.53,42.96,20.78,58.84,38.05"/>
		
			<line style="fill:none;stroke:#333333;stroke-width:8;stroke-linecap:round;stroke-linejoin:round;stroke-miterlimit:10;" x1="368.42" y1="66.776" x2="368.41" y2="66.776"/>
		<path style="fill:none;stroke:#333333;stroke-width:8;stroke-linecap:round;stroke-linejoin:round;stroke-miterlimit:10;" d="
			M392.53,73.806c20.31,7.73,38.64,19.5,54,34.32"/>
	</g>
	<g>
		<path style="fill:none;stroke:#333333;stroke-width:8;stroke-linecap:round;stroke-linejoin:round;stroke-miterlimit:10;" d="
			M38.339,171.086c11.71-19.18,29.76-34.08,51.21-41.78"/>
		<path style="fill:none;stroke:#333333;stroke-width:8;stroke-linecap:round;stroke-linejoin:round;stroke-miterlimit:10;" d="
			M29.659,148.666c14.53-18.31,34.34-32.26,57.1-39.53"/>
		<path style="fill:none;stroke:#333333;stroke-width:8;stroke-linecap:round;stroke-linejoin:round;stroke-miterlimit:10;" d="
			M20.599,128.516c15.88-17.27,36.07-30.52,58.84-38.05"/>
		
			<line style="fill:none;stroke:#333333;stroke-width:8;stroke-linecap:round;stroke-linejoin:round;stroke-miterlimit:10;" x1="90.709" y1="66.776" x2="90.699" y2="66.776"/>
		<path style="fill:none;stroke:#333333;stroke-width:8;stroke-linecap:round;stroke-linejoin:round;stroke-miterlimit:10;" d="
			M12.589,108.126c15.36-14.82,33.69-26.59,54-34.32"/>
	</g>
	<path style="fill:none;stroke:#333333;stroke-width:8;stroke-linejoin:round;stroke-miterlimit:10;" d="M34.54,291.856
		c0.01-30.37,14.84-75.89,85.44-120.4c12.59-7.94,22.18-19.92,27.01-33.75l1.41-4.12c6.87-20.11,32.92-25.29,46.96-9.34"/>
	<path style="fill:none;stroke:#333333;stroke-width:8;stroke-linejoin:round;stroke-miterlimit:10;" d="M161.96,339.416
		c3.17-19.33,8.82-38.45,18.03-55.84c43.45-82.03-4.5-136.49-4.5-136.49l-0.14,0.41c-7.12,20.45-21.05,37.79-39.37,49.34
		c-29.28,18.46-71.43,52.43-71.44,95.01v0.01"/>
	<path style="fill:none;stroke:#333333;stroke-width:8;stroke-linejoin:round;stroke-miterlimit:10;" d="M263.61,124.256
		c14.05-15.96,40.1-10.77,46.97,9.34l1.4,4.11c4.84,13.83,14.43,25.81,27.01,33.75c70.61,44.51,85.44,90.03,85.44,120.38"/>
	<path style="fill:none;stroke:#333333;stroke-width:8;stroke-linejoin:round;stroke-miterlimit:10;" d="M394.43,291.856v-0.01
		c-0.01-42.58-42.16-76.55-71.44-95.01c-18.32-11.55-32.25-28.89-39.37-49.34l-0.14-0.41c0,0-47.95,54.46-4.5,136.49
		c9.21,17.39,14.86,36.51,18.03,55.84"/>
	
		<polyline style="fill:none;stroke:#333333;stroke-width:8;stroke-linecap:round;stroke-linejoin:round;stroke-miterlimit:10;" points="
		178.98,80.626 195.36,124.246 195.37,124.256 229.49,215.086 263.61,124.256 280,80.626 	"/>
	<path style="fill:none;stroke:#333333;stroke-width:8;stroke-linecap:round;stroke-linejoin:round;stroke-miterlimit:10;" d="
		M229.49,351.666c7.08,0,13.77-2.28,19.23-6.24c5.45-3.97,9.69-9.62,11.88-16.36c0.27-0.83,0.4-1.66,0.4-2.47
		c0-4.22-3.42-7.93-7.95-7.93h-23.56h-23.57c-5.39,0-9.22,5.27-7.55,10.4c2.19,6.74,6.42,12.39,11.88,16.36
		C215.71,349.386,222.4,351.666,229.49,351.666z"/>
	
		<line style="fill:none;stroke:#333333;stroke-width:8;stroke-linejoin:round;stroke-miterlimit:10;" x1="229.49" y1="318.666" x2="229.49" y2="215.086"/>
	<path style="fill:none;stroke:#333333;stroke-width:8;stroke-linejoin:round;stroke-miterlimit:10;" d="M6,298.576
		c0,0,11.44-3.9,28.64-5.9c8.73-1.02,18.94-1.55,29.9-0.83c21.01,1.37,44.76,7.34,65.95,23.23c12.75,9.56,22.9,17.61,31.47,24.34
		c17.93,14.08,28.92,22.34,42.19,26.44c1.96,0.6,3.97,1.11,6.06,1.54c9.95,2.03,19.28-5.57,19.28-15.73
		c0,9.04,7.39,16.06,16.03,16.06c1.07,0,2.16-0.11,3.25-0.33c2.08-0.43,4.08-0.94,6.04-1.54c13.27-4.09,24.27-12.36,42.21-26.43
		c8.57-6.74,18.72-14.8,31.46-24.35c21.19-15.89,44.94-21.86,65.95-23.23c10.96-0.72,21.17-0.19,29.9,0.83
		c17.2,2,28.65,5.9,28.65,5.9"/>
</g>
<g>
</g>
<g>
</g>
<g>
</g>
<g>
</g>
<g>
</g>
<g>
</g>
<g>
</g>
<g>
</g>
<g>
</g>
<g>
</g>
<g>
</g>
<g>
</g>
<g>
</g>
<g>
</g>
<g>
</g>
</svg>
