<?xml version="1.0" encoding="iso-8859-1"?>
<!-- Generator: Adobe Illustrator 19.0.0, SVG Export Plug-In . SVG Version: 6.00 Build 0)  -->
<svg xmlns="http://www.w3.org/2000/svg" xmlns:xlink="http://www.w3.org/1999/xlink" version="1.1" id="Capa_1" x="0px" y="0px" viewBox="0 0 463.136 463.136" style="enable-background:new 0 0 463.136 463.136;" xml:space="preserve" width="512px" height="512px">
<path d="M423.568,184h-64c-2.278,0-4.434,1.036-5.856,2.815l-28.733,35.916l-43.038-14.346c-0.629-0.21-1.266-0.322-1.898-0.362  c-0.399-0.893-0.732-1.635-0.997-2.223c-0.157-18.241-2.818-32.955-8.079-44.45l39.092-86.003L357.568,12  c2.485-3.313,1.813-8.015-1.5-10.5c-3.313-2.484-8.014-1.814-10.5,1.5l-48,64c-0.325,0.434-0.604,0.902-0.828,1.396l-26.986,59.369  C266.548,118.597,257.817,112,247.568,112c-2.997,0-5.862,0.57-8.5,1.597V79.5c0-4.142-3.357-7.5-7.5-7.5s-7.5,3.358-7.5,7.5v34.097  c-2.638-1.027-5.503-1.597-8.5-1.597c-10.249,0-18.98,6.597-22.186,15.765l-26.986-59.369c-0.225-0.494-0.503-0.962-0.828-1.396  l-48-64c-2.485-3.313-7.186-3.984-10.5-1.5c-3.313,2.485-3.985,7.187-1.5,10.5l47.51,63.347l39.092,86.003  c-5.265,11.502-7.927,26.228-8.08,44.486c-0.262,0.581-0.589,1.312-0.98,2.186c-0.637,0.039-1.279,0.152-1.914,0.364l-43.038,14.346  l-28.733-35.916c-1.423-1.779-3.578-2.815-5.856-2.815h-64c-4.143,0-7.5,3.358-7.5,7.5s3.357,7.5,7.5,7.5h60.396l29.748,37.185  c1.45,1.813,3.62,2.815,5.857,2.815c0.792,0,1.592-0.125,2.371-0.385l37.186-12.395c-3.674,8.513-8.149,19.061-13.01,30.912  l-28.368,7.092c-2.336,0.584-4.25,2.254-5.145,4.49l-15.315,38.29l-54.602,46.801c-3.145,2.696-3.509,7.43-0.813,10.575  c1.483,1.731,3.584,2.619,5.698,2.619c1.727,0,3.463-0.593,4.877-1.806l56-48c0.919-0.788,1.634-1.786,2.083-2.909l14.575-36.439  l14.062-3.516c-20.13,50.618-43.101,115.708-43.101,149.169c0,20.583,10.18,30.22,18.72,34.679  c6.762,3.531,14.623,4.957,22.446,4.957c13.705,0,27.291-4.378,34.62-9.481c10.077-7.018,19.048-20.313,26.552-34.983  c0.28-0.424,0.506-0.888,0.698-1.374c6.855-13.644,12.443-28.331,16.472-40.193c4.028,11.86,9.615,26.544,16.469,40.186  c0.195,0.496,0.425,0.969,0.711,1.4c7.501,14.662,16.47,27.949,26.542,34.963c7.329,5.104,20.913,9.482,34.619,9.482  c7.822,0,15.686-1.426,22.447-4.957c8.54-4.459,18.72-14.096,18.72-34.68c0-33.46-22.97-98.547-43.099-149.165l14.045,3.511  l14.575,36.439c0.449,1.123,1.164,2.121,2.083,2.909l56,48c1.414,1.212,3.149,1.806,4.877,1.806c2.114,0,4.215-0.889,5.698-2.619  c2.695-3.145,2.331-7.879-0.813-10.575l-54.602-46.801l-15.315-38.29c-0.895-2.236-2.809-3.906-5.145-4.49l-28.35-7.088  c-4.861-11.85-9.335-22.397-13.009-30.911l37.168,12.389c0.779,0.26,1.579,0.385,2.371,0.385c2.236,0,4.407-1.003,5.857-2.815  L363.173,199h60.396c4.143,0,7.5-3.358,7.5-7.5S427.711,184,423.568,184z M231.577,269.593  c-14.787-13.82-24.106-32.519-28.806-46.143c11.017-0.607,21.769-4.112,28.797-10.514c7.03,6.406,17.788,9.916,28.811,10.52  C255.679,237.084,246.358,255.786,231.577,269.593z M231.568,152.69c4.199,3.911,9.823,6.31,16,6.31c1.457,0,2.88-0.14,4.264-0.395  c8.121,9.991,12.236,26.419,12.236,48.895c0,0.061,0.008,0.119,0.009,0.18c-0.004,0.271-0.017,0.563-0.041,0.882  c-12.203,0.076-23.417-4.554-25.245-11.084c-0.907-3.238-3.859-5.478-7.223-5.478s-6.315,2.239-7.223,5.478  c-1.828,6.528-13.038,11.157-25.229,11.085c-0.029-0.386-0.048-0.747-0.048-1.063c0-22.476,4.115-38.904,12.236-48.895  c1.384,0.255,2.808,0.395,4.264,0.395C221.745,159,227.369,156.601,231.568,152.69z M247.568,127c4.687,0,8.5,3.813,8.5,8.5  s-3.813,8.5-8.5,8.5s-8.5-3.813-8.5-8.5S242.882,127,247.568,127z M215.568,127c4.687,0,8.5,3.813,8.5,8.5s-3.813,8.5-8.5,8.5  s-8.5-3.813-8.5-8.5S210.882,127,215.568,127z M127.068,423.5c0-28.227,18.56-83.054,36.746-130.001  c-4.497,28.664-6.443,56.154-8.164,80.537c-2.593,36.75-5.042,71.464-16.367,71.464c-0.029,0-0.06,0-0.091,0  c-0.054,0-0.106,0.007-0.16,0.008c-0.442-0.196-0.876-0.404-1.301-0.625C130.555,441.136,127.068,434.142,127.068,423.5z   M179.282,441.345c-3.923,2.732-11.896,5.496-20.438,6.423c3.105-5.646,4.547-11.71,5.29-14.844  c3.417-14.429,4.836-34.542,6.479-57.832c1.785-25.287,3.817-53.987,8.747-83.701c2.87,31.401,9.614,57.818,14.845,78.292  c4.843,18.953,8.677,34.007,6.853,42.228C194.499,424.812,187.062,435.927,179.282,441.345z M224.068,350.525  c-2.086,7.814-5.885,20.202-10.885,33.463c-1.256-5.516-2.779-11.496-4.445-18.018c-8.08-31.622-18.7-73.246-15.097-125.121  c6.497,14.294,16.467,30.082,30.433,42.17l-0.002,1.669c-0.003,3.251-0.003,7.813-0.003,13.064  c0.001,8.789,0.004,19.504,0.008,29.229c-0.001,1.905-0.001,3.762-0.002,5.536L224.068,350.525z M239.078,332.517  c-0.001-1.774-0.001-3.631-0.002-5.536c0.003-9.725,0.007-20.44,0.007-29.229c0.001-5.251,0-9.813-0.002-13.064  c0-0.6-0.001-1.146-0.003-1.67c13.971-12.105,23.938-27.888,30.433-42.175c3.604,51.878-7.017,93.505-15.097,125.128  c-1.666,6.521-3.189,12.501-4.445,18.017c-5-13.26-8.799-25.648-10.885-33.462L239.078,332.517z M262.092,411.907  c-1.822-8.222,2.012-23.274,6.855-42.223c5.231-20.474,11.975-46.89,14.845-78.291c4.93,29.713,6.961,58.412,8.746,83.698  c1.644,23.29,3.063,43.404,6.48,57.833c0.743,3.135,2.184,9.199,5.289,14.845c-8.542-0.928-16.514-3.692-20.437-6.424  C276.089,435.927,268.651,424.81,262.092,411.907z M325.421,444.883c-0.424,0.221-0.859,0.429-1.3,0.625  c-0.054-0.001-0.106-0.008-0.161-0.008c-0.029,0-0.058,0-0.091,0c-11.323,0-13.774-34.716-16.368-71.465  c-1.721-24.384-3.667-51.876-8.164-80.541c18.186,46.947,36.747,101.777,36.747,130.006  C336.084,434.142,332.596,441.136,325.421,444.883z" fill="#FFFFFF"/>
<g>
</g>
<g>
</g>
<g>
</g>
<g>
</g>
<g>
</g>
<g>
</g>
<g>
</g>
<g>
</g>
<g>
</g>
<g>
</g>
<g>
</g>
<g>
</g>
<g>
</g>
<g>
</g>
<g>
</g>
</svg>
